solid OpenSCAD_Model
  facet normal 0.218144 0 -0.975917
    outer loop
      vertex 28.482 -22 65.6923
      vertex 32 -14 66.4787
      vertex 32 -22 66.4787
    endloop
  endfacet
  facet normal 0.218144 0 -0.975917
    outer loop
      vertex 32 -14 66.4787
      vertex 28.482 -22 65.6923
      vertex 28.482 -14 65.6923
    endloop
  endfacet
  facet normal -0.0941079 0 -0.995562
    outer loop
      vertex -19.0507 -22 64.1986
      vertex -9.54416 -14 63.2999
      vertex -9.54416 -22 63.2999
    endloop
  endfacet
  facet normal -0.0941079 0 -0.995562
    outer loop
      vertex -9.54416 -14 63.2999
      vertex -19.0507 -22 64.1986
      vertex -19.0507 -14 64.1986
    endloop
  endfacet
  facet normal 0.156435 0 -0.987688
    outer loop
      vertex 19.0507 -22 64.1986
      vertex 28.482 -14 65.6923
      vertex 28.482 -22 65.6923
    endloop
  endfacet
  facet normal 0.156435 0 -0.987688
    outer loop
      vertex 28.482 -14 65.6923
      vertex 19.0507 -22 64.1986
      vertex 19.0507 -14 64.1986
    endloop
  endfacet
  facet normal -0.218144 0 -0.975917
    outer loop
      vertex -32 -22 66.4787
      vertex -28.482 -14 65.6923
      vertex -28.482 -22 65.6923
    endloop
  endfacet
  facet normal -0.218144 0 -0.975917
    outer loop
      vertex -28.482 -14 65.6923
      vertex -32 -22 66.4787
      vertex -32 -14 66.4787
    endloop
  endfacet
  facet normal -0.156435 0 -0.987688
    outer loop
      vertex -28.482 -22 65.6923
      vertex -19.0507 -14 64.1986
      vertex -19.0507 -22 64.1986
    endloop
  endfacet
  facet normal -0.156435 0 -0.987688
    outer loop
      vertex -19.0507 -14 64.1986
      vertex -28.482 -22 65.6923
      vertex -28.482 -14 65.6923
    endloop
  endfacet
  facet normal 0.0314109 0 -0.999507
    outer loop
      vertex 0 -22 63
      vertex 9.54416 -14 63.2999
      vertex 9.54416 -22 63.2999
    endloop
  endfacet
  facet normal 0.0314109 0 -0.999507
    outer loop
      vertex 9.54416 -14 63.2999
      vertex 0 -22 63
      vertex 0 -14 63
    endloop
  endfacet
  facet normal 0.0941079 0 -0.995562
    outer loop
      vertex 9.54416 -22 63.2999
      vertex 19.0507 -14 64.1986
      vertex 19.0507 -22 64.1986
    endloop
  endfacet
  facet normal 0.0941079 0 -0.995562
    outer loop
      vertex 19.0507 -14 64.1986
      vertex 9.54416 -22 63.2999
      vertex 9.54416 -14 63.2999
    endloop
  endfacet
  facet normal -0.0314109 0 -0.999507
    outer loop
      vertex -9.54416 -22 63.2999
      vertex 0 -14 63
      vertex 0 -22 63
    endloop
  endfacet
  facet normal -0.0314109 0 -0.999507
    outer loop
      vertex 0 -14 63
      vertex -9.54416 -22 63.2999
      vertex -9.54416 -14 63.2999
    endloop
  endfacet
  facet normal 0 1 -0
    outer loop
      vertex 32 -14 66.4787
      vertex 27.9198 -14 68.6392
      vertex 32 -14 69.5512
    endloop
  endfacet
  facet normal 0 1 -0
    outer loop
      vertex 28.482 -14 65.6923
      vertex 27.9198 -14 68.6392
      vertex 32 -14 66.4787
    endloop
  endfacet
  facet normal 0 1 0
    outer loop
      vertex 27.9198 -14 68.6392
      vertex 28.482 -14 65.6923
      vertex 18.6747 -14 67.1749
    endloop
  endfacet
  facet normal 0 1 -0
    outer loop
      vertex 19.0507 -14 64.1986
      vertex 18.6747 -14 67.1749
      vertex 28.482 -14 65.6923
    endloop
  endfacet
  facet normal 0 1 0
    outer loop
      vertex 18.6747 -14 67.1749
      vertex 19.0507 -14 64.1986
      vertex 9.35579 -14 66.294
    endloop
  endfacet
  facet normal 0 1 0
    outer loop
      vertex -27.9198 -14 68.6392
      vertex -32 -14 66.4787
      vertex -32 -14 69.5512
    endloop
  endfacet
  facet normal 0 1 0
    outer loop
      vertex -28.482 -14 65.6923
      vertex -27.9198 -14 68.6392
      vertex -18.6747 -14 67.1749
    endloop
  endfacet
  facet normal 0 1 0
    outer loop
      vertex -19.0507 -14 64.1986
      vertex -18.6747 -14 67.1749
      vertex -9.35579 -14 66.294
    endloop
  endfacet
  facet normal 0 1 0
    outer loop
      vertex -9.54416 -14 63.2999
      vertex -9.35579 -14 66.294
      vertex 0 -14 66
    endloop
  endfacet
  facet normal 0 1 0
    outer loop
      vertex -27.9198 -14 68.6392
      vertex -28.482 -14 65.6923
      vertex -32 -14 66.4787
    endloop
  endfacet
  facet normal 0 1 -0
    outer loop
      vertex 9.54416 -14 63.2999
      vertex 9.35579 -14 66.294
      vertex 19.0507 -14 64.1986
    endloop
  endfacet
  facet normal 0 1 0
    outer loop
      vertex 9.35579 -14 66.294
      vertex 9.54416 -14 63.2999
      vertex 0 -14 66
    endloop
  endfacet
  facet normal 0 1 0
    outer loop
      vertex -18.6747 -14 67.1749
      vertex -19.0507 -14 64.1986
      vertex -28.482 -14 65.6923
    endloop
  endfacet
  facet normal 0 1 0
    outer loop
      vertex 0 -14 63
      vertex 0 -14 66
      vertex 9.54416 -14 63.2999
    endloop
  endfacet
  facet normal 0 1 0
    outer loop
      vertex -9.35579 -14 66.294
      vertex -9.54416 -14 63.2999
      vertex -19.0507 -14 64.1986
    endloop
  endfacet
  facet normal 0 1 0
    outer loop
      vertex 0 -14 66
      vertex 0 -14 63
      vertex -9.54416 -14 63.2999
    endloop
  endfacet
  facet normal 0.0314112 0 0.999507
    outer loop
      vertex -9.35579 -14 66.294
      vertex 0 -22 66
      vertex 0 -14 66
    endloop
  endfacet
  facet normal 0.0314112 0 0.999507
    outer loop
      vertex 0 -22 66
      vertex -9.35579 -14 66.294
      vertex -9.35579 -22 66.294
    endloop
  endfacet
  facet normal -0.156434 0 0.987688
    outer loop
      vertex 18.6747 -14 67.1749
      vertex 27.9198 -22 68.6392
      vertex 27.9198 -14 68.6392
    endloop
  endfacet
  facet normal -0.156434 0 0.987688
    outer loop
      vertex 27.9198 -22 68.6392
      vertex 18.6747 -14 67.1749
      vertex 18.6747 -22 67.1749
    endloop
  endfacet
  facet normal 0.156434 0 0.987688
    outer loop
      vertex -27.9198 -14 68.6392
      vertex -18.6747 -22 67.1749
      vertex -18.6747 -14 67.1749
    endloop
  endfacet
  facet normal 0.156434 0 0.987688
    outer loop
      vertex -18.6747 -22 67.1749
      vertex -27.9198 -14 68.6392
      vertex -27.9198 -22 68.6392
    endloop
  endfacet
  facet normal -0.0314112 0 0.999507
    outer loop
      vertex 0 -14 66
      vertex 9.35579 -22 66.294
      vertex 9.35579 -14 66.294
    endloop
  endfacet
  facet normal -0.0314112 0 0.999507
    outer loop
      vertex 9.35579 -22 66.294
      vertex 0 -14 66
      vertex 0 -22 66
    endloop
  endfacet
  facet normal 0.218144 0 0.975917
    outer loop
      vertex -32 -14 69.5512
      vertex -27.9198 -22 68.6392
      vertex -27.9198 -14 68.6392
    endloop
  endfacet
  facet normal 0.218144 0 0.975917
    outer loop
      vertex -27.9198 -22 68.6392
      vertex -32 -14 69.5512
      vertex -32 -22 69.5512
    endloop
  endfacet
  facet normal 0.0941081 0 0.995562
    outer loop
      vertex -18.6747 -14 67.1749
      vertex -9.35579 -22 66.294
      vertex -9.35579 -14 66.294
    endloop
  endfacet
  facet normal 0.0941081 0 0.995562
    outer loop
      vertex -9.35579 -22 66.294
      vertex -18.6747 -14 67.1749
      vertex -18.6747 -22 67.1749
    endloop
  endfacet
  facet normal -0.0941081 0 0.995562
    outer loop
      vertex 9.35579 -14 66.294
      vertex 18.6747 -22 67.1749
      vertex 18.6747 -14 67.1749
    endloop
  endfacet
  facet normal -0.0941081 0 0.995562
    outer loop
      vertex 18.6747 -22 67.1749
      vertex 9.35579 -14 66.294
      vertex 9.35579 -22 66.294
    endloop
  endfacet
  facet normal -0.218144 0 0.975917
    outer loop
      vertex 27.9198 -14 68.6392
      vertex 32 -22 69.5512
      vertex 32 -14 69.5512
    endloop
  endfacet
  facet normal -0.218144 0 0.975917
    outer loop
      vertex 32 -22 69.5512
      vertex 27.9198 -14 68.6392
      vertex 27.9198 -22 68.6392
    endloop
  endfacet
  facet normal -1 0 0
    outer loop
      vertex -32 -22 66.4787
      vertex -32 -14 69.5512
      vertex -32 -14 66.4787
    endloop
  endfacet
  facet normal -1 -0 0
    outer loop
      vertex -32 -14 69.5512
      vertex -32 -22 66.4787
      vertex -32 -22 69.5512
    endloop
  endfacet
  facet normal 1 -0 0
    outer loop
      vertex 32 -22 69.5512
      vertex 32 -14 66.4787
      vertex 32 -14 69.5512
    endloop
  endfacet
  facet normal 1 0 0
    outer loop
      vertex 32 -14 66.4787
      vertex 32 -22 69.5512
      vertex 32 -22 66.4787
    endloop
  endfacet
  facet normal 0 1 -0
    outer loop
      vertex 28 -22 12
      vertex -28 -22 40
      vertex 28 -22 40
    endloop
  endfacet
  facet normal 0 1 0
    outer loop
      vertex -28 -22 40
      vertex 28 -22 12
      vertex -28 -22 12
    endloop
  endfacet
  facet normal 0 1 0
    outer loop
      vertex 9.35579 -22 66.294
      vertex 40 -22 80
      vertex 18.6747 -22 67.1749
    endloop
  endfacet
  facet normal 0 1 0
    outer loop
      vertex 0 -22 66
      vertex 40 -22 80
      vertex 9.35579 -22 66.294
    endloop
  endfacet
  facet normal -0 1 -0
    outer loop
      vertex -27.9198 -22 68.6392
      vertex -40 -22 80
      vertex -18.6747 -22 67.1749
    endloop
  endfacet
  facet normal 0 1 0
    outer loop
      vertex -40 -22 80
      vertex -27.9198 -22 68.6392
      vertex -32 -22 69.5512
    endloop
  endfacet
  facet normal 0 1 0
    outer loop
      vertex 40 -22 80
      vertex 0 -22 66
      vertex -40 -22 80
    endloop
  endfacet
  facet normal 0 1 0
    outer loop
      vertex -40 -22 80
      vertex -9.35579 -22 66.294
      vertex -18.6747 -22 67.1749
    endloop
  endfacet
  facet normal 0 1 0
    outer loop
      vertex -40 -22 80
      vertex 0 -22 66
      vertex -9.35579 -22 66.294
    endloop
  endfacet
  facet normal 0 1 0
    outer loop
      vertex 27.9198 -22 68.6392
      vertex 40 -22 80
      vertex 32 -22 69.5512
    endloop
  endfacet
  facet normal 0 1 0
    outer loop
      vertex 40 -22 80
      vertex 32 -22 66.4787
      vertex 32 -22 69.5512
    endloop
  endfacet
  facet normal 0 1 0
    outer loop
      vertex 19.0507 -22 64.1986
      vertex 28 -22 40
      vertex 9.54416 -22 63.2999
    endloop
  endfacet
  facet normal 0 1 0
    outer loop
      vertex 28.482 -22 65.6923
      vertex 28 -22 40
      vertex 19.0507 -22 64.1986
    endloop
  endfacet
  facet normal 0 1 0
    outer loop
      vertex 32 -22 66.4787
      vertex 28 -22 40
      vertex 28.482 -22 65.6923
    endloop
  endfacet
  facet normal 0 1 0
    outer loop
      vertex 28 -22 40
      vertex 32 -22 66.4787
      vertex 40 -22 40
    endloop
  endfacet
  facet normal 0 1 -0
    outer loop
      vertex 40 -22 40
      vertex 32 -22 66.4787
      vertex 40 -22 80
    endloop
  endfacet
  facet normal 0 1 0
    outer loop
      vertex 18.6747 -22 67.1749
      vertex 40 -22 80
      vertex 27.9198 -22 68.6392
    endloop
  endfacet
  facet normal 0 1 -0
    outer loop
      vertex -32 -22 66.4787
      vertex -40 -22 80
      vertex -32 -22 69.5512
    endloop
  endfacet
  facet normal 0 1 0
    outer loop
      vertex 9.54416 -22 63.2999
      vertex 28 -22 40
      vertex 0 -22 63
    endloop
  endfacet
  facet normal 0 1 0
    outer loop
      vertex -28 -22 40
      vertex 0 -22 63
      vertex 28 -22 40
    endloop
  endfacet
  facet normal 0 1 0
    outer loop
      vertex 0 -22 63
      vertex -28 -22 40
      vertex -9.54416 -22 63.2999
    endloop
  endfacet
  facet normal 0 1 0
    outer loop
      vertex -9.54416 -22 63.2999
      vertex -28 -22 40
      vertex -19.0507 -22 64.1986
    endloop
  endfacet
  facet normal 0 1 0
    outer loop
      vertex -19.0507 -22 64.1986
      vertex -28 -22 40
      vertex -28.482 -22 65.6923
    endloop
  endfacet
  facet normal 0 1 0
    outer loop
      vertex -28.482 -22 65.6923
      vertex -28 -22 40
      vertex -32 -22 66.4787
    endloop
  endfacet
  facet normal 0 1 0
    outer loop
      vertex -40 -22 40
      vertex -32 -22 66.4787
      vertex -28 -22 40
    endloop
  endfacet
  facet normal 0 1 0
    outer loop
      vertex -32 -22 66.4787
      vertex -40 -22 40
      vertex -40 -22 80
    endloop
  endfacet
  facet normal -0.866026 0 -0.5
    outer loop
      vertex 35.6 -22 7
      vertex 34.8 0 8.38564
      vertex 35.6 0 7
    endloop
  endfacet
  facet normal -0.866026 -0 -0.5
    outer loop
      vertex 34.8 0 8.38564
      vertex 35.6 -22 7
      vertex 34.8 -22 8.38564
    endloop
  endfacet
  facet normal 0.866026 0 -0.5
    outer loop
      vertex 33.2 -22 8.38564
      vertex 32.4 0 7
      vertex 33.2 0 8.38564
    endloop
  endfacet
  facet normal 0.866026 0 -0.5
    outer loop
      vertex 32.4 0 7
      vertex 33.2 -22 8.38564
      vertex 32.4 -22 7
    endloop
  endfacet
  facet normal 0 0 -1
    outer loop
      vertex 33.2 -22 8.38564
      vertex 34.8 0 8.38564
      vertex 34.8 -22 8.38564
    endloop
  endfacet
  facet normal -0 0 -1
    outer loop
      vertex 34.8 0 8.38564
      vertex 33.2 -22 8.38564
      vertex 33.2 0 8.38564
    endloop
  endfacet
  facet normal 0 -1 0
    outer loop
      vertex 33.2 -22 8.38564
      vertex 33.5375 -22 10.2169
      vertex 31.8717 -22 9.45619
    endloop
  endfacet
  facet normal 0 -1 0
    outer loop
      vertex 34.8 -22 8.38564
      vertex 33.5375 -22 10.2169
      vertex 33.2 -22 8.38564
    endloop
  endfacet
  facet normal 0 -1 0
    outer loop
      vertex 33.5375 -22 10.2169
      vertex 34.8 -22 8.38564
      vertex 35.3501 -22 9.9563
    endloop
  endfacet
  facet normal 0 -1 0
    outer loop
      vertex 30.8816 -22 7.91563
      vertex 33.2 -22 8.38564
      vertex 31.8717 -22 9.45619
    endloop
  endfacet
  facet normal 0 -1 0
    outer loop
      vertex 30.8816 -22 7.91563
      vertex 32.4 -22 7
      vertex 33.2 -22 8.38564
    endloop
  endfacet
  facet normal 0 -1 0
    outer loop
      vertex 30.8816 -22 6.08437
      vertex 32.4 -22 7
      vertex 30.8816 -22 7.91563
    endloop
  endfacet
  facet normal 0 -1 0
    outer loop
      vertex 30.8816 -22 6.08437
      vertex 33.2 -22 5.61436
      vertex 32.4 -22 7
    endloop
  endfacet
  facet normal 0 -1 0
    outer loop
      vertex 33.5375 -22 3.78308
      vertex 34.8 -22 5.61436
      vertex 33.2 -22 5.61436
    endloop
  endfacet
  facet normal 0 -1 0
    outer loop
      vertex 31.8717 -22 4.54381
      vertex 33.2 -22 5.61436
      vertex 30.8816 -22 6.08437
    endloop
  endfacet
  facet normal 0 -1 0
    outer loop
      vertex 33.5375 -22 3.78308
      vertex 33.2 -22 5.61436
      vertex 31.8717 -22 4.54381
    endloop
  endfacet
  facet normal 0 -1 0
    outer loop
      vertex 34.8 -22 5.61436
      vertex 35.3501 -22 4.0437
      vertex 36.7341 -22 5.24292
    endloop
  endfacet
  facet normal 0 -1 -0
    outer loop
      vertex 34.8 -22 5.61436
      vertex 33.5375 -22 3.78308
      vertex 35.3501 -22 4.0437
    endloop
  endfacet
  facet normal 0 -1 -0
    outer loop
      vertex 35.3501 -22 9.9563
      vertex 34.8 -22 8.38564
      vertex 36.7341 -22 8.75708
    endloop
  endfacet
  facet normal 0 -1 0
    outer loop
      vertex 35.6 -22 7
      vertex 36.7341 -22 8.75708
      vertex 34.8 -22 8.38564
    endloop
  endfacet
  facet normal 0 -1 0
    outer loop
      vertex 35.6 -22 7
      vertex 37.25 -22 7
      vertex 36.7341 -22 8.75708
    endloop
  endfacet
  facet normal 0 -1 0
    outer loop
      vertex 36.7341 -22 5.24292
      vertex 35.6 -22 7
      vertex 34.8 -22 5.61436
    endloop
  endfacet
  facet normal 0 -1 0
    outer loop
      vertex 35.6 -22 7
      vertex 36.7341 -22 5.24292
      vertex 37.25 -22 7
    endloop
  endfacet
  facet normal -0.866026 0 0.5
    outer loop
      vertex 34.8 -22 5.61436
      vertex 35.6 0 7
      vertex 34.8 0 5.61436
    endloop
  endfacet
  facet normal -0.866026 0 0.5
    outer loop
      vertex 35.6 0 7
      vertex 34.8 -22 5.61436
      vertex 35.6 -22 7
    endloop
  endfacet
  facet normal -0 0 1
    outer loop
      vertex 33.2 0 5.61436
      vertex 34.8 -22 5.61436
      vertex 34.8 0 5.61436
    endloop
  endfacet
  facet normal 0 0 1
    outer loop
      vertex 34.8 -22 5.61436
      vertex 33.2 0 5.61436
      vertex 33.2 -22 5.61436
    endloop
  endfacet
  facet normal 0.866026 -0 0.5
    outer loop
      vertex 32.4 -22 7
      vertex 33.2 0 5.61436
      vertex 32.4 0 7
    endloop
  endfacet
  facet normal 0.866026 0 0.5
    outer loop
      vertex 33.2 0 5.61436
      vertex 32.4 -22 7
      vertex 33.2 -22 5.61436
    endloop
  endfacet
  facet normal -0.959493 0 -0.281733
    outer loop
      vertex 37.25 -32 7
      vertex 36.7341 -22 8.75708
      vertex 37.25 -22 7
    endloop
  endfacet
  facet normal -0.959493 -0 -0.281733
    outer loop
      vertex 36.7341 -22 8.75708
      vertex 37.25 -32 7
      vertex 36.7341 -32 8.75708
    endloop
  endfacet
  facet normal 1 0 0
    outer loop
      vertex 30.8816 -32 7
      vertex 30.8816 -22 7.91563
      vertex 30.8816 -32 7.91563
    endloop
  endfacet
  facet normal 1 0 0
    outer loop
      vertex 30.8816 -22 7.91563
      vertex 30.8816 -32 7
      vertex 30.8816 -22 6.08437
    endloop
  endfacet
  facet normal 1 0 0
    outer loop
      vertex 30.8816 -22 6.08437
      vertex 30.8816 -32 7
      vertex 30.8816 -32 6.08437
    endloop
  endfacet
  facet normal -0.142315 0 -0.989821
    outer loop
      vertex 33.5375 -32 10.2169
      vertex 35.3501 -22 9.9563
      vertex 35.3501 -32 9.9563
    endloop
  endfacet
  facet normal -0.142315 0 -0.989821
    outer loop
      vertex 35.3501 -22 9.9563
      vertex 33.5375 -32 10.2169
      vertex 33.5375 -22 10.2169
    endloop
  endfacet
  facet normal -0.654861 0 -0.75575
    outer loop
      vertex 35.3501 -32 9.9563
      vertex 36.7341 -22 8.75708
      vertex 36.7341 -32 8.75708
    endloop
  endfacet
  facet normal -0.654861 0 -0.75575
    outer loop
      vertex 36.7341 -22 8.75708
      vertex 35.3501 -32 9.9563
      vertex 35.3501 -22 9.9563
    endloop
  endfacet
  facet normal 0 1 0
    outer loop
      vertex 30.8816 -32 7
      vertex 33.5375 -32 10.2169
      vertex 35.3501 -32 9.9563
    endloop
  endfacet
  facet normal 0 1 0
    outer loop
      vertex 30.8816 -32 7
      vertex 35.3501 -32 9.9563
      vertex 36.7341 -32 8.75708
    endloop
  endfacet
  facet normal 0 1 0
    outer loop
      vertex 33.5375 -32 10.2169
      vertex 30.8816 -32 7
      vertex 31.8717 -32 9.45619
    endloop
  endfacet
  facet normal 0 1 0
    outer loop
      vertex 30.8816 -32 7
      vertex 36.7341 -32 8.75708
      vertex 37.25 -32 7
    endloop
  endfacet
  facet normal 0 1 0
    outer loop
      vertex 31.8717 -32 9.45619
      vertex 30.8816 -32 7
      vertex 30.8816 -32 7.91563
    endloop
  endfacet
  facet normal -0.959493 0 0.281733
    outer loop
      vertex 36.7341 -32 5.24292
      vertex 37.25 -22 7
      vertex 36.7341 -22 5.24292
    endloop
  endfacet
  facet normal -0.959493 0 0.281733
    outer loop
      vertex 37.25 -22 7
      vertex 36.7341 -32 5.24292
      vertex 37.25 -32 7
    endloop
  endfacet
  facet normal -0.654861 0 0.75575
    outer loop
      vertex 35.3501 -22 4.0437
      vertex 36.7341 -32 5.24292
      vertex 36.7341 -22 5.24292
    endloop
  endfacet
  facet normal -0.654861 0 0.75575
    outer loop
      vertex 36.7341 -32 5.24292
      vertex 35.3501 -22 4.0437
      vertex 35.3501 -32 4.0437
    endloop
  endfacet
  facet normal -0.142315 0 0.989821
    outer loop
      vertex 33.5375 -22 3.78308
      vertex 35.3501 -32 4.0437
      vertex 35.3501 -22 4.0437
    endloop
  endfacet
  facet normal -0.142315 0 0.989821
    outer loop
      vertex 35.3501 -32 4.0437
      vertex 33.5375 -22 3.78308
      vertex 33.5375 -32 3.78308
    endloop
  endfacet
  facet normal 0.841253 -0 0.540641
    outer loop
      vertex 30.8816 -32 6.08437
      vertex 31.8717 -22 4.54381
      vertex 30.8816 -22 6.08437
    endloop
  endfacet
  facet normal 0.841253 0 0.540641
    outer loop
      vertex 31.8717 -22 4.54381
      vertex 30.8816 -32 6.08437
      vertex 31.8717 -32 4.54381
    endloop
  endfacet
  facet normal 0.415416 0 -0.909632
    outer loop
      vertex 31.8717 -32 9.45619
      vertex 33.5375 -22 10.2169
      vertex 33.5375 -32 10.2169
    endloop
  endfacet
  facet normal 0.415416 0 -0.909632
    outer loop
      vertex 33.5375 -22 10.2169
      vertex 31.8717 -32 9.45619
      vertex 31.8717 -22 9.45619
    endloop
  endfacet
  facet normal 0.841253 0 -0.540641
    outer loop
      vertex 31.8717 -32 9.45619
      vertex 30.8816 -22 7.91563
      vertex 31.8717 -22 9.45619
    endloop
  endfacet
  facet normal 0.841253 0 -0.540641
    outer loop
      vertex 30.8816 -22 7.91563
      vertex 31.8717 -32 9.45619
      vertex 30.8816 -32 7.91563
    endloop
  endfacet
  facet normal 0.415416 0 0.909632
    outer loop
      vertex 31.8717 -22 4.54381
      vertex 33.5375 -32 3.78308
      vertex 33.5375 -22 3.78308
    endloop
  endfacet
  facet normal 0.415416 0 0.909632
    outer loop
      vertex 33.5375 -32 3.78308
      vertex 31.8717 -22 4.54381
      vertex 31.8717 -32 4.54381
    endloop
  endfacet
  facet normal -0.866025 0 -0.5
    outer loop
      vertex 35.6 -22 32
      vertex 34.8 0 33.3856
      vertex 35.6 0 32
    endloop
  endfacet
  facet normal -0.866025 -0 -0.5
    outer loop
      vertex 34.8 0 33.3856
      vertex 35.6 -22 32
      vertex 34.8 -22 33.3856
    endloop
  endfacet
  facet normal 0.866025 0 -0.5
    outer loop
      vertex 33.2 -22 33.3856
      vertex 32.4 0 32
      vertex 33.2 0 33.3856
    endloop
  endfacet
  facet normal 0.866025 0 -0.5
    outer loop
      vertex 32.4 0 32
      vertex 33.2 -22 33.3856
      vertex 32.4 -22 32
    endloop
  endfacet
  facet normal 0 0 -1
    outer loop
      vertex 33.2 -22 33.3856
      vertex 34.8 0 33.3856
      vertex 34.8 -22 33.3856
    endloop
  endfacet
  facet normal -0 0 -1
    outer loop
      vertex 34.8 0 33.3856
      vertex 33.2 -22 33.3856
      vertex 33.2 0 33.3856
    endloop
  endfacet
  facet normal 0 -1 0
    outer loop
      vertex 33.2 -22 33.3856
      vertex 33.5375 -22 35.2169
      vertex 31.8717 -22 34.4562
    endloop
  endfacet
  facet normal 0 -1 0
    outer loop
      vertex 34.8 -22 33.3856
      vertex 33.5375 -22 35.2169
      vertex 33.2 -22 33.3856
    endloop
  endfacet
  facet normal 0 -1 0
    outer loop
      vertex 33.5375 -22 35.2169
      vertex 34.8 -22 33.3856
      vertex 35.3501 -22 34.9563
    endloop
  endfacet
  facet normal 0 -1 0
    outer loop
      vertex 30.8816 -22 32.9156
      vertex 33.2 -22 33.3856
      vertex 31.8717 -22 34.4562
    endloop
  endfacet
  facet normal 0 -1 0
    outer loop
      vertex 30.8816 -22 32.9156
      vertex 32.4 -22 32
      vertex 33.2 -22 33.3856
    endloop
  endfacet
  facet normal 0 -1 0
    outer loop
      vertex 30.8816 -22 31.0844
      vertex 32.4 -22 32
      vertex 30.8816 -22 32.9156
    endloop
  endfacet
  facet normal 0 -1 0
    outer loop
      vertex 30.8816 -22 31.0844
      vertex 33.2 -22 30.6144
      vertex 32.4 -22 32
    endloop
  endfacet
  facet normal 0 -1 0
    outer loop
      vertex 33.5375 -22 28.7831
      vertex 34.8 -22 30.6144
      vertex 33.2 -22 30.6144
    endloop
  endfacet
  facet normal 0 -1 0
    outer loop
      vertex 31.8717 -22 29.5438
      vertex 33.2 -22 30.6144
      vertex 30.8816 -22 31.0844
    endloop
  endfacet
  facet normal 0 -1 0
    outer loop
      vertex 33.5375 -22 28.7831
      vertex 33.2 -22 30.6144
      vertex 31.8717 -22 29.5438
    endloop
  endfacet
  facet normal 0 -1 0
    outer loop
      vertex 34.8 -22 30.6144
      vertex 35.3501 -22 29.0437
      vertex 36.7341 -22 30.2429
    endloop
  endfacet
  facet normal 0 -1 -0
    outer loop
      vertex 34.8 -22 30.6144
      vertex 33.5375 -22 28.7831
      vertex 35.3501 -22 29.0437
    endloop
  endfacet
  facet normal 0 -1 -0
    outer loop
      vertex 35.3501 -22 34.9563
      vertex 34.8 -22 33.3856
      vertex 36.7341 -22 33.7571
    endloop
  endfacet
  facet normal 0 -1 0
    outer loop
      vertex 35.6 -22 32
      vertex 36.7341 -22 33.7571
      vertex 34.8 -22 33.3856
    endloop
  endfacet
  facet normal 0 -1 0
    outer loop
      vertex 35.6 -22 32
      vertex 37.25 -22 32
      vertex 36.7341 -22 33.7571
    endloop
  endfacet
  facet normal 0 -1 0
    outer loop
      vertex 36.7341 -22 30.2429
      vertex 35.6 -22 32
      vertex 34.8 -22 30.6144
    endloop
  endfacet
  facet normal 0 -1 0
    outer loop
      vertex 35.6 -22 32
      vertex 36.7341 -22 30.2429
      vertex 37.25 -22 32
    endloop
  endfacet
  facet normal -0.866026 4.33488e-08 0.5
    outer loop
      vertex 34.8 -22 30.6144
      vertex 35.6 0 32
      vertex 34.8 0 30.6144
    endloop
  endfacet
  facet normal -0.866025 0 0.5
    outer loop
      vertex 35.6 0 32
      vertex 34.8 -22 30.6144
      vertex 35.6 -22 32
    endloop
  endfacet
  facet normal -0 8.66977e-08 1
    outer loop
      vertex 33.2 0 30.6144
      vertex 34.8 -22 30.6144
      vertex 34.8 0 30.6144
    endloop
  endfacet
  facet normal 0 8.66977e-08 1
    outer loop
      vertex 34.8 -22 30.6144
      vertex 33.2 0 30.6144
      vertex 33.2 -22 30.6144
    endloop
  endfacet
  facet normal 0.866026 -0 0.5
    outer loop
      vertex 32.4 -22 32
      vertex 33.2 0 30.6144
      vertex 32.4 0 32
    endloop
  endfacet
  facet normal 0.866025 4.33488e-08 0.5
    outer loop
      vertex 33.2 0 30.6144
      vertex 32.4 -22 32
      vertex 33.2 -22 30.6144
    endloop
  endfacet
  facet normal -0.959493 0 -0.281733
    outer loop
      vertex 37.25 -32 32
      vertex 36.7341 -22 33.7571
      vertex 37.25 -22 32
    endloop
  endfacet
  facet normal -0.959493 -0 -0.281733
    outer loop
      vertex 36.7341 -22 33.7571
      vertex 37.25 -32 32
      vertex 36.7341 -32 33.7571
    endloop
  endfacet
  facet normal 1 0 0
    outer loop
      vertex 30.8816 -32 32
      vertex 30.8816 -22 32.9156
      vertex 30.8816 -32 32.9156
    endloop
  endfacet
  facet normal 1 0 0
    outer loop
      vertex 30.8816 -22 32.9156
      vertex 30.8816 -32 32
      vertex 30.8816 -22 31.0844
    endloop
  endfacet
  facet normal 1 0 0
    outer loop
      vertex 30.8816 -22 31.0844
      vertex 30.8816 -32 32
      vertex 30.8816 -32 31.0844
    endloop
  endfacet
  facet normal -0.142315 0 -0.989821
    outer loop
      vertex 33.5375 -32 35.2169
      vertex 35.3501 -22 34.9563
      vertex 35.3501 -32 34.9563
    endloop
  endfacet
  facet normal -0.142315 0 -0.989821
    outer loop
      vertex 35.3501 -22 34.9563
      vertex 33.5375 -32 35.2169
      vertex 33.5375 -22 35.2169
    endloop
  endfacet
  facet normal -0.654861 0 -0.755749
    outer loop
      vertex 35.3501 -32 34.9563
      vertex 36.7341 -22 33.7571
      vertex 36.7341 -32 33.7571
    endloop
  endfacet
  facet normal -0.654861 0 -0.755749
    outer loop
      vertex 36.7341 -22 33.7571
      vertex 35.3501 -32 34.9563
      vertex 35.3501 -22 34.9563
    endloop
  endfacet
  facet normal 0 1 0
    outer loop
      vertex 30.8816 -32 32
      vertex 33.5375 -32 35.2169
      vertex 35.3501 -32 34.9563
    endloop
  endfacet
  facet normal 0 1 0
    outer loop
      vertex 30.8816 -32 32
      vertex 35.3501 -32 34.9563
      vertex 36.7341 -32 33.7571
    endloop
  endfacet
  facet normal 0 1 0
    outer loop
      vertex 33.5375 -32 35.2169
      vertex 30.8816 -32 32
      vertex 31.8717 -32 34.4562
    endloop
  endfacet
  facet normal 0 1 0
    outer loop
      vertex 30.8816 -32 32
      vertex 36.7341 -32 33.7571
      vertex 37.25 -32 32
    endloop
  endfacet
  facet normal 0 1 0
    outer loop
      vertex 31.8717 -32 34.4562
      vertex 30.8816 -32 32
      vertex 30.8816 -32 32.9156
    endloop
  endfacet
  facet normal -0.959493 0 0.281733
    outer loop
      vertex 36.7341 -32 30.2429
      vertex 37.25 -22 32
      vertex 36.7341 -22 30.2429
    endloop
  endfacet
  facet normal -0.959493 0 0.281733
    outer loop
      vertex 37.25 -22 32
      vertex 36.7341 -32 30.2429
      vertex 37.25 -32 32
    endloop
  endfacet
  facet normal -0.65486 0 0.75575
    outer loop
      vertex 35.3501 -22 29.0437
      vertex 36.7341 -32 30.2429
      vertex 36.7341 -22 30.2429
    endloop
  endfacet
  facet normal -0.65486 0 0.75575
    outer loop
      vertex 36.7341 -32 30.2429
      vertex 35.3501 -22 29.0437
      vertex 35.3501 -32 29.0437
    endloop
  endfacet
  facet normal -0.142315 0 0.989821
    outer loop
      vertex 33.5375 -22 28.7831
      vertex 35.3501 -32 29.0437
      vertex 35.3501 -22 29.0437
    endloop
  endfacet
  facet normal -0.142315 0 0.989821
    outer loop
      vertex 35.3501 -32 29.0437
      vertex 33.5375 -22 28.7831
      vertex 33.5375 -32 28.7831
    endloop
  endfacet
  facet normal 0.841253 -0 0.540641
    outer loop
      vertex 30.8816 -32 31.0844
      vertex 31.8717 -22 29.5438
      vertex 30.8816 -22 31.0844
    endloop
  endfacet
  facet normal 0.841253 0 0.540641
    outer loop
      vertex 31.8717 -22 29.5438
      vertex 30.8816 -32 31.0844
      vertex 31.8717 -32 29.5438
    endloop
  endfacet
  facet normal 0.415416 0 -0.909632
    outer loop
      vertex 31.8717 -32 34.4562
      vertex 33.5375 -22 35.2169
      vertex 33.5375 -32 35.2169
    endloop
  endfacet
  facet normal 0.415416 0 -0.909632
    outer loop
      vertex 33.5375 -22 35.2169
      vertex 31.8717 -32 34.4562
      vertex 31.8717 -22 34.4562
    endloop
  endfacet
  facet normal 0.841253 0 -0.540641
    outer loop
      vertex 31.8717 -32 34.4562
      vertex 30.8816 -22 32.9156
      vertex 31.8717 -22 34.4562
    endloop
  endfacet
  facet normal 0.841253 0 -0.540641
    outer loop
      vertex 30.8816 -22 32.9156
      vertex 31.8717 -32 34.4562
      vertex 30.8816 -32 32.9156
    endloop
  endfacet
  facet normal 0.415416 0 0.909632
    outer loop
      vertex 31.8717 -22 29.5438
      vertex 33.5375 -32 28.7831
      vertex 33.5375 -22 28.7831
    endloop
  endfacet
  facet normal 0.415416 0 0.909632
    outer loop
      vertex 33.5375 -32 28.7831
      vertex 31.8717 -22 29.5438
      vertex 31.8717 -32 29.5438
    endloop
  endfacet
  facet normal -0.866025 0 -0.5
    outer loop
      vertex -32.4 -22 32
      vertex -33.2 0 33.3856
      vertex -32.4 0 32
    endloop
  endfacet
  facet normal -0.866025 -0 -0.5
    outer loop
      vertex -33.2 0 33.3856
      vertex -32.4 -22 32
      vertex -33.2 -22 33.3856
    endloop
  endfacet
  facet normal 0.866025 0 -0.5
    outer loop
      vertex -34.8 -22 33.3856
      vertex -35.6 0 32
      vertex -34.8 0 33.3856
    endloop
  endfacet
  facet normal 0.866025 0 -0.5
    outer loop
      vertex -35.6 0 32
      vertex -34.8 -22 33.3856
      vertex -35.6 -22 32
    endloop
  endfacet
  facet normal 0 0 -1
    outer loop
      vertex -34.8 -22 33.3856
      vertex -33.2 0 33.3856
      vertex -33.2 -22 33.3856
    endloop
  endfacet
  facet normal -0 0 -1
    outer loop
      vertex -33.2 0 33.3856
      vertex -34.8 -22 33.3856
      vertex -34.8 0 33.3856
    endloop
  endfacet
  facet normal 0 -1 0
    outer loop
      vertex -34.8 -22 33.3856
      vertex -34.4625 -22 35.2169
      vertex -36.1283 -22 34.4562
    endloop
  endfacet
  facet normal 0 -1 0
    outer loop
      vertex -33.2 -22 33.3856
      vertex -34.4625 -22 35.2169
      vertex -34.8 -22 33.3856
    endloop
  endfacet
  facet normal 0 -1 0
    outer loop
      vertex -34.4625 -22 35.2169
      vertex -33.2 -22 33.3856
      vertex -32.6499 -22 34.9563
    endloop
  endfacet
  facet normal 0 -1 0
    outer loop
      vertex -37.1184 -22 32.9156
      vertex -34.8 -22 33.3856
      vertex -36.1283 -22 34.4562
    endloop
  endfacet
  facet normal 0 -1 0
    outer loop
      vertex -37.1184 -22 32.9156
      vertex -35.6 -22 32
      vertex -34.8 -22 33.3856
    endloop
  endfacet
  facet normal 0 -1 0
    outer loop
      vertex -37.1184 -22 31.0844
      vertex -35.6 -22 32
      vertex -37.1184 -22 32.9156
    endloop
  endfacet
  facet normal 0 -1 0
    outer loop
      vertex -37.1184 -22 31.0844
      vertex -34.8 -22 30.6144
      vertex -35.6 -22 32
    endloop
  endfacet
  facet normal 0 -1 0
    outer loop
      vertex -34.4625 -22 28.7831
      vertex -33.2 -22 30.6144
      vertex -34.8 -22 30.6144
    endloop
  endfacet
  facet normal 0 -1 0
    outer loop
      vertex -36.1283 -22 29.5438
      vertex -34.8 -22 30.6144
      vertex -37.1184 -22 31.0844
    endloop
  endfacet
  facet normal 0 -1 0
    outer loop
      vertex -34.4625 -22 28.7831
      vertex -34.8 -22 30.6144
      vertex -36.1283 -22 29.5438
    endloop
  endfacet
  facet normal 0 -1 0
    outer loop
      vertex -33.2 -22 30.6144
      vertex -32.6499 -22 29.0437
      vertex -31.2659 -22 30.2429
    endloop
  endfacet
  facet normal 0 -1 -0
    outer loop
      vertex -33.2 -22 30.6144
      vertex -34.4625 -22 28.7831
      vertex -32.6499 -22 29.0437
    endloop
  endfacet
  facet normal 0 -1 -0
    outer loop
      vertex -32.6499 -22 34.9563
      vertex -33.2 -22 33.3856
      vertex -31.2659 -22 33.7571
    endloop
  endfacet
  facet normal 0 -1 0
    outer loop
      vertex -32.4 -22 32
      vertex -31.2659 -22 33.7571
      vertex -33.2 -22 33.3856
    endloop
  endfacet
  facet normal 0 -1 0
    outer loop
      vertex -32.4 -22 32
      vertex -30.75 -22 32
      vertex -31.2659 -22 33.7571
    endloop
  endfacet
  facet normal 0 -1 0
    outer loop
      vertex -31.2659 -22 30.2429
      vertex -32.4 -22 32
      vertex -33.2 -22 30.6144
    endloop
  endfacet
  facet normal 0 -1 0
    outer loop
      vertex -32.4 -22 32
      vertex -31.2659 -22 30.2429
      vertex -30.75 -22 32
    endloop
  endfacet
  facet normal -0.866026 4.33488e-08 0.5
    outer loop
      vertex -33.2 -22 30.6144
      vertex -32.4 0 32
      vertex -33.2 0 30.6144
    endloop
  endfacet
  facet normal -0.866025 0 0.5
    outer loop
      vertex -32.4 0 32
      vertex -33.2 -22 30.6144
      vertex -32.4 -22 32
    endloop
  endfacet
  facet normal -0 8.66977e-08 1
    outer loop
      vertex -34.8 0 30.6144
      vertex -33.2 -22 30.6144
      vertex -33.2 0 30.6144
    endloop
  endfacet
  facet normal 0 8.66977e-08 1
    outer loop
      vertex -33.2 -22 30.6144
      vertex -34.8 0 30.6144
      vertex -34.8 -22 30.6144
    endloop
  endfacet
  facet normal 0.866026 -0 0.5
    outer loop
      vertex -35.6 -22 32
      vertex -34.8 0 30.6144
      vertex -35.6 0 32
    endloop
  endfacet
  facet normal 0.866025 4.33488e-08 0.5
    outer loop
      vertex -34.8 0 30.6144
      vertex -35.6 -22 32
      vertex -34.8 -22 30.6144
    endloop
  endfacet
  facet normal -0.959493 0 -0.281733
    outer loop
      vertex -30.75 -32 32
      vertex -31.2659 -22 33.7571
      vertex -30.75 -22 32
    endloop
  endfacet
  facet normal -0.959493 -0 -0.281733
    outer loop
      vertex -31.2659 -22 33.7571
      vertex -30.75 -32 32
      vertex -31.2659 -32 33.7571
    endloop
  endfacet
  facet normal 1 0 0
    outer loop
      vertex -37.1184 -32 32
      vertex -37.1184 -22 32.9156
      vertex -37.1184 -32 32.9156
    endloop
  endfacet
  facet normal 1 0 0
    outer loop
      vertex -37.1184 -22 32.9156
      vertex -37.1184 -32 32
      vertex -37.1184 -22 31.0844
    endloop
  endfacet
  facet normal 1 0 0
    outer loop
      vertex -37.1184 -22 31.0844
      vertex -37.1184 -32 32
      vertex -37.1184 -32 31.0844
    endloop
  endfacet
  facet normal -0.142315 0 -0.989821
    outer loop
      vertex -34.4625 -32 35.2169
      vertex -32.6499 -22 34.9563
      vertex -32.6499 -32 34.9563
    endloop
  endfacet
  facet normal -0.142315 0 -0.989821
    outer loop
      vertex -32.6499 -22 34.9563
      vertex -34.4625 -32 35.2169
      vertex -34.4625 -22 35.2169
    endloop
  endfacet
  facet normal -0.654861 0 -0.755749
    outer loop
      vertex -32.6499 -32 34.9563
      vertex -31.2659 -22 33.7571
      vertex -31.2659 -32 33.7571
    endloop
  endfacet
  facet normal -0.654861 0 -0.755749
    outer loop
      vertex -31.2659 -22 33.7571
      vertex -32.6499 -32 34.9563
      vertex -32.6499 -22 34.9563
    endloop
  endfacet
  facet normal 0 1 0
    outer loop
      vertex -37.1184 -32 32
      vertex -34.4625 -32 35.2169
      vertex -32.6499 -32 34.9563
    endloop
  endfacet
  facet normal 0 1 0
    outer loop
      vertex -37.1184 -32 32
      vertex -32.6499 -32 34.9563
      vertex -31.2659 -32 33.7571
    endloop
  endfacet
  facet normal 0 1 0
    outer loop
      vertex -34.4625 -32 35.2169
      vertex -37.1184 -32 32
      vertex -36.1283 -32 34.4562
    endloop
  endfacet
  facet normal 0 1 0
    outer loop
      vertex -37.1184 -32 32
      vertex -31.2659 -32 33.7571
      vertex -30.75 -32 32
    endloop
  endfacet
  facet normal 0 1 0
    outer loop
      vertex -36.1283 -32 34.4562
      vertex -37.1184 -32 32
      vertex -37.1184 -32 32.9156
    endloop
  endfacet
  facet normal -0.959493 0 0.281733
    outer loop
      vertex -31.2659 -32 30.2429
      vertex -30.75 -22 32
      vertex -31.2659 -22 30.2429
    endloop
  endfacet
  facet normal -0.959493 0 0.281733
    outer loop
      vertex -30.75 -22 32
      vertex -31.2659 -32 30.2429
      vertex -30.75 -32 32
    endloop
  endfacet
  facet normal -0.65486 0 0.75575
    outer loop
      vertex -32.6499 -22 29.0437
      vertex -31.2659 -32 30.2429
      vertex -31.2659 -22 30.2429
    endloop
  endfacet
  facet normal -0.65486 0 0.75575
    outer loop
      vertex -31.2659 -32 30.2429
      vertex -32.6499 -22 29.0437
      vertex -32.6499 -32 29.0437
    endloop
  endfacet
  facet normal -0.142315 0 0.989821
    outer loop
      vertex -34.4625 -22 28.7831
      vertex -32.6499 -32 29.0437
      vertex -32.6499 -22 29.0437
    endloop
  endfacet
  facet normal -0.142315 0 0.989821
    outer loop
      vertex -32.6499 -32 29.0437
      vertex -34.4625 -22 28.7831
      vertex -34.4625 -32 28.7831
    endloop
  endfacet
  facet normal 0.841253 -0 0.540641
    outer loop
      vertex -37.1184 -32 31.0844
      vertex -36.1283 -22 29.5438
      vertex -37.1184 -22 31.0844
    endloop
  endfacet
  facet normal 0.841253 0 0.540641
    outer loop
      vertex -36.1283 -22 29.5438
      vertex -37.1184 -32 31.0844
      vertex -36.1283 -32 29.5438
    endloop
  endfacet
  facet normal 0.415416 0 -0.909632
    outer loop
      vertex -36.1283 -32 34.4562
      vertex -34.4625 -22 35.2169
      vertex -34.4625 -32 35.2169
    endloop
  endfacet
  facet normal 0.415416 0 -0.909632
    outer loop
      vertex -34.4625 -22 35.2169
      vertex -36.1283 -32 34.4562
      vertex -36.1283 -22 34.4562
    endloop
  endfacet
  facet normal 0.841253 0 -0.540641
    outer loop
      vertex -36.1283 -32 34.4562
      vertex -37.1184 -22 32.9156
      vertex -36.1283 -22 34.4562
    endloop
  endfacet
  facet normal 0.841253 0 -0.540641
    outer loop
      vertex -37.1184 -22 32.9156
      vertex -36.1283 -32 34.4562
      vertex -37.1184 -32 32.9156
    endloop
  endfacet
  facet normal 0.415416 0 0.909632
    outer loop
      vertex -36.1283 -22 29.5438
      vertex -34.4625 -32 28.7831
      vertex -34.4625 -22 28.7831
    endloop
  endfacet
  facet normal 0.415416 0 0.909632
    outer loop
      vertex -34.4625 -32 28.7831
      vertex -36.1283 -22 29.5438
      vertex -36.1283 -32 29.5438
    endloop
  endfacet
  facet normal -0.866026 0 -0.5
    outer loop
      vertex -32.4 -22 7
      vertex -33.2 0 8.38564
      vertex -32.4 0 7
    endloop
  endfacet
  facet normal -0.866026 -0 -0.5
    outer loop
      vertex -33.2 0 8.38564
      vertex -32.4 -22 7
      vertex -33.2 -22 8.38564
    endloop
  endfacet
  facet normal 0.866026 0 -0.5
    outer loop
      vertex -34.8 -22 8.38564
      vertex -35.6 0 7
      vertex -34.8 0 8.38564
    endloop
  endfacet
  facet normal 0.866026 0 -0.5
    outer loop
      vertex -35.6 0 7
      vertex -34.8 -22 8.38564
      vertex -35.6 -22 7
    endloop
  endfacet
  facet normal 0 0 -1
    outer loop
      vertex -34.8 -22 8.38564
      vertex -33.2 0 8.38564
      vertex -33.2 -22 8.38564
    endloop
  endfacet
  facet normal -0 0 -1
    outer loop
      vertex -33.2 0 8.38564
      vertex -34.8 -22 8.38564
      vertex -34.8 0 8.38564
    endloop
  endfacet
  facet normal 0 -1 0
    outer loop
      vertex -34.8 -22 8.38564
      vertex -34.4625 -22 10.2169
      vertex -36.1283 -22 9.45619
    endloop
  endfacet
  facet normal 0 -1 0
    outer loop
      vertex -33.2 -22 8.38564
      vertex -34.4625 -22 10.2169
      vertex -34.8 -22 8.38564
    endloop
  endfacet
  facet normal 0 -1 0
    outer loop
      vertex -34.4625 -22 10.2169
      vertex -33.2 -22 8.38564
      vertex -32.6499 -22 9.9563
    endloop
  endfacet
  facet normal 0 -1 0
    outer loop
      vertex -37.1184 -22 7.91563
      vertex -34.8 -22 8.38564
      vertex -36.1283 -22 9.45619
    endloop
  endfacet
  facet normal 0 -1 0
    outer loop
      vertex -37.1184 -22 7.91563
      vertex -35.6 -22 7
      vertex -34.8 -22 8.38564
    endloop
  endfacet
  facet normal 0 -1 0
    outer loop
      vertex -37.1184 -22 6.08437
      vertex -35.6 -22 7
      vertex -37.1184 -22 7.91563
    endloop
  endfacet
  facet normal 0 -1 0
    outer loop
      vertex -37.1184 -22 6.08437
      vertex -34.8 -22 5.61436
      vertex -35.6 -22 7
    endloop
  endfacet
  facet normal 0 -1 0
    outer loop
      vertex -34.4625 -22 3.78308
      vertex -33.2 -22 5.61436
      vertex -34.8 -22 5.61436
    endloop
  endfacet
  facet normal 0 -1 0
    outer loop
      vertex -36.1283 -22 4.54381
      vertex -34.8 -22 5.61436
      vertex -37.1184 -22 6.08437
    endloop
  endfacet
  facet normal 0 -1 0
    outer loop
      vertex -34.4625 -22 3.78308
      vertex -34.8 -22 5.61436
      vertex -36.1283 -22 4.54381
    endloop
  endfacet
  facet normal 0 -1 0
    outer loop
      vertex -33.2 -22 5.61436
      vertex -32.6499 -22 4.0437
      vertex -31.2659 -22 5.24292
    endloop
  endfacet
  facet normal 0 -1 -0
    outer loop
      vertex -33.2 -22 5.61436
      vertex -34.4625 -22 3.78308
      vertex -32.6499 -22 4.0437
    endloop
  endfacet
  facet normal 0 -1 -0
    outer loop
      vertex -32.6499 -22 9.9563
      vertex -33.2 -22 8.38564
      vertex -31.2659 -22 8.75708
    endloop
  endfacet
  facet normal 0 -1 0
    outer loop
      vertex -32.4 -22 7
      vertex -31.2659 -22 8.75708
      vertex -33.2 -22 8.38564
    endloop
  endfacet
  facet normal 0 -1 0
    outer loop
      vertex -32.4 -22 7
      vertex -30.75 -22 7
      vertex -31.2659 -22 8.75708
    endloop
  endfacet
  facet normal 0 -1 0
    outer loop
      vertex -31.2659 -22 5.24292
      vertex -32.4 -22 7
      vertex -33.2 -22 5.61436
    endloop
  endfacet
  facet normal 0 -1 0
    outer loop
      vertex -32.4 -22 7
      vertex -31.2659 -22 5.24292
      vertex -30.75 -22 7
    endloop
  endfacet
  facet normal -0.866026 0 0.5
    outer loop
      vertex -33.2 -22 5.61436
      vertex -32.4 0 7
      vertex -33.2 0 5.61436
    endloop
  endfacet
  facet normal -0.866026 0 0.5
    outer loop
      vertex -32.4 0 7
      vertex -33.2 -22 5.61436
      vertex -32.4 -22 7
    endloop
  endfacet
  facet normal -0 0 1
    outer loop
      vertex -34.8 0 5.61436
      vertex -33.2 -22 5.61436
      vertex -33.2 0 5.61436
    endloop
  endfacet
  facet normal 0 0 1
    outer loop
      vertex -33.2 -22 5.61436
      vertex -34.8 0 5.61436
      vertex -34.8 -22 5.61436
    endloop
  endfacet
  facet normal 0.866026 -0 0.5
    outer loop
      vertex -35.6 -22 7
      vertex -34.8 0 5.61436
      vertex -35.6 0 7
    endloop
  endfacet
  facet normal 0.866026 0 0.5
    outer loop
      vertex -34.8 0 5.61436
      vertex -35.6 -22 7
      vertex -34.8 -22 5.61436
    endloop
  endfacet
  facet normal -0.959493 0 -0.281733
    outer loop
      vertex -30.75 -32 7
      vertex -31.2659 -22 8.75708
      vertex -30.75 -22 7
    endloop
  endfacet
  facet normal -0.959493 -0 -0.281733
    outer loop
      vertex -31.2659 -22 8.75708
      vertex -30.75 -32 7
      vertex -31.2659 -32 8.75708
    endloop
  endfacet
  facet normal 1 0 0
    outer loop
      vertex -37.1184 -32 7
      vertex -37.1184 -22 7.91563
      vertex -37.1184 -32 7.91563
    endloop
  endfacet
  facet normal 1 0 0
    outer loop
      vertex -37.1184 -22 7.91563
      vertex -37.1184 -32 7
      vertex -37.1184 -22 6.08437
    endloop
  endfacet
  facet normal 1 0 0
    outer loop
      vertex -37.1184 -22 6.08437
      vertex -37.1184 -32 7
      vertex -37.1184 -32 6.08437
    endloop
  endfacet
  facet normal -0.142315 0 -0.989821
    outer loop
      vertex -34.4625 -32 10.2169
      vertex -32.6499 -22 9.9563
      vertex -32.6499 -32 9.9563
    endloop
  endfacet
  facet normal -0.142315 0 -0.989821
    outer loop
      vertex -32.6499 -22 9.9563
      vertex -34.4625 -32 10.2169
      vertex -34.4625 -22 10.2169
    endloop
  endfacet
  facet normal -0.654861 0 -0.75575
    outer loop
      vertex -32.6499 -32 9.9563
      vertex -31.2659 -22 8.75708
      vertex -31.2659 -32 8.75708
    endloop
  endfacet
  facet normal -0.654861 0 -0.75575
    outer loop
      vertex -31.2659 -22 8.75708
      vertex -32.6499 -32 9.9563
      vertex -32.6499 -22 9.9563
    endloop
  endfacet
  facet normal 0 1 0
    outer loop
      vertex -37.1184 -32 7
      vertex -34.4625 -32 10.2169
      vertex -32.6499 -32 9.9563
    endloop
  endfacet
  facet normal 0 1 0
    outer loop
      vertex -37.1184 -32 7
      vertex -32.6499 -32 9.9563
      vertex -31.2659 -32 8.75708
    endloop
  endfacet
  facet normal 0 1 0
    outer loop
      vertex -34.4625 -32 10.2169
      vertex -37.1184 -32 7
      vertex -36.1283 -32 9.45619
    endloop
  endfacet
  facet normal 0 1 0
    outer loop
      vertex -37.1184 -32 7
      vertex -31.2659 -32 8.75708
      vertex -30.75 -32 7
    endloop
  endfacet
  facet normal 0 1 0
    outer loop
      vertex -36.1283 -32 9.45619
      vertex -37.1184 -32 7
      vertex -37.1184 -32 7.91563
    endloop
  endfacet
  facet normal -0.959493 0 0.281733
    outer loop
      vertex -31.2659 -32 5.24292
      vertex -30.75 -22 7
      vertex -31.2659 -22 5.24292
    endloop
  endfacet
  facet normal -0.959493 0 0.281733
    outer loop
      vertex -30.75 -22 7
      vertex -31.2659 -32 5.24292
      vertex -30.75 -32 7
    endloop
  endfacet
  facet normal -0.654861 0 0.75575
    outer loop
      vertex -32.6499 -22 4.0437
      vertex -31.2659 -32 5.24292
      vertex -31.2659 -22 5.24292
    endloop
  endfacet
  facet normal -0.654861 0 0.75575
    outer loop
      vertex -31.2659 -32 5.24292
      vertex -32.6499 -22 4.0437
      vertex -32.6499 -32 4.0437
    endloop
  endfacet
  facet normal -0.142315 0 0.989821
    outer loop
      vertex -34.4625 -22 3.78308
      vertex -32.6499 -32 4.0437
      vertex -32.6499 -22 4.0437
    endloop
  endfacet
  facet normal -0.142315 0 0.989821
    outer loop
      vertex -32.6499 -32 4.0437
      vertex -34.4625 -22 3.78308
      vertex -34.4625 -32 3.78308
    endloop
  endfacet
  facet normal 0.841253 -0 0.540641
    outer loop
      vertex -37.1184 -32 6.08437
      vertex -36.1283 -22 4.54381
      vertex -37.1184 -22 6.08437
    endloop
  endfacet
  facet normal 0.841253 0 0.540641
    outer loop
      vertex -36.1283 -22 4.54381
      vertex -37.1184 -32 6.08437
      vertex -36.1283 -32 4.54381
    endloop
  endfacet
  facet normal 0.415416 0 -0.909632
    outer loop
      vertex -36.1283 -32 9.45619
      vertex -34.4625 -22 10.2169
      vertex -34.4625 -32 10.2169
    endloop
  endfacet
  facet normal 0.415416 0 -0.909632
    outer loop
      vertex -34.4625 -22 10.2169
      vertex -36.1283 -32 9.45619
      vertex -36.1283 -22 9.45619
    endloop
  endfacet
  facet normal 0.841253 0 -0.540641
    outer loop
      vertex -36.1283 -32 9.45619
      vertex -37.1184 -22 7.91563
      vertex -36.1283 -22 9.45619
    endloop
  endfacet
  facet normal 0.841253 0 -0.540641
    outer loop
      vertex -37.1184 -22 7.91563
      vertex -36.1283 -32 9.45619
      vertex -37.1184 -32 7.91563
    endloop
  endfacet
  facet normal 0.415416 0 0.909632
    outer loop
      vertex -36.1283 -22 4.54381
      vertex -34.4625 -32 3.78308
      vertex -34.4625 -22 3.78308
    endloop
  endfacet
  facet normal 0.415416 0 0.909632
    outer loop
      vertex -34.4625 -32 3.78308
      vertex -36.1283 -22 4.54381
      vertex -36.1283 -32 4.54381
    endloop
  endfacet
  facet normal -1 0 0
    outer loop
      vertex -40 0 0
      vertex -40 -22 40
      vertex -40 0 40
    endloop
  endfacet
  facet normal -1 0 0
    outer loop
      vertex -40 -32 0
      vertex -40 -22 40
      vertex -40 0 0
    endloop
  endfacet
  facet normal -1 0 0
    outer loop
      vertex -40 -32 80
      vertex -40 -22 40
      vertex -40 -32 0
    endloop
  endfacet
  facet normal -1 0 0
    outer loop
      vertex -40 -22 40
      vertex -40 -32 80
      vertex -40 -22 80
    endloop
  endfacet
  facet normal -0 0 1
    outer loop
      vertex -40 -22 80
      vertex 40 -32 80
      vertex 40 -22 80
    endloop
  endfacet
  facet normal 0 0 1
    outer loop
      vertex 40 -32 80
      vertex -40 -22 80
      vertex -40 -32 80
    endloop
  endfacet
  facet normal 1 0 0
    outer loop
      vertex 40 -22 80
      vertex 40 -32 80
      vertex 40 -22 40
    endloop
  endfacet
  facet normal 1 -0 0
    outer loop
      vertex 40 -22 40
      vertex 40 0 0
      vertex 40 0 40
    endloop
  endfacet
  facet normal 1 0 0
    outer loop
      vertex 40 -22 40
      vertex 40 -32 0
      vertex 40 0 0
    endloop
  endfacet
  facet normal 1 0 0
    outer loop
      vertex 40 -32 0
      vertex 40 -22 40
      vertex 40 -32 80
    endloop
  endfacet
  facet normal 0 1 0
    outer loop
      vertex 28 0 12
      vertex 33.2 0 5.61436
      vertex -28 0 12
    endloop
  endfacet
  facet normal 0 1 0
    outer loop
      vertex -28 0 12
      vertex -32.4 0 7
      vertex -33.2 0 8.38564
    endloop
  endfacet
  facet normal 0 1 0
    outer loop
      vertex -33.2 0 5.61436
      vertex -28 0 12
      vertex 33.2 0 5.61436
    endloop
  endfacet
  facet normal 0 1 0
    outer loop
      vertex -28 0 12
      vertex -33.2 0 5.61436
      vertex -32.4 0 7
    endloop
  endfacet
  facet normal 0 1 0
    outer loop
      vertex 40 0 40
      vertex 34.8 0 33.3856
      vertex 28 0 40
    endloop
  endfacet
  facet normal 0 1 0
    outer loop
      vertex 40 0 40
      vertex 35.6 0 32
      vertex 34.8 0 33.3856
    endloop
  endfacet
  facet normal 0 1 0
    outer loop
      vertex 34.8 0 30.6144
      vertex 28 0 12
      vertex 33.2 0 30.6144
    endloop
  endfacet
  facet normal 0 1 0
    outer loop
      vertex 34.8 0 8.38564
      vertex 34.8 0 30.6144
      vertex 35.6 0 32
    endloop
  endfacet
  facet normal 0 1 -0
    outer loop
      vertex 40 0 0
      vertex 35.6 0 32
      vertex 40 0 40
    endloop
  endfacet
  facet normal 0 1 -0
    outer loop
      vertex 33.2 0 8.38564
      vertex 28 0 12
      vertex 34.8 0 8.38564
    endloop
  endfacet
  facet normal 0 1 0
    outer loop
      vertex 34.8 0 30.6144
      vertex 34.8 0 8.38564
      vertex 28 0 12
    endloop
  endfacet
  facet normal 0 1 0
    outer loop
      vertex 35.6 0 32
      vertex 35.6 0 7
      vertex 34.8 0 8.38564
    endloop
  endfacet
  facet normal 0 1 0
    outer loop
      vertex 40 0 0
      vertex 33.2 0 5.61436
      vertex 34.8 0 5.61436
    endloop
  endfacet
  facet normal 0 1 0
    outer loop
      vertex 33.2 0 5.61436
      vertex 40 0 0
      vertex -33.2 0 5.61436
    endloop
  endfacet
  facet normal 0 1 0
    outer loop
      vertex -40 0 0
      vertex -33.2 0 5.61436
      vertex 40 0 0
    endloop
  endfacet
  facet normal 0 1 0
    outer loop
      vertex 35.6 0 7
      vertex 40 0 0
      vertex 34.8 0 5.61436
    endloop
  endfacet
  facet normal 0 1 0
    outer loop
      vertex 35.6 0 32
      vertex 40 0 0
      vertex 35.6 0 7
    endloop
  endfacet
  facet normal 0 1 -0
    outer loop
      vertex 33.2 0 33.3856
      vertex 28 0 40
      vertex 34.8 0 33.3856
    endloop
  endfacet
  facet normal 0 1 -0
    outer loop
      vertex 32.4 0 32
      vertex 28 0 40
      vertex 33.2 0 33.3856
    endloop
  endfacet
  facet normal 0 1 0
    outer loop
      vertex 32.4 0 32
      vertex 28 0 12
      vertex 28 0 40
    endloop
  endfacet
  facet normal 0 1 0
    outer loop
      vertex 28 0 12
      vertex 32.4 0 32
      vertex 33.2 0 30.6144
    endloop
  endfacet
  facet normal 0 1 0
    outer loop
      vertex -28 0 40
      vertex -33.2 0 33.3856
      vertex -40 0 40
    endloop
  endfacet
  facet normal 0 1 0
    outer loop
      vertex -28 0 40
      vertex -32.4 0 32
      vertex -33.2 0 33.3856
    endloop
  endfacet
  facet normal 0 1 0
    outer loop
      vertex -33.2 0 30.6144
      vertex -28 0 12
      vertex -34.8 0 30.6144
    endloop
  endfacet
  facet normal 0 1 0
    outer loop
      vertex -32.4 0 32
      vertex -28 0 12
      vertex -33.2 0 30.6144
    endloop
  endfacet
  facet normal 0 1 -0
    outer loop
      vertex -28 0 12
      vertex -32.4 0 32
      vertex -28 0 40
    endloop
  endfacet
  facet normal 0 1 -0
    outer loop
      vertex -34.8 0 33.3856
      vertex -40 0 40
      vertex -33.2 0 33.3856
    endloop
  endfacet
  facet normal 0 1 -0
    outer loop
      vertex -35.6 0 32
      vertex -40 0 40
      vertex -34.8 0 33.3856
    endloop
  endfacet
  facet normal 0 1 0
    outer loop
      vertex -34.8 0 8.38564
      vertex -34.8 0 30.6144
      vertex -28 0 12
    endloop
  endfacet
  facet normal 0 1 0
    outer loop
      vertex -34.8 0 30.6144
      vertex -34.8 0 8.38564
      vertex -35.6 0 32
    endloop
  endfacet
  facet normal 0 1 -0
    outer loop
      vertex 32.4 0 7
      vertex 28 0 12
      vertex 33.2 0 8.38564
    endloop
  endfacet
  facet normal 0 1 0
    outer loop
      vertex 33.2 0 5.61436
      vertex 28 0 12
      vertex 32.4 0 7
    endloop
  endfacet
  facet normal 0 1 0
    outer loop
      vertex -34.8 0 8.38564
      vertex -28 0 12
      vertex -33.2 0 8.38564
    endloop
  endfacet
  facet normal 0 1 0
    outer loop
      vertex -35.6 0 7
      vertex -35.6 0 32
      vertex -34.8 0 8.38564
    endloop
  endfacet
  facet normal 0 1 0
    outer loop
      vertex -40 0 0
      vertex -35.6 0 32
      vertex -35.6 0 7
    endloop
  endfacet
  facet normal 0 1 0
    outer loop
      vertex -35.6 0 32
      vertex -40 0 0
      vertex -40 0 40
    endloop
  endfacet
  facet normal 0 1 0
    outer loop
      vertex -34.8 0 5.61436
      vertex -40 0 0
      vertex -35.6 0 7
    endloop
  endfacet
  facet normal 0 1 0
    outer loop
      vertex -33.2 0 5.61436
      vertex -40 0 0
      vertex -34.8 0 5.61436
    endloop
  endfacet
  facet normal 0 0 -1
    outer loop
      vertex -40 -32 0
      vertex 40 0 0
      vertex 40 -32 0
    endloop
  endfacet
  facet normal -0 0 -1
    outer loop
      vertex 40 0 0
      vertex -40 -32 0
      vertex -40 0 0
    endloop
  endfacet
  facet normal 0 -1 0
    outer loop
      vertex -30.75 -32 7
      vertex 30.8816 -32 6.08437
      vertex 30.8816 -32 7
    endloop
  endfacet
  facet normal 0 -1 0
    outer loop
      vertex -31.2659 -32 5.24292
      vertex 30.8816 -32 6.08437
      vertex -30.75 -32 7
    endloop
  endfacet
  facet normal 0 -1 0
    outer loop
      vertex -31.2659 -32 5.24292
      vertex 31.8717 -32 4.54381
      vertex 30.8816 -32 6.08437
    endloop
  endfacet
  facet normal 0 -1 0
    outer loop
      vertex -32.6499 -32 4.0437
      vertex 31.8717 -32 4.54381
      vertex -31.2659 -32 5.24292
    endloop
  endfacet
  facet normal 0 -1 0
    outer loop
      vertex -40 -32 0
      vertex -32.6499 -32 4.0437
      vertex -34.4625 -32 3.78308
    endloop
  endfacet
  facet normal 0 -1 0
    outer loop
      vertex 40 -32 0
      vertex -32.6499 -32 4.0437
      vertex -40 -32 0
    endloop
  endfacet
  facet normal 0 -1 0
    outer loop
      vertex -30.75 -32 32
      vertex 30.8816 -32 31.0844
      vertex 30.8816 -32 32
    endloop
  endfacet
  facet normal 0 -1 0
    outer loop
      vertex -31.2659 -32 30.2429
      vertex 30.8816 -32 31.0844
      vertex -30.75 -32 32
    endloop
  endfacet
  facet normal 0 -1 0
    outer loop
      vertex 30.8816 -32 7
      vertex 30.8816 -32 31.0844
      vertex -31.2659 -32 30.2429
    endloop
  endfacet
  facet normal 0 -1 0
    outer loop
      vertex -30.75 -32 7
      vertex -31.2659 -32 30.2429
      vertex -32.6499 -32 29.0437
    endloop
  endfacet
  facet normal 0 -1 0
    outer loop
      vertex -30.75 -32 7
      vertex -32.6499 -32 29.0437
      vertex -34.4625 -32 28.7831
    endloop
  endfacet
  facet normal 0 -1 0
    outer loop
      vertex 30.8816 -32 7
      vertex -31.2659 -32 30.2429
      vertex -30.75 -32 7
    endloop
  endfacet
  facet normal 0 -1 0
    outer loop
      vertex -30.75 -32 32
      vertex -40 -32 80
      vertex -37.1184 -32 32
    endloop
  endfacet
  facet normal 0 -1 0
    outer loop
      vertex -40 -32 0
      vertex -37.1184 -32 32
      vertex -40 -32 80
    endloop
  endfacet
  facet normal 0 -1 0
    outer loop
      vertex -30.75 -32 7
      vertex -34.4625 -32 28.7831
      vertex -37.1184 -32 7
    endloop
  endfacet
  facet normal 0 -1 -0
    outer loop
      vertex -36.1283 -32 29.5438
      vertex -37.1184 -32 7
      vertex -34.4625 -32 28.7831
    endloop
  endfacet
  facet normal 0 -1 0
    outer loop
      vertex -37.1184 -32 31.0844
      vertex -37.1184 -32 7
      vertex -36.1283 -32 29.5438
    endloop
  endfacet
  facet normal 0 -1 -0
    outer loop
      vertex -37.1184 -32 32
      vertex -40 -32 0
      vertex -37.1184 -32 31.0844
    endloop
  endfacet
  facet normal 0 -1 -0
    outer loop
      vertex -37.1184 -32 31.0844
      vertex -40 -32 0
      vertex -37.1184 -32 7
    endloop
  endfacet
  facet normal 0 -1 0
    outer loop
      vertex -32.6499 -32 4.0437
      vertex 40 -32 0
      vertex 31.8717 -32 4.54381
    endloop
  endfacet
  facet normal 0 -1 -0
    outer loop
      vertex -36.1283 -32 4.54381
      vertex -40 -32 0
      vertex -34.4625 -32 3.78308
    endloop
  endfacet
  facet normal 0 -1 -0
    outer loop
      vertex -37.1184 -32 6.08437
      vertex -40 -32 0
      vertex -36.1283 -32 4.54381
    endloop
  endfacet
  facet normal 0 -1 -0
    outer loop
      vertex -37.1184 -32 7
      vertex -40 -32 0
      vertex -37.1184 -32 6.08437
    endloop
  endfacet
  facet normal 0 -1 0
    outer loop
      vertex -40 -32 80
      vertex -30.75 -32 32
      vertex 40 -32 80
    endloop
  endfacet
  facet normal 0 -1 0
    outer loop
      vertex 30.8816 -32 32
      vertex 40 -32 80
      vertex -30.75 -32 32
    endloop
  endfacet
  facet normal 0 -1 0
    outer loop
      vertex 37.25 -32 32
      vertex 40 -32 80
      vertex 30.8816 -32 32
    endloop
  endfacet
  facet normal 0 -1 0
    outer loop
      vertex 30.8816 -32 31.0844
      vertex 30.8816 -32 7
      vertex 31.8717 -32 29.5438
    endloop
  endfacet
  facet normal 0 -1 -0
    outer loop
      vertex 31.8717 -32 29.5438
      vertex 30.8816 -32 7
      vertex 33.5375 -32 28.7831
    endloop
  endfacet
  facet normal 0 -1 0
    outer loop
      vertex 37.25 -32 7
      vertex 33.5375 -32 28.7831
      vertex 30.8816 -32 7
    endloop
  endfacet
  facet normal 0 -1 0
    outer loop
      vertex 33.5375 -32 28.7831
      vertex 37.25 -32 7
      vertex 35.3501 -32 29.0437
    endloop
  endfacet
  facet normal 0 -1 0
    outer loop
      vertex 35.3501 -32 29.0437
      vertex 37.25 -32 7
      vertex 36.7341 -32 30.2429
    endloop
  endfacet
  facet normal 0 -1 0
    outer loop
      vertex 36.7341 -32 30.2429
      vertex 37.25 -32 7
      vertex 37.25 -32 32
    endloop
  endfacet
  facet normal 0 -1 0
    outer loop
      vertex 40 -32 0
      vertex 37.25 -32 32
      vertex 37.25 -32 7
    endloop
  endfacet
  facet normal 0 -1 0
    outer loop
      vertex 37.25 -32 32
      vertex 40 -32 0
      vertex 40 -32 80
    endloop
  endfacet
  facet normal 0 -1 0
    outer loop
      vertex 36.7341 -32 5.24292
      vertex 40 -32 0
      vertex 37.25 -32 7
    endloop
  endfacet
  facet normal 0 -1 0
    outer loop
      vertex 35.3501 -32 4.0437
      vertex 40 -32 0
      vertex 36.7341 -32 5.24292
    endloop
  endfacet
  facet normal 0 -1 0
    outer loop
      vertex 33.5375 -32 3.78308
      vertex 40 -32 0
      vertex 35.3501 -32 4.0437
    endloop
  endfacet
  facet normal 0 -1 0
    outer loop
      vertex 31.8717 -32 4.54381
      vertex 40 -32 0
      vertex 33.5375 -32 3.78308
    endloop
  endfacet
  facet normal 1 -0 0
    outer loop
      vertex -28 -22 40
      vertex -28 0 12
      vertex -28 0 40
    endloop
  endfacet
  facet normal 1 0 0
    outer loop
      vertex -28 0 12
      vertex -28 -22 40
      vertex -28 -22 12
    endloop
  endfacet
  facet normal -1 0 0
    outer loop
      vertex 28 -22 12
      vertex 28 0 40
      vertex 28 0 12
    endloop
  endfacet
  facet normal -1 -0 0
    outer loop
      vertex 28 0 40
      vertex 28 -22 12
      vertex 28 -22 40
    endloop
  endfacet
  facet normal -0 0 1
    outer loop
      vertex -28 0 12
      vertex 28 -22 12
      vertex 28 0 12
    endloop
  endfacet
  facet normal 0 0 1
    outer loop
      vertex 28 -22 12
      vertex -28 0 12
      vertex -28 -22 12
    endloop
  endfacet
  facet normal -0 0 1
    outer loop
      vertex -40 0 40
      vertex -28 -22 40
      vertex -28 0 40
    endloop
  endfacet
  facet normal 0 0 1
    outer loop
      vertex -28 -22 40
      vertex -40 0 40
      vertex -40 -22 40
    endloop
  endfacet
  facet normal -0 0 1
    outer loop
      vertex 28 0 40
      vertex 40 -22 40
      vertex 40 0 40
    endloop
  endfacet
  facet normal 0 0 1
    outer loop
      vertex 40 -22 40
      vertex 28 0 40
      vertex 28 -22 40
    endloop
  endfacet
endsolid OpenSCAD_Model
