solid OpenSCAD_Model
  facet normal 0 0 -1
    outer loop
      vertex 3.22554 -10.3808 0
      vertex 7.37721 -7.98378 0
      vertex 7.42699 -9.59171 0
    endloop
  endfacet
  facet normal 0 0 -1
    outer loop
      vertex 4.59315 -11.2278 0
      vertex 7.42699 -9.59171 0
      vertex 7.02791 -11.6211 0
    endloop
  endfacet
  facet normal 0 0 -1
    outer loop
      vertex 3.22554 -10.3808 0
      vertex 7.42699 -9.59171 0
      vertex 4.59315 -11.2278 0
    endloop
  endfacet
  facet normal -0 0 -1
    outer loop
      vertex 7.37721 -7.98378 0
      vertex 3.22554 -10.3808 0
      vertex 7.08727 -6.87187 0
    endloop
  endfacet
  facet normal 0 0 -1
    outer loop
      vertex 4.59315 -11.2278 0
      vertex 7.02791 -11.6211 0
      vertex 6.55025 -11.8969 0
    endloop
  endfacet
  facet normal 0 0 -1
    outer loop
      vertex 2.40758 -9.57368 0
      vertex 7.08727 -6.87187 0
      vertex 3.22554 -10.3808 0
    endloop
  endfacet
  facet normal 0 0 -1
    outer loop
      vertex 7.08727 -6.87187 0
      vertex 6.62692 -6.07997 0
      vertex 6.77109 -6.25916 0
    endloop
  endfacet
  facet normal 0 -0 -1
    outer loop
      vertex 6.62692 -6.07997 0
      vertex 7.08727 -6.87187 0
      vertex 2.40758 -9.57368 0
    endloop
  endfacet
  facet normal 0 0 -1
    outer loop
      vertex 12.0202 -1.63611 0
      vertex 13.5782 0.275757 0
      vertex 13.5782 -0.275772 0
    endloop
  endfacet
  facet normal 0 0 -1
    outer loop
      vertex 12.0202 -1.63611 0
      vertex 12.0202 1.63609 0
      vertex 13.5782 0.275757 0
    endloop
  endfacet
  facet normal 0 0 -1
    outer loop
      vertex 10.6028 -2.39697 0
      vertex 12.0202 1.63609 0
      vertex 12.0202 -1.63611 0
    endloop
  endfacet
  facet normal 0 0 -1
    outer loop
      vertex 10.6028 -2.39697 0
      vertex 10.6028 2.39696 0
      vertex 12.0202 1.63609 0
    endloop
  endfacet
  facet normal 0 0 -1
    outer loop
      vertex 9.49486 -2.70181 0
      vertex 10.6028 2.39696 0
      vertex 10.6028 -2.39697 0
    endloop
  endfacet
  facet normal 0 0 -1
    outer loop
      vertex 9.49486 -2.70181 0
      vertex 9.49486 2.7018 0
      vertex 10.6028 2.39696 0
    endloop
  endfacet
  facet normal 0 0 -1
    outer loop
      vertex 8.57889 -2.6991 0
      vertex 9.49486 -2.70181 0
      vertex 8.80614 -2.73436 0
    endloop
  endfacet
  facet normal 0 0 -1
    outer loop
      vertex 9.49486 -2.70181 0
      vertex 8.57889 -2.6991 0
      vertex 9.49486 2.7018 0
    endloop
  endfacet
  facet normal 0 0 -1
    outer loop
      vertex 8.57889 2.69908 0
      vertex 9.49486 2.7018 0
      vertex 8.57889 -2.6991 0
    endloop
  endfacet
  facet normal -0 0 -1
    outer loop
      vertex 9.49486 2.7018 0
      vertex 8.57889 2.69908 0
      vertex 8.80614 2.73434 0
    endloop
  endfacet
  facet normal 0 0 -1
    outer loop
      vertex 6.22075 -1.95718 0
      vertex 8.57889 2.69908 0
      vertex 8.57889 -2.6991 0
    endloop
  endfacet
  facet normal 0 0 -1
    outer loop
      vertex 6.22075 -1.95718 0
      vertex 6.22075 1.95717 0
      vertex 8.57889 2.69908 0
    endloop
  endfacet
  facet normal 0 0 -1
    outer loop
      vertex 4.80534 -4.40874 0
      vertex 6.22075 1.95717 0
      vertex 6.22075 -1.95718 0
    endloop
  endfacet
  facet normal -0 0 -1
    outer loop
      vertex 6.22075 1.95717 0
      vertex 4.80534 -4.40874 0
      vertex 4.80534 4.40874 0
    endloop
  endfacet
  facet normal 0 0 -1
    outer loop
      vertex 3.22554 10.3808 0
      vertex 7.37721 7.98378 0
      vertex 7.08727 6.87187 0
    endloop
  endfacet
  facet normal 0 0 -1
    outer loop
      vertex 7.37721 7.98378 0
      vertex 3.22554 10.3808 0
      vertex 7.42699 9.59171 0
    endloop
  endfacet
  facet normal 0 0 -1
    outer loop
      vertex 6.62692 6.07997 0
      vertex 7.08727 6.87187 0
      vertex 6.77109 6.25916 0
    endloop
  endfacet
  facet normal -0 0 -1
    outer loop
      vertex 7.08727 6.87187 0
      vertex 6.62692 6.07997 0
      vertex 2.40758 9.57368 0
    endloop
  endfacet
  facet normal 0 0 -1
    outer loop
      vertex 7.42699 9.59171 0
      vertex 4.59315 11.2278 0
      vertex 7.02791 11.6211 0
    endloop
  endfacet
  facet normal 0 0 -1
    outer loop
      vertex 1.95195 8.77907 0
      vertex 6.62692 6.07997 0
      vertex 4.80534 4.40874 0
    endloop
  endfacet
  facet normal -0 0 -1
    outer loop
      vertex 7.02791 11.6211 0
      vertex 4.59315 11.2278 0
      vertex 6.55025 11.8969 0
    endloop
  endfacet
  facet normal 0 0 -1
    outer loop
      vertex 4.80534 -4.40874 0
      vertex 2.5 0 0
      vertex 4.80534 4.40874 0
    endloop
  endfacet
  facet normal 0 0 -1
    outer loop
      vertex 1.95195 -8.77907 0
      vertex 6.62692 -6.07997 0
      vertex 2.40758 -9.57368 0
    endloop
  endfacet
  facet normal 0 0 -1
    outer loop
      vertex 1.76777 1.76777 0
      vertex 4.80534 4.40874 0
      vertex 2.5 0 0
    endloop
  endfacet
  facet normal 0 0 -1
    outer loop
      vertex 1.41541 6.36592 0
      vertex 4.80534 4.40874 0
      vertex 1.76777 1.76777 0
    endloop
  endfacet
  facet normal -0 0 -1
    outer loop
      vertex 6.62692 -6.07997 0
      vertex 1.95195 -8.77907 0
      vertex 4.80534 -4.40874 0
    endloop
  endfacet
  facet normal 0 0 -1
    outer loop
      vertex 1.95195 -8.77907 0
      vertex 2.40758 -9.57368 0
      vertex 2.03503 -8.99352 0
    endloop
  endfacet
  facet normal 0 0 -1
    outer loop
      vertex 4.80534 -4.40874 0
      vertex 1.95195 -8.77907 0
      vertex 1.41541 -6.36592 0
    endloop
  endfacet
  facet normal -0 0 -1
    outer loop
      vertex 4.80534 -4.40874 0
      vertex 1.41541 -6.36592 0
      vertex 1.76777 -1.76777 0
    endloop
  endfacet
  facet normal 0 0 -1
    outer loop
      vertex 4.80534 -4.40874 0
      vertex 1.76777 -1.76777 0
      vertex 2.5 0 0
    endloop
  endfacet
  facet normal 0 0 -1
    outer loop
      vertex 1.41541 -6.36592 0
      vertex 0 -2.5 0
      vertex 1.76777 -1.76777 0
    endloop
  endfacet
  facet normal 0 0 -1
    outer loop
      vertex -1.41541 -6.36592 0
      vertex 0 -2.5 0
      vertex 1.41541 -6.36592 0
    endloop
  endfacet
  facet normal 0 0 -1
    outer loop
      vertex -1.41541 -6.36592 0
      vertex -1.76777 -1.76777 0
      vertex 0 -2.5 0
    endloop
  endfacet
  facet normal 0 0 -1
    outer loop
      vertex -4.80534 -4.40874 0
      vertex -1.41541 -6.36592 0
      vertex -1.95195 -8.77907 0
    endloop
  endfacet
  facet normal 0 0 -1
    outer loop
      vertex -2.40758 -9.57368 0
      vertex -1.95195 -8.77907 0
      vertex -2.03503 -8.99352 0
    endloop
  endfacet
  facet normal -0 0 -1
    outer loop
      vertex -1.95195 -8.77907 0
      vertex -2.40758 -9.57368 0
      vertex -6.62692 -6.07997 0
    endloop
  endfacet
  facet normal 0 0 -1
    outer loop
      vertex -1.41541 -6.36592 0
      vertex -4.80534 -4.40874 0
      vertex -1.76777 -1.76777 0
    endloop
  endfacet
  facet normal 0 0 -1
    outer loop
      vertex -7.08727 -6.87187 0
      vertex -2.40758 -9.57368 0
      vertex -3.22554 -10.3808 0
    endloop
  endfacet
  facet normal 0 0 -1
    outer loop
      vertex -6.22075 1.95718 0
      vertex -2.5 0 0
      vertex -6.22075 -1.95717 0
    endloop
  endfacet
  facet normal 0 0 -1
    outer loop
      vertex -2.5 0 0
      vertex -6.22075 1.95718 0
      vertex -4.80534 4.40874 0
    endloop
  endfacet
  facet normal 0 0 -1
    outer loop
      vertex -8.57889 -2.69908 0
      vertex -6.22075 1.95718 0
      vertex -6.22075 -1.95717 0
    endloop
  endfacet
  facet normal 0 0 -1
    outer loop
      vertex -8.57889 -2.69908 0
      vertex -8.57889 2.6991 0
      vertex -6.22075 1.95718 0
    endloop
  endfacet
  facet normal 0 0 -1
    outer loop
      vertex -9.49486 -2.7018 0
      vertex -8.57889 -2.69908 0
      vertex -8.80614 -2.73434 0
    endloop
  endfacet
  facet normal -0 0 -1
    outer loop
      vertex -8.57889 -2.69908 0
      vertex -9.49486 -2.7018 0
      vertex -8.57889 2.6991 0
    endloop
  endfacet
  facet normal 0 0 -1
    outer loop
      vertex -9.49486 2.70181 0
      vertex -8.57889 2.6991 0
      vertex -9.49486 -2.7018 0
    endloop
  endfacet
  facet normal 0 0 -1
    outer loop
      vertex -8.57889 2.6991 0
      vertex -9.49486 2.70181 0
      vertex -8.80614 2.73436 0
    endloop
  endfacet
  facet normal 0 0 -1
    outer loop
      vertex -10.6028 -2.39696 0
      vertex -9.49486 2.70181 0
      vertex -9.49486 -2.7018 0
    endloop
  endfacet
  facet normal 0 0 -1
    outer loop
      vertex -10.6028 -2.39696 0
      vertex -10.6028 2.39697 0
      vertex -9.49486 2.70181 0
    endloop
  endfacet
  facet normal 0 0 -1
    outer loop
      vertex -12.0202 -1.63609 0
      vertex -10.6028 2.39697 0
      vertex -10.6028 -2.39696 0
    endloop
  endfacet
  facet normal 0 0 -1
    outer loop
      vertex -12.0202 -1.63609 0
      vertex -12.0202 1.63611 0
      vertex -10.6028 2.39697 0
    endloop
  endfacet
  facet normal 0 0 -1
    outer loop
      vertex -13.5782 -0.275757 0
      vertex -12.0202 1.63611 0
      vertex -12.0202 -1.63609 0
    endloop
  endfacet
  facet normal 0 0 -1
    outer loop
      vertex -12.0202 1.63611 0
      vertex -13.5782 -0.275757 0
      vertex -13.5782 0.275772 0
    endloop
  endfacet
  facet normal 0 0 -1
    outer loop
      vertex -7.08727 6.87187 0
      vertex -2.40758 9.57368 0
      vertex -6.62692 6.07997 0
    endloop
  endfacet
  facet normal -0 0 -1
    outer loop
      vertex -2.40758 9.57368 0
      vertex -7.08727 6.87187 0
      vertex -3.22554 10.3808 0
    endloop
  endfacet
  facet normal 0 0 -1
    outer loop
      vertex -7.37721 7.98378 0
      vertex -3.22554 10.3808 0
      vertex -7.08727 6.87187 0
    endloop
  endfacet
  facet normal 0 0 -1
    outer loop
      vertex -7.08727 6.87187 0
      vertex -6.62692 6.07997 0
      vertex -6.77109 6.25916 0
    endloop
  endfacet
  facet normal 0 0 -1
    outer loop
      vertex -7.42699 9.59171 0
      vertex -4.59315 11.2278 0
      vertex -7.37721 7.98378 0
    endloop
  endfacet
  facet normal -0 0 -1
    outer loop
      vertex -3.22554 10.3808 0
      vertex -7.37721 7.98378 0
      vertex -4.59315 11.2278 0
    endloop
  endfacet
  facet normal -0 0 -1
    outer loop
      vertex -4.59315 11.2278 0
      vertex -7.42699 9.59171 0
      vertex -6.55025 11.8969 0
    endloop
  endfacet
  facet normal 0 0 -1
    outer loop
      vertex -6.55025 11.8969 0
      vertex -7.42699 9.59171 0
      vertex -7.02791 11.6211 0
    endloop
  endfacet
  facet normal 0 -0 -1
    outer loop
      vertex 1.95195 8.77907 0
      vertex 4.80534 4.40874 0
      vertex 1.41541 6.36592 0
    endloop
  endfacet
  facet normal 0 0 -1
    outer loop
      vertex 6.62692 6.07997 0
      vertex 1.95195 8.77907 0
      vertex 2.40758 9.57368 0
    endloop
  endfacet
  facet normal 0 0 -1
    outer loop
      vertex 7.08727 6.87187 0
      vertex 2.40758 9.57368 0
      vertex 3.22554 10.3808 0
    endloop
  endfacet
  facet normal 0 0 -1
    outer loop
      vertex 7.42699 9.59171 0
      vertex 3.22554 10.3808 0
      vertex 4.59315 11.2278 0
    endloop
  endfacet
  facet normal 0 0 -1
    outer loop
      vertex 2.40758 9.57368 0
      vertex 1.95195 8.77907 0
      vertex 2.03503 8.99352 0
    endloop
  endfacet
  facet normal 0 0 -1
    outer loop
      vertex 0 2.5 0
      vertex 1.41541 6.36592 0
      vertex 1.76777 1.76777 0
    endloop
  endfacet
  facet normal 0 0 -1
    outer loop
      vertex 0 2.5 0
      vertex -1.41541 6.36592 0
      vertex 1.41541 6.36592 0
    endloop
  endfacet
  facet normal 0 0 -1
    outer loop
      vertex -1.76777 1.76777 0
      vertex -1.41541 6.36592 0
      vertex 0 2.5 0
    endloop
  endfacet
  facet normal 0 0 -1
    outer loop
      vertex -4.80534 4.40874 0
      vertex -1.41541 6.36592 0
      vertex -1.76777 1.76777 0
    endloop
  endfacet
  facet normal -0 0 -1
    outer loop
      vertex -1.95195 8.77907 0
      vertex -6.62692 6.07997 0
      vertex -2.40758 9.57368 0
    endloop
  endfacet
  facet normal 0 0 -1
    outer loop
      vertex -4.80534 4.40874 0
      vertex -1.95195 8.77907 0
      vertex -1.41541 6.36592 0
    endloop
  endfacet
  facet normal 0 0 -1
    outer loop
      vertex -4.80534 4.40874 0
      vertex -1.76777 1.76777 0
      vertex -2.5 0 0
    endloop
  endfacet
  facet normal 0 0 -1
    outer loop
      vertex -6.22075 -1.95717 0
      vertex -1.76777 -1.76777 0
      vertex -4.80534 -4.40874 0
    endloop
  endfacet
  facet normal -0 0 -1
    outer loop
      vertex -1.76777 -1.76777 0
      vertex -6.22075 -1.95717 0
      vertex -2.5 0 0
    endloop
  endfacet
  facet normal 0 0 -1
    outer loop
      vertex -7.37721 -7.98378 0
      vertex -3.22554 -10.3808 0
      vertex -4.59315 -11.2278 0
    endloop
  endfacet
  facet normal 0 0 -1
    outer loop
      vertex -6.62692 6.07997 0
      vertex -1.95195 8.77907 0
      vertex -4.80534 4.40874 0
    endloop
  endfacet
  facet normal 0 0 -1
    outer loop
      vertex -1.95195 8.77907 0
      vertex -2.40758 9.57368 0
      vertex -2.03503 8.99352 0
    endloop
  endfacet
  facet normal 0 0 -1
    outer loop
      vertex -7.42699 -9.59171 0
      vertex -4.59315 -11.2278 0
      vertex -6.55025 -11.8969 0
    endloop
  endfacet
  facet normal 0 0 -1
    outer loop
      vertex -3.22554 -10.3808 0
      vertex -7.37721 -7.98378 0
      vertex -7.08727 -6.87187 0
    endloop
  endfacet
  facet normal 0 0 -1
    outer loop
      vertex -1.95195 -8.77907 0
      vertex -6.62692 -6.07997 0
      vertex -4.80534 -4.40874 0
    endloop
  endfacet
  facet normal 0 0 -1
    outer loop
      vertex -7.42699 -9.59171 0
      vertex -6.55025 -11.8969 0
      vertex -7.02791 -11.6211 0
    endloop
  endfacet
  facet normal 0 0 -1
    outer loop
      vertex -4.59315 -11.2278 0
      vertex -7.42699 -9.59171 0
      vertex -7.37721 -7.98378 0
    endloop
  endfacet
  facet normal 0 0 -1
    outer loop
      vertex -2.40758 -9.57368 0
      vertex -7.08727 -6.87187 0
      vertex -6.62692 -6.07997 0
    endloop
  endfacet
  facet normal 0 0 -1
    outer loop
      vertex -6.62692 -6.07997 0
      vertex -7.08727 -6.87187 0
      vertex -6.77109 -6.25916 0
    endloop
  endfacet
  facet normal 0 0 1
    outer loop
      vertex 3.22554 10.3808 20
      vertex 7.37721 7.98378 20
      vertex 7.42699 9.59171 20
    endloop
  endfacet
  facet normal -0 0 1
    outer loop
      vertex 4.59315 11.2278 20
      vertex 7.42699 9.59171 20
      vertex 7.02791 11.6211 20
    endloop
  endfacet
  facet normal -0 0 1
    outer loop
      vertex 3.22554 10.3808 20
      vertex 7.42699 9.59171 20
      vertex 4.59315 11.2278 20
    endloop
  endfacet
  facet normal 0 0 1
    outer loop
      vertex 7.37721 7.98378 20
      vertex 3.22554 10.3808 20
      vertex 7.08727 6.87187 20
    endloop
  endfacet
  facet normal 0 0 1
    outer loop
      vertex 4.59315 11.2278 20
      vertex 7.02791 11.6211 20
      vertex 6.55025 11.8969 20
    endloop
  endfacet
  facet normal -0 0 1
    outer loop
      vertex 2.40758 9.57368 20
      vertex 7.08727 6.87187 20
      vertex 3.22554 10.3808 20
    endloop
  endfacet
  facet normal 0 0 1
    outer loop
      vertex 7.08727 6.87187 20
      vertex 6.62692 6.07997 20
      vertex 6.77109 6.25916 20
    endloop
  endfacet
  facet normal 0 -0 1
    outer loop
      vertex 6.62692 6.07997 20
      vertex 7.08727 6.87187 20
      vertex 2.40758 9.57368 20
    endloop
  endfacet
  facet normal 0 0 1
    outer loop
      vertex 12.0202 1.63609 20
      vertex 13.5782 -0.275772 20
      vertex 13.5782 0.275757 20
    endloop
  endfacet
  facet normal 0 0 1
    outer loop
      vertex 12.0202 1.63609 20
      vertex 12.0202 -1.63611 20
      vertex 13.5782 -0.275772 20
    endloop
  endfacet
  facet normal 0 0 1
    outer loop
      vertex 10.6028 2.39696 20
      vertex 12.0202 -1.63611 20
      vertex 12.0202 1.63609 20
    endloop
  endfacet
  facet normal 0 0 1
    outer loop
      vertex 10.6028 2.39696 20
      vertex 10.6028 -2.39697 20
      vertex 12.0202 -1.63611 20
    endloop
  endfacet
  facet normal 0 0 1
    outer loop
      vertex 9.49486 2.7018 20
      vertex 10.6028 -2.39697 20
      vertex 10.6028 2.39696 20
    endloop
  endfacet
  facet normal 0 0 1
    outer loop
      vertex 9.49486 2.7018 20
      vertex 9.49486 -2.70181 20
      vertex 10.6028 -2.39697 20
    endloop
  endfacet
  facet normal 0 0 1
    outer loop
      vertex 8.57889 2.69908 20
      vertex 9.49486 2.7018 20
      vertex 8.80614 2.73434 20
    endloop
  endfacet
  facet normal 0 0 1
    outer loop
      vertex 9.49486 2.7018 20
      vertex 8.57889 2.69908 20
      vertex 9.49486 -2.70181 20
    endloop
  endfacet
  facet normal -0 0 1
    outer loop
      vertex 8.57889 -2.6991 20
      vertex 9.49486 -2.70181 20
      vertex 8.57889 2.69908 20
    endloop
  endfacet
  facet normal 0 0 1
    outer loop
      vertex 9.49486 -2.70181 20
      vertex 8.57889 -2.6991 20
      vertex 8.80614 -2.73436 20
    endloop
  endfacet
  facet normal -0 0 1
    outer loop
      vertex 6.22075 1.95717 20
      vertex 8.57889 -2.6991 20
      vertex 8.57889 2.69908 20
    endloop
  endfacet
  facet normal 0 0 1
    outer loop
      vertex 6.22075 1.95717 20
      vertex 6.22075 -1.95718 20
      vertex 8.57889 -2.6991 20
    endloop
  endfacet
  facet normal 0 0 1
    outer loop
      vertex 4.80534 4.40874 20
      vertex 6.22075 -1.95718 20
      vertex 6.22075 1.95717 20
    endloop
  endfacet
  facet normal 0 0 1
    outer loop
      vertex 6.22075 -1.95718 20
      vertex 4.80534 4.40874 20
      vertex 4.80534 -4.40874 20
    endloop
  endfacet
  facet normal 0 0 1
    outer loop
      vertex 3.22554 -10.3808 20
      vertex 7.37721 -7.98378 20
      vertex 7.08727 -6.87187 20
    endloop
  endfacet
  facet normal 0 0 1
    outer loop
      vertex 7.37721 -7.98378 20
      vertex 3.22554 -10.3808 20
      vertex 7.42699 -9.59171 20
    endloop
  endfacet
  facet normal 0 0 1
    outer loop
      vertex 6.62692 -6.07997 20
      vertex 7.08727 -6.87187 20
      vertex 6.77109 -6.25916 20
    endloop
  endfacet
  facet normal 0 0 1
    outer loop
      vertex 7.08727 -6.87187 20
      vertex 6.62692 -6.07997 20
      vertex 2.40758 -9.57368 20
    endloop
  endfacet
  facet normal 0 0 1
    outer loop
      vertex 7.42699 -9.59171 20
      vertex 4.59315 -11.2278 20
      vertex 7.02791 -11.6211 20
    endloop
  endfacet
  facet normal 0 0 1
    outer loop
      vertex 1.95195 -8.77907 20
      vertex 6.62692 -6.07997 20
      vertex 4.80534 -4.40874 20
    endloop
  endfacet
  facet normal 0 0 1
    outer loop
      vertex 7.02791 -11.6211 20
      vertex 4.59315 -11.2278 20
      vertex 6.55025 -11.8969 20
    endloop
  endfacet
  facet normal 0 0 1
    outer loop
      vertex 4.80534 4.40874 20
      vertex 2.5 0 20
      vertex 4.80534 -4.40874 20
    endloop
  endfacet
  facet normal -0 0 1
    outer loop
      vertex 1.95195 8.77907 20
      vertex 6.62692 6.07997 20
      vertex 2.40758 9.57368 20
    endloop
  endfacet
  facet normal -0 0 1
    outer loop
      vertex 1.76777 -1.76777 20
      vertex 4.80534 -4.40874 20
      vertex 2.5 0 20
    endloop
  endfacet
  facet normal 0 0 1
    outer loop
      vertex 1.41541 -6.36592 20
      vertex 4.80534 -4.40874 20
      vertex 1.76777 -1.76777 20
    endloop
  endfacet
  facet normal 0 0 1
    outer loop
      vertex 6.62692 6.07997 20
      vertex 1.95195 8.77907 20
      vertex 4.80534 4.40874 20
    endloop
  endfacet
  facet normal 0 0 1
    outer loop
      vertex 1.95195 8.77907 20
      vertex 2.40758 9.57368 20
      vertex 2.03503 8.99352 20
    endloop
  endfacet
  facet normal 0 0 1
    outer loop
      vertex 4.80534 4.40874 20
      vertex 1.95195 8.77907 20
      vertex 1.41541 6.36592 20
    endloop
  endfacet
  facet normal 0 0 1
    outer loop
      vertex 4.80534 4.40874 20
      vertex 1.41541 6.36592 20
      vertex 1.76777 1.76777 20
    endloop
  endfacet
  facet normal 0 0 1
    outer loop
      vertex 4.80534 4.40874 20
      vertex 1.76777 1.76777 20
      vertex 2.5 0 20
    endloop
  endfacet
  facet normal 0 0 1
    outer loop
      vertex 1.41541 6.36592 20
      vertex 0 2.5 20
      vertex 1.76777 1.76777 20
    endloop
  endfacet
  facet normal -0 0 1
    outer loop
      vertex -1.41541 6.36592 20
      vertex 0 2.5 20
      vertex 1.41541 6.36592 20
    endloop
  endfacet
  facet normal 0 0 1
    outer loop
      vertex -1.41541 6.36592 20
      vertex -1.76777 1.76777 20
      vertex 0 2.5 20
    endloop
  endfacet
  facet normal 0 0 1
    outer loop
      vertex -4.80534 4.40874 20
      vertex -1.41541 6.36592 20
      vertex -1.95195 8.77907 20
    endloop
  endfacet
  facet normal 0 0 1
    outer loop
      vertex -2.40758 9.57368 20
      vertex -1.95195 8.77907 20
      vertex -2.03503 8.99352 20
    endloop
  endfacet
  facet normal 0 0 1
    outer loop
      vertex -1.95195 8.77907 20
      vertex -2.40758 9.57368 20
      vertex -6.62692 6.07997 20
    endloop
  endfacet
  facet normal 0 0 1
    outer loop
      vertex -1.41541 6.36592 20
      vertex -4.80534 4.40874 20
      vertex -1.76777 1.76777 20
    endloop
  endfacet
  facet normal 0 0 1
    outer loop
      vertex -7.08727 6.87187 20
      vertex -2.40758 9.57368 20
      vertex -3.22554 10.3808 20
    endloop
  endfacet
  facet normal 0 0 1
    outer loop
      vertex -6.22075 -1.95717 20
      vertex -2.5 0 20
      vertex -6.22075 1.95718 20
    endloop
  endfacet
  facet normal 0 0 1
    outer loop
      vertex -2.5 0 20
      vertex -6.22075 -1.95717 20
      vertex -4.80534 -4.40874 20
    endloop
  endfacet
  facet normal 0 0 1
    outer loop
      vertex -8.57889 2.6991 20
      vertex -6.22075 -1.95717 20
      vertex -6.22075 1.95718 20
    endloop
  endfacet
  facet normal 0 0 1
    outer loop
      vertex -8.57889 2.6991 20
      vertex -8.57889 -2.69908 20
      vertex -6.22075 -1.95717 20
    endloop
  endfacet
  facet normal -0 0 1
    outer loop
      vertex -9.49486 2.70181 20
      vertex -8.57889 2.6991 20
      vertex -8.80614 2.73436 20
    endloop
  endfacet
  facet normal 0 0 1
    outer loop
      vertex -8.57889 2.6991 20
      vertex -9.49486 2.70181 20
      vertex -8.57889 -2.69908 20
    endloop
  endfacet
  facet normal 0 0 1
    outer loop
      vertex -9.49486 -2.7018 20
      vertex -8.57889 -2.69908 20
      vertex -9.49486 2.70181 20
    endloop
  endfacet
  facet normal 0 0 1
    outer loop
      vertex -8.57889 -2.69908 20
      vertex -9.49486 -2.7018 20
      vertex -8.80614 -2.73434 20
    endloop
  endfacet
  facet normal -0 0 1
    outer loop
      vertex -10.6028 2.39697 20
      vertex -9.49486 -2.7018 20
      vertex -9.49486 2.70181 20
    endloop
  endfacet
  facet normal 0 0 1
    outer loop
      vertex -10.6028 2.39697 20
      vertex -10.6028 -2.39696 20
      vertex -9.49486 -2.7018 20
    endloop
  endfacet
  facet normal -0 0 1
    outer loop
      vertex -12.0202 1.63611 20
      vertex -10.6028 -2.39696 20
      vertex -10.6028 2.39697 20
    endloop
  endfacet
  facet normal 0 0 1
    outer loop
      vertex -12.0202 1.63611 20
      vertex -12.0202 -1.63609 20
      vertex -10.6028 -2.39696 20
    endloop
  endfacet
  facet normal -0 0 1
    outer loop
      vertex -13.5782 0.275772 20
      vertex -12.0202 -1.63609 20
      vertex -12.0202 1.63611 20
    endloop
  endfacet
  facet normal 0 0 1
    outer loop
      vertex -12.0202 -1.63609 20
      vertex -13.5782 0.275772 20
      vertex -13.5782 -0.275757 20
    endloop
  endfacet
  facet normal -0 0 1
    outer loop
      vertex -7.08727 -6.87187 20
      vertex -2.40758 -9.57368 20
      vertex -6.62692 -6.07997 20
    endloop
  endfacet
  facet normal 0 0 1
    outer loop
      vertex -2.40758 -9.57368 20
      vertex -7.08727 -6.87187 20
      vertex -3.22554 -10.3808 20
    endloop
  endfacet
  facet normal -0 0 1
    outer loop
      vertex -7.37721 -7.98378 20
      vertex -3.22554 -10.3808 20
      vertex -7.08727 -6.87187 20
    endloop
  endfacet
  facet normal 0 0 1
    outer loop
      vertex -7.08727 -6.87187 20
      vertex -6.62692 -6.07997 20
      vertex -6.77109 -6.25916 20
    endloop
  endfacet
  facet normal -0 0 1
    outer loop
      vertex -7.42699 -9.59171 20
      vertex -4.59315 -11.2278 20
      vertex -7.37721 -7.98378 20
    endloop
  endfacet
  facet normal 0 0 1
    outer loop
      vertex -3.22554 -10.3808 20
      vertex -7.37721 -7.98378 20
      vertex -4.59315 -11.2278 20
    endloop
  endfacet
  facet normal 0 0 1
    outer loop
      vertex -4.59315 -11.2278 20
      vertex -7.42699 -9.59171 20
      vertex -6.55025 -11.8969 20
    endloop
  endfacet
  facet normal 0 0 1
    outer loop
      vertex -6.55025 -11.8969 20
      vertex -7.42699 -9.59171 20
      vertex -7.02791 -11.6211 20
    endloop
  endfacet
  facet normal 0 -0 1
    outer loop
      vertex 1.95195 -8.77907 20
      vertex 4.80534 -4.40874 20
      vertex 1.41541 -6.36592 20
    endloop
  endfacet
  facet normal 0 0 1
    outer loop
      vertex 6.62692 -6.07997 20
      vertex 1.95195 -8.77907 20
      vertex 2.40758 -9.57368 20
    endloop
  endfacet
  facet normal 0 0 1
    outer loop
      vertex 7.08727 -6.87187 20
      vertex 2.40758 -9.57368 20
      vertex 3.22554 -10.3808 20
    endloop
  endfacet
  facet normal 0 0 1
    outer loop
      vertex 7.42699 -9.59171 20
      vertex 3.22554 -10.3808 20
      vertex 4.59315 -11.2278 20
    endloop
  endfacet
  facet normal 0 0 1
    outer loop
      vertex 2.40758 -9.57368 20
      vertex 1.95195 -8.77907 20
      vertex 2.03503 -8.99352 20
    endloop
  endfacet
  facet normal -0 0 1
    outer loop
      vertex 0 -2.5 20
      vertex 1.41541 -6.36592 20
      vertex 1.76777 -1.76777 20
    endloop
  endfacet
  facet normal 0 0 1
    outer loop
      vertex 0 -2.5 20
      vertex -1.41541 -6.36592 20
      vertex 1.41541 -6.36592 20
    endloop
  endfacet
  facet normal 0 0 1
    outer loop
      vertex -1.76777 -1.76777 20
      vertex -1.41541 -6.36592 20
      vertex 0 -2.5 20
    endloop
  endfacet
  facet normal -0 0 1
    outer loop
      vertex -4.80534 -4.40874 20
      vertex -1.41541 -6.36592 20
      vertex -1.76777 -1.76777 20
    endloop
  endfacet
  facet normal 0 0 1
    outer loop
      vertex -1.95195 -8.77907 20
      vertex -6.62692 -6.07997 20
      vertex -2.40758 -9.57368 20
    endloop
  endfacet
  facet normal 0 0 1
    outer loop
      vertex -4.80534 -4.40874 20
      vertex -1.95195 -8.77907 20
      vertex -1.41541 -6.36592 20
    endloop
  endfacet
  facet normal 0 0 1
    outer loop
      vertex -4.80534 -4.40874 20
      vertex -1.76777 -1.76777 20
      vertex -2.5 0 20
    endloop
  endfacet
  facet normal -0 0 1
    outer loop
      vertex -6.22075 1.95718 20
      vertex -1.76777 1.76777 20
      vertex -4.80534 4.40874 20
    endloop
  endfacet
  facet normal 0 0 1
    outer loop
      vertex -1.76777 1.76777 20
      vertex -6.22075 1.95718 20
      vertex -2.5 0 20
    endloop
  endfacet
  facet normal 0 0 1
    outer loop
      vertex -7.37721 7.98378 20
      vertex -3.22554 10.3808 20
      vertex -4.59315 11.2278 20
    endloop
  endfacet
  facet normal -0 0 1
    outer loop
      vertex -6.62692 -6.07997 20
      vertex -1.95195 -8.77907 20
      vertex -4.80534 -4.40874 20
    endloop
  endfacet
  facet normal 0 0 1
    outer loop
      vertex -1.95195 -8.77907 20
      vertex -2.40758 -9.57368 20
      vertex -2.03503 -8.99352 20
    endloop
  endfacet
  facet normal 0 0 1
    outer loop
      vertex -7.42699 9.59171 20
      vertex -4.59315 11.2278 20
      vertex -6.55025 11.8969 20
    endloop
  endfacet
  facet normal 0 0 1
    outer loop
      vertex -3.22554 10.3808 20
      vertex -7.37721 7.98378 20
      vertex -7.08727 6.87187 20
    endloop
  endfacet
  facet normal 0 0 1
    outer loop
      vertex -1.95195 8.77907 20
      vertex -6.62692 6.07997 20
      vertex -4.80534 4.40874 20
    endloop
  endfacet
  facet normal 0 0 1
    outer loop
      vertex -7.42699 9.59171 20
      vertex -6.55025 11.8969 20
      vertex -7.02791 11.6211 20
    endloop
  endfacet
  facet normal 0 0 1
    outer loop
      vertex -4.59315 11.2278 20
      vertex -7.42699 9.59171 20
      vertex -7.37721 7.98378 20
    endloop
  endfacet
  facet normal 0 0 1
    outer loop
      vertex -2.40758 9.57368 20
      vertex -7.08727 6.87187 20
      vertex -6.62692 6.07997 20
    endloop
  endfacet
  facet normal 0 0 1
    outer loop
      vertex -6.62692 6.07997 20
      vertex -7.08727 6.87187 20
      vertex -6.77109 6.25916 20
    endloop
  endfacet
  facet normal 0.981209 -0.19295 0
    outer loop
      vertex 7.02791 -11.6211 20
      vertex 7.42699 -9.59171 0
      vertex 7.42699 -9.59171 20
    endloop
  endfacet
  facet normal 0.981209 -0.19295 0
    outer loop
      vertex 7.42699 -9.59171 0
      vertex 7.02791 -11.6211 20
      vertex 7.02791 -11.6211 0
    endloop
  endfacet
  facet normal 0.999521 0.0309407 0
    outer loop
      vertex 7.42699 -9.59171 20
      vertex 7.37721 -7.98378 0
      vertex 7.37721 -7.98378 20
    endloop
  endfacet
  facet normal 0.999521 0.0309407 0
    outer loop
      vertex 7.37721 -7.98378 0
      vertex 7.42699 -9.59171 20
      vertex 7.42699 -9.59171 0
    endloop
  endfacet
  facet normal 0.967642 0.252328 0
    outer loop
      vertex 7.37721 -7.98378 20
      vertex 7.08727 -6.87187 0
      vertex 7.08727 -6.87187 20
    endloop
  endfacet
  facet normal 0.967642 0.252328 0
    outer loop
      vertex 7.08727 -6.87187 0
      vertex 7.37721 -7.98378 20
      vertex 7.37721 -7.98378 0
    endloop
  endfacet
  facet normal 0.888658 0.45857 0
    outer loop
      vertex 7.08727 -6.87187 20
      vertex 6.77109 -6.25916 0
      vertex 6.77109 -6.25916 20
    endloop
  endfacet
  facet normal 0.888658 0.45857 0
    outer loop
      vertex 6.77109 -6.25916 0
      vertex 7.08727 -6.87187 20
      vertex 7.08727 -6.87187 0
    endloop
  endfacet
  facet normal 0.779131 0.626861 0
    outer loop
      vertex 6.77109 -6.25916 20
      vertex 6.62692 -6.07997 0
      vertex 6.62692 -6.07997 20
    endloop
  endfacet
  facet normal 0.779131 0.626861 0
    outer loop
      vertex 6.62692 -6.07997 0
      vertex 6.77109 -6.25916 20
      vertex 6.77109 -6.25916 0
    endloop
  endfacet
  facet normal 0.676044 0.736861 -0
    outer loop
      vertex 6.62692 -6.07997 0
      vertex 4.80534 -4.40874 20
      vertex 6.62692 -6.07997 20
    endloop
  endfacet
  facet normal 0.676044 0.736861 0
    outer loop
      vertex 4.80534 -4.40874 20
      vertex 6.62692 -6.07997 0
      vertex 4.80534 -4.40874 0
    endloop
  endfacet
  facet normal 0.866025 -0.5 0
    outer loop
      vertex 4.80534 -4.40874 20
      vertex 6.22075 -1.95718 0
      vertex 6.22075 -1.95718 20
    endloop
  endfacet
  facet normal 0.866025 -0.5 0
    outer loop
      vertex 6.22075 -1.95718 0
      vertex 4.80534 -4.40874 20
      vertex 4.80534 -4.40874 0
    endloop
  endfacet
  facet normal -0.300115 -0.953903 0
    outer loop
      vertex 6.22075 -1.95718 0
      vertex 8.57889 -2.6991 20
      vertex 6.22075 -1.95718 20
    endloop
  endfacet
  facet normal -0.300115 -0.953903 -0
    outer loop
      vertex 8.57889 -2.6991 20
      vertex 6.22075 -1.95718 0
      vertex 8.57889 -2.6991 0
    endloop
  endfacet
  facet normal -0.153338 -0.988174 0
    outer loop
      vertex 8.57889 -2.6991 0
      vertex 8.80614 -2.73436 20
      vertex 8.57889 -2.6991 20
    endloop
  endfacet
  facet normal -0.153338 -0.988174 -0
    outer loop
      vertex 8.80614 -2.73436 20
      vertex 8.57889 -2.6991 0
      vertex 8.80614 -2.73436 0
    endloop
  endfacet
  facet normal 0.0472045 -0.998885 0
    outer loop
      vertex 8.80614 -2.73436 0
      vertex 9.49486 -2.70181 20
      vertex 8.80614 -2.73436 20
    endloop
  endfacet
  facet normal 0.0472045 -0.998885 0
    outer loop
      vertex 9.49486 -2.70181 20
      vertex 8.80614 -2.73436 0
      vertex 9.49486 -2.70181 0
    endloop
  endfacet
  facet normal 0.26529 -0.964169 0
    outer loop
      vertex 9.49486 -2.70181 0
      vertex 10.6028 -2.39697 20
      vertex 9.49486 -2.70181 20
    endloop
  endfacet
  facet normal 0.26529 -0.964169 0
    outer loop
      vertex 10.6028 -2.39697 20
      vertex 9.49486 -2.70181 0
      vertex 10.6028 -2.39697 0
    endloop
  endfacet
  facet normal 0.472969 -0.881079 0
    outer loop
      vertex 10.6028 -2.39697 0
      vertex 12.0202 -1.63611 20
      vertex 10.6028 -2.39697 20
    endloop
  endfacet
  facet normal 0.472969 -0.881079 0
    outer loop
      vertex 12.0202 -1.63611 20
      vertex 10.6028 -2.39697 0
      vertex 12.0202 -1.63611 0
    endloop
  endfacet
  facet normal 0.657703 -0.753277 0
    outer loop
      vertex 12.0202 -1.63611 0
      vertex 13.5782 -0.275772 20
      vertex 12.0202 -1.63611 20
    endloop
  endfacet
  facet normal 0.657703 -0.753277 0
    outer loop
      vertex 13.5782 -0.275772 20
      vertex 12.0202 -1.63611 0
      vertex 13.5782 -0.275772 0
    endloop
  endfacet
  facet normal 1 -0 0
    outer loop
      vertex 13.5782 -0.275772 20
      vertex 13.5782 0.275757 0
      vertex 13.5782 0.275757 20
    endloop
  endfacet
  facet normal 1 0 0
    outer loop
      vertex 13.5782 0.275757 0
      vertex 13.5782 -0.275772 20
      vertex 13.5782 -0.275772 0
    endloop
  endfacet
  facet normal 0.657703 0.753277 -0
    outer loop
      vertex 13.5782 0.275757 0
      vertex 12.0202 1.63609 20
      vertex 13.5782 0.275757 20
    endloop
  endfacet
  facet normal 0.657703 0.753277 0
    outer loop
      vertex 12.0202 1.63609 20
      vertex 13.5782 0.275757 0
      vertex 12.0202 1.63609 0
    endloop
  endfacet
  facet normal 0.472969 0.881079 -0
    outer loop
      vertex 12.0202 1.63609 0
      vertex 10.6028 2.39696 20
      vertex 12.0202 1.63609 20
    endloop
  endfacet
  facet normal 0.472969 0.881079 0
    outer loop
      vertex 10.6028 2.39696 20
      vertex 12.0202 1.63609 0
      vertex 10.6028 2.39696 0
    endloop
  endfacet
  facet normal 0.26529 0.964169 -0
    outer loop
      vertex 10.6028 2.39696 0
      vertex 9.49486 2.7018 20
      vertex 10.6028 2.39696 20
    endloop
  endfacet
  facet normal 0.26529 0.964169 0
    outer loop
      vertex 9.49486 2.7018 20
      vertex 10.6028 2.39696 0
      vertex 9.49486 2.7018 0
    endloop
  endfacet
  facet normal 0.0472045 0.998885 -0
    outer loop
      vertex 9.49486 2.7018 0
      vertex 8.80614 2.73434 20
      vertex 9.49486 2.7018 20
    endloop
  endfacet
  facet normal 0.0472045 0.998885 0
    outer loop
      vertex 8.80614 2.73434 20
      vertex 9.49486 2.7018 0
      vertex 8.80614 2.73434 0
    endloop
  endfacet
  facet normal -0.153338 0.988174 0
    outer loop
      vertex 8.80614 2.73434 0
      vertex 8.57889 2.69908 20
      vertex 8.80614 2.73434 20
    endloop
  endfacet
  facet normal -0.153338 0.988174 0
    outer loop
      vertex 8.57889 2.69908 20
      vertex 8.80614 2.73434 0
      vertex 8.57889 2.69908 0
    endloop
  endfacet
  facet normal -0.300115 0.953903 0
    outer loop
      vertex 8.57889 2.69908 0
      vertex 6.22075 1.95717 20
      vertex 8.57889 2.69908 20
    endloop
  endfacet
  facet normal -0.300115 0.953903 0
    outer loop
      vertex 6.22075 1.95717 20
      vertex 8.57889 2.69908 0
      vertex 6.22075 1.95717 0
    endloop
  endfacet
  facet normal 0.866027 0.499998 0
    outer loop
      vertex 6.22075 1.95717 20
      vertex 4.80534 4.40874 0
      vertex 4.80534 4.40874 20
    endloop
  endfacet
  facet normal 0.866027 0.499998 0
    outer loop
      vertex 4.80534 4.40874 0
      vertex 6.22075 1.95717 20
      vertex 6.22075 1.95717 0
    endloop
  endfacet
  facet normal 0.676044 -0.736861 0
    outer loop
      vertex 4.80534 4.40874 0
      vertex 6.62692 6.07997 20
      vertex 4.80534 4.40874 20
    endloop
  endfacet
  facet normal 0.676044 -0.736861 0
    outer loop
      vertex 6.62692 6.07997 20
      vertex 4.80534 4.40874 0
      vertex 6.62692 6.07997 0
    endloop
  endfacet
  facet normal 0.779131 -0.626861 0
    outer loop
      vertex 6.62692 6.07997 20
      vertex 6.77109 6.25916 0
      vertex 6.77109 6.25916 20
    endloop
  endfacet
  facet normal 0.779131 -0.626861 0
    outer loop
      vertex 6.77109 6.25916 0
      vertex 6.62692 6.07997 20
      vertex 6.62692 6.07997 0
    endloop
  endfacet
  facet normal 0.888658 -0.45857 0
    outer loop
      vertex 6.77109 6.25916 20
      vertex 7.08727 6.87187 0
      vertex 7.08727 6.87187 20
    endloop
  endfacet
  facet normal 0.888658 -0.45857 0
    outer loop
      vertex 7.08727 6.87187 0
      vertex 6.77109 6.25916 20
      vertex 6.77109 6.25916 0
    endloop
  endfacet
  facet normal 0.967642 -0.252328 0
    outer loop
      vertex 7.08727 6.87187 20
      vertex 7.37721 7.98378 0
      vertex 7.37721 7.98378 20
    endloop
  endfacet
  facet normal 0.967642 -0.252328 0
    outer loop
      vertex 7.37721 7.98378 0
      vertex 7.08727 6.87187 20
      vertex 7.08727 6.87187 0
    endloop
  endfacet
  facet normal 0.999521 -0.0309407 0
    outer loop
      vertex 7.37721 7.98378 20
      vertex 7.42699 9.59171 0
      vertex 7.42699 9.59171 20
    endloop
  endfacet
  facet normal 0.999521 -0.0309407 0
    outer loop
      vertex 7.42699 9.59171 0
      vertex 7.37721 7.98378 20
      vertex 7.37721 7.98378 0
    endloop
  endfacet
  facet normal 0.981209 0.19295 0
    outer loop
      vertex 7.42699 9.59171 20
      vertex 7.02791 11.6211 0
      vertex 7.02791 11.6211 20
    endloop
  endfacet
  facet normal 0.981209 0.19295 0
    outer loop
      vertex 7.02791 11.6211 0
      vertex 7.42699 9.59171 20
      vertex 7.42699 9.59171 0
    endloop
  endfacet
  facet normal 0.499992 0.86603 -0
    outer loop
      vertex 7.02791 11.6211 0
      vertex 6.55025 11.8969 20
      vertex 7.02791 11.6211 20
    endloop
  endfacet
  facet normal 0.499992 0.86603 0
    outer loop
      vertex 6.55025 11.8969 20
      vertex 7.02791 11.6211 0
      vertex 6.55025 11.8969 0
    endloop
  endfacet
  facet normal -0.3235 0.946228 0
    outer loop
      vertex 6.55025 11.8969 0
      vertex 4.59315 11.2278 20
      vertex 6.55025 11.8969 20
    endloop
  endfacet
  facet normal -0.3235 0.946228 0
    outer loop
      vertex 4.59315 11.2278 20
      vertex 6.55025 11.8969 0
      vertex 4.59315 11.2278 0
    endloop
  endfacet
  facet normal -0.526553 0.850142 0
    outer loop
      vertex 4.59315 11.2278 0
      vertex 3.22554 10.3808 20
      vertex 4.59315 11.2278 20
    endloop
  endfacet
  facet normal -0.526553 0.850142 0
    outer loop
      vertex 3.22554 10.3808 20
      vertex 4.59315 11.2278 0
      vertex 3.22554 10.3808 0
    endloop
  endfacet
  facet normal -0.70235 0.711831 0
    outer loop
      vertex 3.22554 10.3808 0
      vertex 2.40758 9.57368 20
      vertex 3.22554 10.3808 20
    endloop
  endfacet
  facet normal -0.70235 0.711831 0
    outer loop
      vertex 2.40758 9.57368 20
      vertex 3.22554 10.3808 0
      vertex 2.40758 9.57368 0
    endloop
  endfacet
  facet normal -0.841457 0.540324 0
    outer loop
      vertex 2.03503 8.99352 0
      vertex 2.40758 9.57368 20
      vertex 2.40758 9.57368 0
    endloop
  endfacet
  facet normal -0.841457 0.540324 0
    outer loop
      vertex 2.40758 9.57368 20
      vertex 2.03503 8.99352 0
      vertex 2.03503 8.99352 20
    endloop
  endfacet
  facet normal -0.932462 0.361268 0
    outer loop
      vertex 1.95195 8.77907 0
      vertex 2.03503 8.99352 20
      vertex 2.03503 8.99352 0
    endloop
  endfacet
  facet normal -0.932462 0.361268 0
    outer loop
      vertex 2.03503 8.99352 20
      vertex 1.95195 8.77907 0
      vertex 1.95195 8.77907 20
    endloop
  endfacet
  facet normal -0.976162 0.217042 0
    outer loop
      vertex 1.41541 6.36592 0
      vertex 1.95195 8.77907 20
      vertex 1.95195 8.77907 0
    endloop
  endfacet
  facet normal -0.976162 0.217042 0
    outer loop
      vertex 1.95195 8.77907 20
      vertex 1.41541 6.36592 0
      vertex 1.41541 6.36592 20
    endloop
  endfacet
  facet normal 0 1 -0
    outer loop
      vertex 1.41541 6.36592 0
      vertex -1.41541 6.36592 20
      vertex 1.41541 6.36592 20
    endloop
  endfacet
  facet normal 0 1 0
    outer loop
      vertex -1.41541 6.36592 20
      vertex 1.41541 6.36592 0
      vertex -1.41541 6.36592 0
    endloop
  endfacet
  facet normal 0.976162 0.217042 0
    outer loop
      vertex -1.41541 6.36592 20
      vertex -1.95195 8.77907 0
      vertex -1.95195 8.77907 20
    endloop
  endfacet
  facet normal 0.976162 0.217042 0
    outer loop
      vertex -1.95195 8.77907 0
      vertex -1.41541 6.36592 20
      vertex -1.41541 6.36592 0
    endloop
  endfacet
  facet normal 0.932462 0.361268 0
    outer loop
      vertex -1.95195 8.77907 20
      vertex -2.03503 8.99352 0
      vertex -2.03503 8.99352 20
    endloop
  endfacet
  facet normal 0.932462 0.361268 0
    outer loop
      vertex -2.03503 8.99352 0
      vertex -1.95195 8.77907 20
      vertex -1.95195 8.77907 0
    endloop
  endfacet
  facet normal 0.841457 0.540324 0
    outer loop
      vertex -2.03503 8.99352 20
      vertex -2.40758 9.57368 0
      vertex -2.40758 9.57368 20
    endloop
  endfacet
  facet normal 0.841457 0.540324 0
    outer loop
      vertex -2.40758 9.57368 0
      vertex -2.03503 8.99352 20
      vertex -2.03503 8.99352 0
    endloop
  endfacet
  facet normal 0.70235 0.711831 -0
    outer loop
      vertex -2.40758 9.57368 0
      vertex -3.22554 10.3808 20
      vertex -2.40758 9.57368 20
    endloop
  endfacet
  facet normal 0.70235 0.711831 0
    outer loop
      vertex -3.22554 10.3808 20
      vertex -2.40758 9.57368 0
      vertex -3.22554 10.3808 0
    endloop
  endfacet
  facet normal 0.526553 0.850142 -0
    outer loop
      vertex -3.22554 10.3808 0
      vertex -4.59315 11.2278 20
      vertex -3.22554 10.3808 20
    endloop
  endfacet
  facet normal 0.526553 0.850142 0
    outer loop
      vertex -4.59315 11.2278 20
      vertex -3.22554 10.3808 0
      vertex -4.59315 11.2278 0
    endloop
  endfacet
  facet normal 0.3235 0.946228 -0
    outer loop
      vertex -4.59315 11.2278 0
      vertex -6.55025 11.8969 20
      vertex -4.59315 11.2278 20
    endloop
  endfacet
  facet normal 0.3235 0.946228 0
    outer loop
      vertex -6.55025 11.8969 20
      vertex -4.59315 11.2278 0
      vertex -6.55025 11.8969 0
    endloop
  endfacet
  facet normal -0.499992 0.86603 0
    outer loop
      vertex -6.55025 11.8969 0
      vertex -7.02791 11.6211 20
      vertex -6.55025 11.8969 20
    endloop
  endfacet
  facet normal -0.499992 0.86603 0
    outer loop
      vertex -7.02791 11.6211 20
      vertex -6.55025 11.8969 0
      vertex -7.02791 11.6211 0
    endloop
  endfacet
  facet normal -0.981209 0.19295 0
    outer loop
      vertex -7.42699 9.59171 0
      vertex -7.02791 11.6211 20
      vertex -7.02791 11.6211 0
    endloop
  endfacet
  facet normal -0.981209 0.19295 0
    outer loop
      vertex -7.02791 11.6211 20
      vertex -7.42699 9.59171 0
      vertex -7.42699 9.59171 20
    endloop
  endfacet
  facet normal -0.999521 -0.0309407 0
    outer loop
      vertex -7.37721 7.98378 0
      vertex -7.42699 9.59171 20
      vertex -7.42699 9.59171 0
    endloop
  endfacet
  facet normal -0.999521 -0.0309407 0
    outer loop
      vertex -7.42699 9.59171 20
      vertex -7.37721 7.98378 0
      vertex -7.37721 7.98378 20
    endloop
  endfacet
  facet normal -0.967642 -0.252328 0
    outer loop
      vertex -7.08727 6.87187 0
      vertex -7.37721 7.98378 20
      vertex -7.37721 7.98378 0
    endloop
  endfacet
  facet normal -0.967642 -0.252328 0
    outer loop
      vertex -7.37721 7.98378 20
      vertex -7.08727 6.87187 0
      vertex -7.08727 6.87187 20
    endloop
  endfacet
  facet normal -0.888658 -0.45857 0
    outer loop
      vertex -6.77109 6.25916 0
      vertex -7.08727 6.87187 20
      vertex -7.08727 6.87187 0
    endloop
  endfacet
  facet normal -0.888658 -0.45857 0
    outer loop
      vertex -7.08727 6.87187 20
      vertex -6.77109 6.25916 0
      vertex -6.77109 6.25916 20
    endloop
  endfacet
  facet normal -0.779131 -0.626861 0
    outer loop
      vertex -6.62692 6.07997 0
      vertex -6.77109 6.25916 20
      vertex -6.77109 6.25916 0
    endloop
  endfacet
  facet normal -0.779131 -0.626861 0
    outer loop
      vertex -6.77109 6.25916 20
      vertex -6.62692 6.07997 0
      vertex -6.62692 6.07997 20
    endloop
  endfacet
  facet normal -0.676044 -0.736861 0
    outer loop
      vertex -6.62692 6.07997 0
      vertex -4.80534 4.40874 20
      vertex -6.62692 6.07997 20
    endloop
  endfacet
  facet normal -0.676044 -0.736861 -0
    outer loop
      vertex -4.80534 4.40874 20
      vertex -6.62692 6.07997 0
      vertex -4.80534 4.40874 0
    endloop
  endfacet
  facet normal -0.866025 0.5 0
    outer loop
      vertex -6.22075 1.95718 0
      vertex -4.80534 4.40874 20
      vertex -4.80534 4.40874 0
    endloop
  endfacet
  facet normal -0.866025 0.5 0
    outer loop
      vertex -4.80534 4.40874 20
      vertex -6.22075 1.95718 0
      vertex -6.22075 1.95718 20
    endloop
  endfacet
  facet normal 0.300115 0.953903 -0
    outer loop
      vertex -6.22075 1.95718 0
      vertex -8.57889 2.6991 20
      vertex -6.22075 1.95718 20
    endloop
  endfacet
  facet normal 0.300115 0.953903 0
    outer loop
      vertex -8.57889 2.6991 20
      vertex -6.22075 1.95718 0
      vertex -8.57889 2.6991 0
    endloop
  endfacet
  facet normal 0.153338 0.988174 -0
    outer loop
      vertex -8.57889 2.6991 0
      vertex -8.80614 2.73436 20
      vertex -8.57889 2.6991 20
    endloop
  endfacet
  facet normal 0.153338 0.988174 0
    outer loop
      vertex -8.80614 2.73436 20
      vertex -8.57889 2.6991 0
      vertex -8.80614 2.73436 0
    endloop
  endfacet
  facet normal -0.0472045 0.998885 0
    outer loop
      vertex -8.80614 2.73436 0
      vertex -9.49486 2.70181 20
      vertex -8.80614 2.73436 20
    endloop
  endfacet
  facet normal -0.0472045 0.998885 0
    outer loop
      vertex -9.49486 2.70181 20
      vertex -8.80614 2.73436 0
      vertex -9.49486 2.70181 0
    endloop
  endfacet
  facet normal -0.26529 0.964169 0
    outer loop
      vertex -9.49486 2.70181 0
      vertex -10.6028 2.39697 20
      vertex -9.49486 2.70181 20
    endloop
  endfacet
  facet normal -0.26529 0.964169 0
    outer loop
      vertex -10.6028 2.39697 20
      vertex -9.49486 2.70181 0
      vertex -10.6028 2.39697 0
    endloop
  endfacet
  facet normal -0.472969 0.881079 0
    outer loop
      vertex -10.6028 2.39697 0
      vertex -12.0202 1.63611 20
      vertex -10.6028 2.39697 20
    endloop
  endfacet
  facet normal -0.472969 0.881079 0
    outer loop
      vertex -12.0202 1.63611 20
      vertex -10.6028 2.39697 0
      vertex -12.0202 1.63611 0
    endloop
  endfacet
  facet normal -0.657703 0.753277 0
    outer loop
      vertex -12.0202 1.63611 0
      vertex -13.5782 0.275772 20
      vertex -12.0202 1.63611 20
    endloop
  endfacet
  facet normal -0.657703 0.753277 0
    outer loop
      vertex -13.5782 0.275772 20
      vertex -12.0202 1.63611 0
      vertex -13.5782 0.275772 0
    endloop
  endfacet
  facet normal -1 0 0
    outer loop
      vertex -13.5782 -0.275757 0
      vertex -13.5782 0.275772 20
      vertex -13.5782 0.275772 0
    endloop
  endfacet
  facet normal -1 -0 0
    outer loop
      vertex -13.5782 0.275772 20
      vertex -13.5782 -0.275757 0
      vertex -13.5782 -0.275757 20
    endloop
  endfacet
  facet normal -0.657703 -0.753277 0
    outer loop
      vertex -13.5782 -0.275757 0
      vertex -12.0202 -1.63609 20
      vertex -13.5782 -0.275757 20
    endloop
  endfacet
  facet normal -0.657703 -0.753277 -0
    outer loop
      vertex -12.0202 -1.63609 20
      vertex -13.5782 -0.275757 0
      vertex -12.0202 -1.63609 0
    endloop
  endfacet
  facet normal -0.472969 -0.881079 0
    outer loop
      vertex -12.0202 -1.63609 0
      vertex -10.6028 -2.39696 20
      vertex -12.0202 -1.63609 20
    endloop
  endfacet
  facet normal -0.472969 -0.881079 -0
    outer loop
      vertex -10.6028 -2.39696 20
      vertex -12.0202 -1.63609 0
      vertex -10.6028 -2.39696 0
    endloop
  endfacet
  facet normal -0.26529 -0.964169 0
    outer loop
      vertex -10.6028 -2.39696 0
      vertex -9.49486 -2.7018 20
      vertex -10.6028 -2.39696 20
    endloop
  endfacet
  facet normal -0.26529 -0.964169 -0
    outer loop
      vertex -9.49486 -2.7018 20
      vertex -10.6028 -2.39696 0
      vertex -9.49486 -2.7018 0
    endloop
  endfacet
  facet normal -0.0472045 -0.998885 0
    outer loop
      vertex -9.49486 -2.7018 0
      vertex -8.80614 -2.73434 20
      vertex -9.49486 -2.7018 20
    endloop
  endfacet
  facet normal -0.0472045 -0.998885 -0
    outer loop
      vertex -8.80614 -2.73434 20
      vertex -9.49486 -2.7018 0
      vertex -8.80614 -2.73434 0
    endloop
  endfacet
  facet normal 0.153338 -0.988174 0
    outer loop
      vertex -8.80614 -2.73434 0
      vertex -8.57889 -2.69908 20
      vertex -8.80614 -2.73434 20
    endloop
  endfacet
  facet normal 0.153338 -0.988174 0
    outer loop
      vertex -8.57889 -2.69908 20
      vertex -8.80614 -2.73434 0
      vertex -8.57889 -2.69908 0
    endloop
  endfacet
  facet normal 0.300115 -0.953903 0
    outer loop
      vertex -8.57889 -2.69908 0
      vertex -6.22075 -1.95717 20
      vertex -8.57889 -2.69908 20
    endloop
  endfacet
  facet normal 0.300115 -0.953903 0
    outer loop
      vertex -6.22075 -1.95717 20
      vertex -8.57889 -2.69908 0
      vertex -6.22075 -1.95717 0
    endloop
  endfacet
  facet normal -0.866027 -0.499998 0
    outer loop
      vertex -4.80534 -4.40874 0
      vertex -6.22075 -1.95717 20
      vertex -6.22075 -1.95717 0
    endloop
  endfacet
  facet normal -0.866027 -0.499998 0
    outer loop
      vertex -6.22075 -1.95717 20
      vertex -4.80534 -4.40874 0
      vertex -4.80534 -4.40874 20
    endloop
  endfacet
  facet normal -0.676044 0.736861 0
    outer loop
      vertex -4.80534 -4.40874 0
      vertex -6.62692 -6.07997 20
      vertex -4.80534 -4.40874 20
    endloop
  endfacet
  facet normal -0.676044 0.736861 0
    outer loop
      vertex -6.62692 -6.07997 20
      vertex -4.80534 -4.40874 0
      vertex -6.62692 -6.07997 0
    endloop
  endfacet
  facet normal -0.779131 0.626861 0
    outer loop
      vertex -6.77109 -6.25916 0
      vertex -6.62692 -6.07997 20
      vertex -6.62692 -6.07997 0
    endloop
  endfacet
  facet normal -0.779131 0.626861 0
    outer loop
      vertex -6.62692 -6.07997 20
      vertex -6.77109 -6.25916 0
      vertex -6.77109 -6.25916 20
    endloop
  endfacet
  facet normal -0.888658 0.45857 0
    outer loop
      vertex -7.08727 -6.87187 0
      vertex -6.77109 -6.25916 20
      vertex -6.77109 -6.25916 0
    endloop
  endfacet
  facet normal -0.888658 0.45857 0
    outer loop
      vertex -6.77109 -6.25916 20
      vertex -7.08727 -6.87187 0
      vertex -7.08727 -6.87187 20
    endloop
  endfacet
  facet normal -0.967642 0.252328 0
    outer loop
      vertex -7.37721 -7.98378 0
      vertex -7.08727 -6.87187 20
      vertex -7.08727 -6.87187 0
    endloop
  endfacet
  facet normal -0.967642 0.252328 0
    outer loop
      vertex -7.08727 -6.87187 20
      vertex -7.37721 -7.98378 0
      vertex -7.37721 -7.98378 20
    endloop
  endfacet
  facet normal -0.999521 0.0309407 0
    outer loop
      vertex -7.42699 -9.59171 0
      vertex -7.37721 -7.98378 20
      vertex -7.37721 -7.98378 0
    endloop
  endfacet
  facet normal -0.999521 0.0309407 0
    outer loop
      vertex -7.37721 -7.98378 20
      vertex -7.42699 -9.59171 0
      vertex -7.42699 -9.59171 20
    endloop
  endfacet
  facet normal -0.981209 -0.19295 0
    outer loop
      vertex -7.02791 -11.6211 0
      vertex -7.42699 -9.59171 20
      vertex -7.42699 -9.59171 0
    endloop
  endfacet
  facet normal -0.981209 -0.19295 0
    outer loop
      vertex -7.42699 -9.59171 20
      vertex -7.02791 -11.6211 0
      vertex -7.02791 -11.6211 20
    endloop
  endfacet
  facet normal -0.499992 -0.86603 0
    outer loop
      vertex -7.02791 -11.6211 0
      vertex -6.55025 -11.8969 20
      vertex -7.02791 -11.6211 20
    endloop
  endfacet
  facet normal -0.499992 -0.86603 -0
    outer loop
      vertex -6.55025 -11.8969 20
      vertex -7.02791 -11.6211 0
      vertex -6.55025 -11.8969 0
    endloop
  endfacet
  facet normal 0.3235 -0.946228 0
    outer loop
      vertex -6.55025 -11.8969 0
      vertex -4.59315 -11.2278 20
      vertex -6.55025 -11.8969 20
    endloop
  endfacet
  facet normal 0.3235 -0.946228 0
    outer loop
      vertex -4.59315 -11.2278 20
      vertex -6.55025 -11.8969 0
      vertex -4.59315 -11.2278 0
    endloop
  endfacet
  facet normal 0.526553 -0.850142 0
    outer loop
      vertex -4.59315 -11.2278 0
      vertex -3.22554 -10.3808 20
      vertex -4.59315 -11.2278 20
    endloop
  endfacet
  facet normal 0.526553 -0.850142 0
    outer loop
      vertex -3.22554 -10.3808 20
      vertex -4.59315 -11.2278 0
      vertex -3.22554 -10.3808 0
    endloop
  endfacet
  facet normal 0.70235 -0.711831 0
    outer loop
      vertex -3.22554 -10.3808 0
      vertex -2.40758 -9.57368 20
      vertex -3.22554 -10.3808 20
    endloop
  endfacet
  facet normal 0.70235 -0.711831 0
    outer loop
      vertex -2.40758 -9.57368 20
      vertex -3.22554 -10.3808 0
      vertex -2.40758 -9.57368 0
    endloop
  endfacet
  facet normal 0.841457 -0.540324 0
    outer loop
      vertex -2.40758 -9.57368 20
      vertex -2.03503 -8.99352 0
      vertex -2.03503 -8.99352 20
    endloop
  endfacet
  facet normal 0.841457 -0.540324 0
    outer loop
      vertex -2.03503 -8.99352 0
      vertex -2.40758 -9.57368 20
      vertex -2.40758 -9.57368 0
    endloop
  endfacet
  facet normal 0.932462 -0.361268 0
    outer loop
      vertex -2.03503 -8.99352 20
      vertex -1.95195 -8.77907 0
      vertex -1.95195 -8.77907 20
    endloop
  endfacet
  facet normal 0.932462 -0.361268 0
    outer loop
      vertex -1.95195 -8.77907 0
      vertex -2.03503 -8.99352 20
      vertex -2.03503 -8.99352 0
    endloop
  endfacet
  facet normal 0.976162 -0.217042 0
    outer loop
      vertex -1.95195 -8.77907 20
      vertex -1.41541 -6.36592 0
      vertex -1.41541 -6.36592 20
    endloop
  endfacet
  facet normal 0.976162 -0.217042 0
    outer loop
      vertex -1.41541 -6.36592 0
      vertex -1.95195 -8.77907 20
      vertex -1.95195 -8.77907 0
    endloop
  endfacet
  facet normal 0 -1 0
    outer loop
      vertex -1.41541 -6.36592 0
      vertex 1.41541 -6.36592 20
      vertex -1.41541 -6.36592 20
    endloop
  endfacet
  facet normal 0 -1 -0
    outer loop
      vertex 1.41541 -6.36592 20
      vertex -1.41541 -6.36592 0
      vertex 1.41541 -6.36592 0
    endloop
  endfacet
  facet normal -0.976162 -0.217042 0
    outer loop
      vertex 1.95195 -8.77907 0
      vertex 1.41541 -6.36592 20
      vertex 1.41541 -6.36592 0
    endloop
  endfacet
  facet normal -0.976162 -0.217042 0
    outer loop
      vertex 1.41541 -6.36592 20
      vertex 1.95195 -8.77907 0
      vertex 1.95195 -8.77907 20
    endloop
  endfacet
  facet normal -0.932462 -0.361268 0
    outer loop
      vertex 2.03503 -8.99352 0
      vertex 1.95195 -8.77907 20
      vertex 1.95195 -8.77907 0
    endloop
  endfacet
  facet normal -0.932462 -0.361268 0
    outer loop
      vertex 1.95195 -8.77907 20
      vertex 2.03503 -8.99352 0
      vertex 2.03503 -8.99352 20
    endloop
  endfacet
  facet normal -0.841457 -0.540324 0
    outer loop
      vertex 2.40758 -9.57368 0
      vertex 2.03503 -8.99352 20
      vertex 2.03503 -8.99352 0
    endloop
  endfacet
  facet normal -0.841457 -0.540324 0
    outer loop
      vertex 2.03503 -8.99352 20
      vertex 2.40758 -9.57368 0
      vertex 2.40758 -9.57368 20
    endloop
  endfacet
  facet normal -0.70235 -0.711831 0
    outer loop
      vertex 2.40758 -9.57368 0
      vertex 3.22554 -10.3808 20
      vertex 2.40758 -9.57368 20
    endloop
  endfacet
  facet normal -0.70235 -0.711831 -0
    outer loop
      vertex 3.22554 -10.3808 20
      vertex 2.40758 -9.57368 0
      vertex 3.22554 -10.3808 0
    endloop
  endfacet
  facet normal -0.526553 -0.850142 0
    outer loop
      vertex 3.22554 -10.3808 0
      vertex 4.59315 -11.2278 20
      vertex 3.22554 -10.3808 20
    endloop
  endfacet
  facet normal -0.526553 -0.850142 -0
    outer loop
      vertex 4.59315 -11.2278 20
      vertex 3.22554 -10.3808 0
      vertex 4.59315 -11.2278 0
    endloop
  endfacet
  facet normal -0.3235 -0.946228 0
    outer loop
      vertex 4.59315 -11.2278 0
      vertex 6.55025 -11.8969 20
      vertex 4.59315 -11.2278 20
    endloop
  endfacet
  facet normal -0.3235 -0.946228 -0
    outer loop
      vertex 6.55025 -11.8969 20
      vertex 4.59315 -11.2278 0
      vertex 6.55025 -11.8969 0
    endloop
  endfacet
  facet normal 0.499992 -0.86603 0
    outer loop
      vertex 6.55025 -11.8969 0
      vertex 7.02791 -11.6211 20
      vertex 6.55025 -11.8969 20
    endloop
  endfacet
  facet normal 0.499992 -0.86603 0
    outer loop
      vertex 7.02791 -11.6211 20
      vertex 6.55025 -11.8969 0
      vertex 7.02791 -11.6211 0
    endloop
  endfacet
  facet normal -0.92388 -0.382683 0
    outer loop
      vertex 2.5 0 0
      vertex 1.76777 1.76777 20
      vertex 1.76777 1.76777 0
    endloop
  endfacet
  facet normal -0.92388 -0.382683 0
    outer loop
      vertex 1.76777 1.76777 20
      vertex 2.5 0 0
      vertex 2.5 0 20
    endloop
  endfacet
  facet normal 0.92388 -0.382683 0
    outer loop
      vertex -2.5 0 20
      vertex -1.76777 1.76777 0
      vertex -1.76777 1.76777 20
    endloop
  endfacet
  facet normal 0.92388 -0.382683 0
    outer loop
      vertex -1.76777 1.76777 0
      vertex -2.5 0 20
      vertex -2.5 0 0
    endloop
  endfacet
  facet normal -0.382683 -0.92388 0
    outer loop
      vertex 0 2.5 0
      vertex 1.76777 1.76777 20
      vertex 0 2.5 20
    endloop
  endfacet
  facet normal -0.382683 -0.92388 -0
    outer loop
      vertex 1.76777 1.76777 20
      vertex 0 2.5 0
      vertex 1.76777 1.76777 0
    endloop
  endfacet
  facet normal 0.382683 -0.92388 0
    outer loop
      vertex -1.76777 1.76777 0
      vertex 0 2.5 20
      vertex -1.76777 1.76777 20
    endloop
  endfacet
  facet normal 0.382683 -0.92388 0
    outer loop
      vertex 0 2.5 20
      vertex -1.76777 1.76777 0
      vertex 0 2.5 0
    endloop
  endfacet
  facet normal -0.382683 0.92388 0
    outer loop
      vertex 1.76777 -1.76777 0
      vertex 0 -2.5 20
      vertex 1.76777 -1.76777 20
    endloop
  endfacet
  facet normal -0.382683 0.92388 0
    outer loop
      vertex 0 -2.5 20
      vertex 1.76777 -1.76777 0
      vertex 0 -2.5 0
    endloop
  endfacet
  facet normal 0.92388 0.382683 0
    outer loop
      vertex -1.76777 -1.76777 20
      vertex -2.5 0 0
      vertex -2.5 0 20
    endloop
  endfacet
  facet normal 0.92388 0.382683 0
    outer loop
      vertex -2.5 0 0
      vertex -1.76777 -1.76777 20
      vertex -1.76777 -1.76777 0
    endloop
  endfacet
  facet normal 0.382683 0.92388 -0
    outer loop
      vertex 0 -2.5 0
      vertex -1.76777 -1.76777 20
      vertex 0 -2.5 20
    endloop
  endfacet
  facet normal 0.382683 0.92388 0
    outer loop
      vertex -1.76777 -1.76777 20
      vertex 0 -2.5 0
      vertex -1.76777 -1.76777 0
    endloop
  endfacet
  facet normal -0.92388 0.382683 0
    outer loop
      vertex 1.76777 -1.76777 0
      vertex 2.5 0 20
      vertex 2.5 0 0
    endloop
  endfacet
  facet normal -0.92388 0.382683 0
    outer loop
      vertex 2.5 0 20
      vertex 1.76777 -1.76777 0
      vertex 1.76777 -1.76777 20
    endloop
  endfacet
endsolid OpenSCAD_Model
