solid OpenSCAD_Model
  facet normal 0 -0.5 0.866025
    outer loop
      vertex -3.33333 21.3856 9.2
      vertex 3.33333 20 8.4
      vertex 3.33333 21.3856 9.2
    endloop
  endfacet
  facet normal 0 -0.5 0.866025
    outer loop
      vertex 3.33333 20 8.4
      vertex -3.33333 21.3856 9.2
      vertex -3.33333 20 8.4
    endloop
  endfacet
  facet normal 0 -0.5 -0.866025
    outer loop
      vertex -3.33333 20 11.6
      vertex 3.33333 21.3856 10.8
      vertex 3.33333 20 11.6
    endloop
  endfacet
  facet normal -0 -0.5 -0.866025
    outer loop
      vertex 3.33333 21.3856 10.8
      vertex -3.33333 20 11.6
      vertex -3.33333 21.3856 10.8
    endloop
  endfacet
  facet normal 0 -1 0
    outer loop
      vertex -3.33333 21.3856 9.2
      vertex 3.33333 21.3856 10.8
      vertex -3.33333 21.3856 10.8
    endloop
  endfacet
  facet normal 0 -1 -0
    outer loop
      vertex 3.33333 21.3856 10.8
      vertex -3.33333 21.3856 9.2
      vertex 3.33333 21.3856 9.2
    endloop
  endfacet
  facet normal 0 0.5 -0.866025
    outer loop
      vertex -3.33333 18.6144 10.8
      vertex 3.33333 20 11.6
      vertex 3.33333 18.6144 10.8
    endloop
  endfacet
  facet normal 0 0.5 -0.866025
    outer loop
      vertex 3.33333 20 11.6
      vertex -3.33333 18.6144 10.8
      vertex -3.33333 20 11.6
    endloop
  endfacet
  facet normal 0 1 -0
    outer loop
      vertex 3.33333 18.6144 9.2
      vertex -3.33333 18.6144 10.8
      vertex 3.33333 18.6144 10.8
    endloop
  endfacet
  facet normal 0 1 0
    outer loop
      vertex -3.33333 18.6144 10.8
      vertex 3.33333 18.6144 9.2
      vertex -3.33333 18.6144 9.2
    endloop
  endfacet
  facet normal -0 0.5 0.866025
    outer loop
      vertex -3.33333 20 8.4
      vertex 3.33333 18.6144 9.2
      vertex 3.33333 20 8.4
    endloop
  endfacet
  facet normal 0 0.5 0.866025
    outer loop
      vertex 3.33333 18.6144 9.2
      vertex -3.33333 20 8.4
      vertex -3.33333 18.6144 9.2
    endloop
  endfacet
  facet normal 0 0 1
    outer loop
      vertex 3.33333 30 20
      vertex -3.33333 30 20
      vertex 3.33333 10 20
    endloop
  endfacet
  facet normal -0 0 1
    outer loop
      vertex 3.33333 10 20
      vertex 90 -10 20
      vertex 90 10 20
    endloop
  endfacet
  facet normal 0 0 1
    outer loop
      vertex -3.33333 10 20
      vertex 3.33333 10 20
      vertex -3.33333 30 20
    endloop
  endfacet
  facet normal -0 0 1
    outer loop
      vertex -3.33333 10 20
      vertex 90 -10 20
      vertex 3.33333 10 20
    endloop
  endfacet
  facet normal 0 0 1
    outer loop
      vertex -90 -10 20
      vertex -3.33333 10 20
      vertex -90 10 20
    endloop
  endfacet
  facet normal 0 0 1
    outer loop
      vertex -3.33333 10 20
      vertex -90 -10 20
      vertex 90 -10 20
    endloop
  endfacet
  facet normal 0 1 -0
    outer loop
      vertex 3.33333 30 0
      vertex -3.33333 30 20
      vertex 3.33333 30 20
    endloop
  endfacet
  facet normal 0 1 0
    outer loop
      vertex -3.33333 30 20
      vertex 3.33333 30 0
      vertex -3.33333 30 0
    endloop
  endfacet
  facet normal 0 0 -1
    outer loop
      vertex 90 -10 0
      vertex 3.33333 10 0
      vertex 90 10 0
    endloop
  endfacet
  facet normal 0 0 -1
    outer loop
      vertex 3.33333 10 0
      vertex -3.33333 10 0
      vertex 3.33333 30 0
    endloop
  endfacet
  facet normal 0 0 -1
    outer loop
      vertex 90 -10 0
      vertex -3.33333 10 0
      vertex 3.33333 10 0
    endloop
  endfacet
  facet normal 0 0 -1
    outer loop
      vertex -90 -10 0
      vertex -3.33333 10 0
      vertex 90 -10 0
    endloop
  endfacet
  facet normal -0 0 -1
    outer loop
      vertex -3.33333 10 0
      vertex -90 -10 0
      vertex -90 10 0
    endloop
  endfacet
  facet normal -0 0 -1
    outer loop
      vertex 3.33333 30 0
      vertex -3.33333 10 0
      vertex -3.33333 30 0
    endloop
  endfacet
  facet normal -1 0 0
    outer loop
      vertex -3.33333 30 0
      vertex -3.33333 21.3856 9.2
      vertex -3.33333 30 20
    endloop
  endfacet
  facet normal -1 0 0
    outer loop
      vertex -3.33333 30 0
      vertex -3.33333 20 8.4
      vertex -3.33333 21.3856 9.2
    endloop
  endfacet
  facet normal -1 0 0
    outer loop
      vertex -3.33333 10 0
      vertex -3.33333 20 8.4
      vertex -3.33333 30 0
    endloop
  endfacet
  facet normal -1 -0 0
    outer loop
      vertex -3.33333 18.6144 9.2
      vertex -3.33333 10 0
      vertex -3.33333 18.6144 10.8
    endloop
  endfacet
  facet normal -1 -0 0
    outer loop
      vertex -3.33333 20 8.4
      vertex -3.33333 10 0
      vertex -3.33333 18.6144 9.2
    endloop
  endfacet
  facet normal -1 0 0
    outer loop
      vertex -3.33333 21.3856 10.8
      vertex -3.33333 30 20
      vertex -3.33333 21.3856 9.2
    endloop
  endfacet
  facet normal -1 0 0
    outer loop
      vertex -3.33333 20 11.6
      vertex -3.33333 30 20
      vertex -3.33333 21.3856 10.8
    endloop
  endfacet
  facet normal -1 0 0
    outer loop
      vertex -3.33333 10 20
      vertex -3.33333 20 11.6
      vertex -3.33333 18.6144 10.8
    endloop
  endfacet
  facet normal -1 0 0
    outer loop
      vertex -3.33333 20 11.6
      vertex -3.33333 10 20
      vertex -3.33333 30 20
    endloop
  endfacet
  facet normal -1 0 0
    outer loop
      vertex -3.33333 10 20
      vertex -3.33333 18.6144 10.8
      vertex -3.33333 10 0
    endloop
  endfacet
  facet normal 0 1 -0
    outer loop
      vertex -3.33333 10 0
      vertex -90 10 20
      vertex -3.33333 10 20
    endloop
  endfacet
  facet normal 0 1 0
    outer loop
      vertex -90 10 20
      vertex -3.33333 10 0
      vertex -90 10 0
    endloop
  endfacet
  facet normal 0 1 -0
    outer loop
      vertex 90 10 0
      vertex 3.33333 10 20
      vertex 90 10 20
    endloop
  endfacet
  facet normal 0 1 0
    outer loop
      vertex 3.33333 10 20
      vertex 90 10 0
      vertex 3.33333 10 0
    endloop
  endfacet
  facet normal 1 0 0
    outer loop
      vertex 3.33333 30 20
      vertex 3.33333 21.3856 10.8
      vertex 3.33333 30 0
    endloop
  endfacet
  facet normal 1 0 0
    outer loop
      vertex 3.33333 30 20
      vertex 3.33333 20 11.6
      vertex 3.33333 21.3856 10.8
    endloop
  endfacet
  facet normal 1 -0 0
    outer loop
      vertex 3.33333 10 20
      vertex 3.33333 20 11.6
      vertex 3.33333 30 20
    endloop
  endfacet
  facet normal 1 0 0
    outer loop
      vertex 3.33333 18.6144 10.8
      vertex 3.33333 10 20
      vertex 3.33333 18.6144 9.2
    endloop
  endfacet
  facet normal 1 0 0
    outer loop
      vertex 3.33333 20 11.6
      vertex 3.33333 10 20
      vertex 3.33333 18.6144 10.8
    endloop
  endfacet
  facet normal 1 -0 0
    outer loop
      vertex 3.33333 21.3856 9.2
      vertex 3.33333 30 0
      vertex 3.33333 21.3856 10.8
    endloop
  endfacet
  facet normal 1 -0 0
    outer loop
      vertex 3.33333 20 8.4
      vertex 3.33333 30 0
      vertex 3.33333 21.3856 9.2
    endloop
  endfacet
  facet normal 1 0 0
    outer loop
      vertex 3.33333 10 0
      vertex 3.33333 20 8.4
      vertex 3.33333 18.6144 9.2
    endloop
  endfacet
  facet normal 1 0 0
    outer loop
      vertex 3.33333 20 8.4
      vertex 3.33333 10 0
      vertex 3.33333 30 0
    endloop
  endfacet
  facet normal 1 0 0
    outer loop
      vertex 3.33333 10 0
      vertex 3.33333 18.6144 9.2
      vertex 3.33333 10 20
    endloop
  endfacet
  facet normal -1 0 0
    outer loop
      vertex -90 -10 0
      vertex -90 10 20
      vertex -90 10 0
    endloop
  endfacet
  facet normal -1 -0 0
    outer loop
      vertex -90 10 20
      vertex -90 -10 0
      vertex -90 -10 20
    endloop
  endfacet
  facet normal 1 -0 0
    outer loop
      vertex 90 -10 20
      vertex 90 10 0
      vertex 90 10 20
    endloop
  endfacet
  facet normal 1 0 0
    outer loop
      vertex 90 10 0
      vertex 90 -10 20
      vertex 90 -10 0
    endloop
  endfacet
  facet normal 0 -1 0
    outer loop
      vertex -90 -10 0
      vertex 90 -10 20
      vertex -90 -10 20
    endloop
  endfacet
  facet normal 0 -1 -0
    outer loop
      vertex 90 -10 20
      vertex -90 -10 0
      vertex 90 -10 0
    endloop
  endfacet
endsolid OpenSCAD_Model
