solid OpenSCAD_Model
  facet normal -0.866025 -0.5 0
    outer loop
      vertex -12.9 -15.5 -10
      vertex -13.7 -14.1144 -4
      vertex -13.7 -14.1144 -10
    endloop
  endfacet
  facet normal -0.866025 -0.5 0
    outer loop
      vertex -13.7 -14.1144 -4
      vertex -12.9 -15.5 -10
      vertex -12.9 -15.5 -4
    endloop
  endfacet
  facet normal 0.866026 -0.5 0
    outer loop
      vertex -16.1 -15.5 -4
      vertex -15.3 -14.1144 -10
      vertex -15.3 -14.1144 -4
    endloop
  endfacet
  facet normal 0.866026 -0.5 0
    outer loop
      vertex -15.3 -14.1144 -10
      vertex -16.1 -15.5 -4
      vertex -16.1 -15.5 -10
    endloop
  endfacet
  facet normal 0 -1 0
    outer loop
      vertex -15.3 -14.1144 -10
      vertex -13.7 -14.1144 -4
      vertex -15.3 -14.1144 -4
    endloop
  endfacet
  facet normal 0 -1 -0
    outer loop
      vertex -13.7 -14.1144 -4
      vertex -15.3 -14.1144 -10
      vertex -13.7 -14.1144 -10
    endloop
  endfacet
  facet normal 0 0 1
    outer loop
      vertex -12.9 -15.5 -4
      vertex -11.25 -15.5 -4
      vertex -11.7659 -13.7429 -4
    endloop
  endfacet
  facet normal 0 0 1
    outer loop
      vertex -11.25 -15.5 -4
      vertex -12.9 -15.5 -4
      vertex -11.7659 -17.2571 -4
    endloop
  endfacet
  facet normal 0 0 1
    outer loop
      vertex -13.7 -14.1144 -4
      vertex -11.7659 -13.7429 -4
      vertex -13.1499 -12.5437 -4
    endloop
  endfacet
  facet normal 0 0 1
    outer loop
      vertex -11.7659 -13.7429 -4
      vertex -13.7 -14.1144 -4
      vertex -12.9 -15.5 -4
    endloop
  endfacet
  facet normal 0 0 1
    outer loop
      vertex -14.9625 -12.2831 -4
      vertex -13.7 -14.1144 -4
      vertex -13.1499 -12.5437 -4
    endloop
  endfacet
  facet normal 0 0 1
    outer loop
      vertex -14.9625 -12.2831 -4
      vertex -15.3 -14.1144 -4
      vertex -13.7 -14.1144 -4
    endloop
  endfacet
  facet normal -0 0 1
    outer loop
      vertex -16.6283 -13.0438 -4
      vertex -15.3 -14.1144 -4
      vertex -14.9625 -12.2831 -4
    endloop
  endfacet
  facet normal 0 0 1
    outer loop
      vertex -17.6184 -14.5844 -4
      vertex -15.3 -14.1144 -4
      vertex -16.6283 -13.0438 -4
    endloop
  endfacet
  facet normal -0 0 1
    outer loop
      vertex -13.7 -16.8856 -4
      vertex -11.7659 -17.2571 -4
      vertex -12.9 -15.5 -4
    endloop
  endfacet
  facet normal 0 0 1
    outer loop
      vertex -11.7659 -17.2571 -4
      vertex -13.7 -16.8856 -4
      vertex -13.1499 -18.4563 -4
    endloop
  endfacet
  facet normal 0 0 1
    outer loop
      vertex -13.7 -16.8856 -4
      vertex -14.9625 -18.7169 -4
      vertex -13.1499 -18.4563 -4
    endloop
  endfacet
  facet normal -0 0 1
    outer loop
      vertex -15.3 -16.8856 -4
      vertex -14.9625 -18.7169 -4
      vertex -13.7 -16.8856 -4
    endloop
  endfacet
  facet normal -0 0 1
    outer loop
      vertex -17.6184 -16.4156 -4
      vertex -15.3 -16.8856 -4
      vertex -16.1 -15.5 -4
    endloop
  endfacet
  facet normal 0 0 1
    outer loop
      vertex -15.3 -16.8856 -4
      vertex -16.6283 -17.9562 -4
      vertex -14.9625 -18.7169 -4
    endloop
  endfacet
  facet normal 0 0 1
    outer loop
      vertex -15.3 -14.1144 -4
      vertex -17.6184 -14.5844 -4
      vertex -16.1 -15.5 -4
    endloop
  endfacet
  facet normal 0 0 1
    outer loop
      vertex -17.6184 -16.4156 -4
      vertex -16.1 -15.5 -4
      vertex -17.6184 -14.5844 -4
    endloop
  endfacet
  facet normal 0 0 1
    outer loop
      vertex -15.3 -16.8856 -4
      vertex -17.6184 -16.4156 -4
      vertex -16.6283 -17.9562 -4
    endloop
  endfacet
  facet normal 0.866025 0.5 0
    outer loop
      vertex -15.3 -16.8856 -4
      vertex -16.1 -15.5 -10
      vertex -16.1 -15.5 -4
    endloop
  endfacet
  facet normal 0.866025 0.5 0
    outer loop
      vertex -16.1 -15.5 -10
      vertex -15.3 -16.8856 -4
      vertex -15.3 -16.8856 -10
    endloop
  endfacet
  facet normal 0 1 -0
    outer loop
      vertex -13.7 -16.8856 -10
      vertex -15.3 -16.8856 -4
      vertex -13.7 -16.8856 -4
    endloop
  endfacet
  facet normal 0 1 0
    outer loop
      vertex -15.3 -16.8856 -4
      vertex -13.7 -16.8856 -10
      vertex -15.3 -16.8856 -10
    endloop
  endfacet
  facet normal -0.866025 0.5 0
    outer loop
      vertex -13.7 -16.8856 -10
      vertex -12.9 -15.5 -4
      vertex -12.9 -15.5 -10
    endloop
  endfacet
  facet normal -0.866025 0.5 0
    outer loop
      vertex -12.9 -15.5 -4
      vertex -13.7 -16.8856 -10
      vertex -13.7 -16.8856 -4
    endloop
  endfacet
  facet normal -0.959493 -0.281733 0
    outer loop
      vertex -11.25 -15.5 -4
      vertex -11.7659 -13.7429 0
      vertex -11.7659 -13.7429 -4
    endloop
  endfacet
  facet normal -0.959493 -0.281733 0
    outer loop
      vertex -11.7659 -13.7429 0
      vertex -11.25 -15.5 -4
      vertex -11.25 -15.5 0
    endloop
  endfacet
  facet normal 1 -0 0
    outer loop
      vertex -17.6184 -16.4156 0
      vertex -17.6184 -14.5844 -4
      vertex -17.6184 -14.5844 0
    endloop
  endfacet
  facet normal 1 0 0
    outer loop
      vertex -17.6184 -14.5844 -4
      vertex -17.6184 -16.4156 0
      vertex -17.6184 -16.4156 -4
    endloop
  endfacet
  facet normal -0.142315 -0.989821 0
    outer loop
      vertex -14.9625 -12.2831 -4
      vertex -13.1499 -12.5437 0
      vertex -14.9625 -12.2831 0
    endloop
  endfacet
  facet normal -0.142315 -0.989821 -0
    outer loop
      vertex -13.1499 -12.5437 0
      vertex -14.9625 -12.2831 -4
      vertex -13.1499 -12.5437 -4
    endloop
  endfacet
  facet normal -0.654861 -0.755749 0
    outer loop
      vertex -13.1499 -12.5437 -4
      vertex -11.7659 -13.7429 0
      vertex -13.1499 -12.5437 0
    endloop
  endfacet
  facet normal -0.654861 -0.755749 -0
    outer loop
      vertex -11.7659 -13.7429 0
      vertex -13.1499 -12.5437 -4
      vertex -11.7659 -13.7429 -4
    endloop
  endfacet
  facet normal -0.959493 0.281733 0
    outer loop
      vertex -11.7659 -17.2571 -4
      vertex -11.25 -15.5 0
      vertex -11.25 -15.5 -4
    endloop
  endfacet
  facet normal -0.959493 0.281733 0
    outer loop
      vertex -11.25 -15.5 0
      vertex -11.7659 -17.2571 -4
      vertex -11.7659 -17.2571 0
    endloop
  endfacet
  facet normal -0.654861 0.75575 0
    outer loop
      vertex -11.7659 -17.2571 -4
      vertex -13.1499 -18.4563 0
      vertex -11.7659 -17.2571 0
    endloop
  endfacet
  facet normal -0.654861 0.75575 0
    outer loop
      vertex -13.1499 -18.4563 0
      vertex -11.7659 -17.2571 -4
      vertex -13.1499 -18.4563 -4
    endloop
  endfacet
  facet normal -0.142315 0.989821 0
    outer loop
      vertex -13.1499 -18.4563 -4
      vertex -14.9625 -18.7169 0
      vertex -13.1499 -18.4563 0
    endloop
  endfacet
  facet normal -0.142315 0.989821 0
    outer loop
      vertex -14.9625 -18.7169 0
      vertex -13.1499 -18.4563 -4
      vertex -14.9625 -18.7169 -4
    endloop
  endfacet
  facet normal 0.841253 0.540641 0
    outer loop
      vertex -16.6283 -17.9562 0
      vertex -17.6184 -16.4156 -4
      vertex -17.6184 -16.4156 0
    endloop
  endfacet
  facet normal 0.841253 0.540641 0
    outer loop
      vertex -17.6184 -16.4156 -4
      vertex -16.6283 -17.9562 0
      vertex -16.6283 -17.9562 -4
    endloop
  endfacet
  facet normal 0.415415 -0.909632 0
    outer loop
      vertex -16.6283 -13.0438 -4
      vertex -14.9625 -12.2831 0
      vertex -16.6283 -13.0438 0
    endloop
  endfacet
  facet normal 0.415415 -0.909632 0
    outer loop
      vertex -14.9625 -12.2831 0
      vertex -16.6283 -13.0438 -4
      vertex -14.9625 -12.2831 -4
    endloop
  endfacet
  facet normal 0.841253 -0.540641 0
    outer loop
      vertex -17.6184 -14.5844 0
      vertex -16.6283 -13.0438 -4
      vertex -16.6283 -13.0438 0
    endloop
  endfacet
  facet normal 0.841253 -0.540641 0
    outer loop
      vertex -16.6283 -13.0438 -4
      vertex -17.6184 -14.5844 0
      vertex -17.6184 -14.5844 -4
    endloop
  endfacet
  facet normal 0.415416 0.909632 -0
    outer loop
      vertex -14.9625 -18.7169 -4
      vertex -16.6283 -17.9562 0
      vertex -14.9625 -18.7169 0
    endloop
  endfacet
  facet normal 0.415416 0.909632 0
    outer loop
      vertex -16.6283 -17.9562 0
      vertex -14.9625 -18.7169 -4
      vertex -16.6283 -17.9562 -4
    endloop
  endfacet
  facet normal -0.866026 -0.5 0
    outer loop
      vertex -43.9 -15.5 -10
      vertex -44.7 -14.1144 -4
      vertex -44.7 -14.1144 -10
    endloop
  endfacet
  facet normal -0.866026 -0.5 0
    outer loop
      vertex -44.7 -14.1144 -4
      vertex -43.9 -15.5 -10
      vertex -43.9 -15.5 -4
    endloop
  endfacet
  facet normal 0.866026 -0.5 0
    outer loop
      vertex -47.1 -15.5 -4
      vertex -46.3 -14.1144 -10
      vertex -46.3 -14.1144 -4
    endloop
  endfacet
  facet normal 0.866026 -0.5 0
    outer loop
      vertex -46.3 -14.1144 -10
      vertex -47.1 -15.5 -4
      vertex -47.1 -15.5 -10
    endloop
  endfacet
  facet normal 0 -1 0
    outer loop
      vertex -46.3 -14.1144 -10
      vertex -44.7 -14.1144 -4
      vertex -46.3 -14.1144 -4
    endloop
  endfacet
  facet normal 0 -1 -0
    outer loop
      vertex -44.7 -14.1144 -4
      vertex -46.3 -14.1144 -10
      vertex -44.7 -14.1144 -10
    endloop
  endfacet
  facet normal 0 0 1
    outer loop
      vertex -43.9 -15.5 -4
      vertex -42.25 -15.5 -4
      vertex -42.7659 -13.7429 -4
    endloop
  endfacet
  facet normal 0 0 1
    outer loop
      vertex -42.25 -15.5 -4
      vertex -43.9 -15.5 -4
      vertex -42.7659 -17.2571 -4
    endloop
  endfacet
  facet normal 0 0 1
    outer loop
      vertex -44.7 -14.1144 -4
      vertex -42.7659 -13.7429 -4
      vertex -44.1499 -12.5437 -4
    endloop
  endfacet
  facet normal 0 0 1
    outer loop
      vertex -42.7659 -13.7429 -4
      vertex -44.7 -14.1144 -4
      vertex -43.9 -15.5 -4
    endloop
  endfacet
  facet normal 0 0 1
    outer loop
      vertex -45.9625 -12.2831 -4
      vertex -44.7 -14.1144 -4
      vertex -44.1499 -12.5437 -4
    endloop
  endfacet
  facet normal 0 0 1
    outer loop
      vertex -45.9625 -12.2831 -4
      vertex -46.3 -14.1144 -4
      vertex -44.7 -14.1144 -4
    endloop
  endfacet
  facet normal -0 0 1
    outer loop
      vertex -47.6283 -13.0438 -4
      vertex -46.3 -14.1144 -4
      vertex -45.9625 -12.2831 -4
    endloop
  endfacet
  facet normal 0 0 1
    outer loop
      vertex -48.6184 -14.5844 -4
      vertex -46.3 -14.1144 -4
      vertex -47.6283 -13.0438 -4
    endloop
  endfacet
  facet normal -0 0 1
    outer loop
      vertex -44.7 -16.8856 -4
      vertex -42.7659 -17.2571 -4
      vertex -43.9 -15.5 -4
    endloop
  endfacet
  facet normal 0 0 1
    outer loop
      vertex -42.7659 -17.2571 -4
      vertex -44.7 -16.8856 -4
      vertex -44.1499 -18.4563 -4
    endloop
  endfacet
  facet normal 0 0 1
    outer loop
      vertex -44.7 -16.8856 -4
      vertex -45.9625 -18.7169 -4
      vertex -44.1499 -18.4563 -4
    endloop
  endfacet
  facet normal -0 0 1
    outer loop
      vertex -46.3 -16.8856 -4
      vertex -45.9625 -18.7169 -4
      vertex -44.7 -16.8856 -4
    endloop
  endfacet
  facet normal -0 0 1
    outer loop
      vertex -48.6184 -16.4156 -4
      vertex -46.3 -16.8856 -4
      vertex -47.1 -15.5 -4
    endloop
  endfacet
  facet normal 0 0 1
    outer loop
      vertex -46.3 -16.8856 -4
      vertex -47.6283 -17.9562 -4
      vertex -45.9625 -18.7169 -4
    endloop
  endfacet
  facet normal 0 0 1
    outer loop
      vertex -46.3 -14.1144 -4
      vertex -48.6184 -14.5844 -4
      vertex -47.1 -15.5 -4
    endloop
  endfacet
  facet normal 0 0 1
    outer loop
      vertex -48.6184 -16.4156 -4
      vertex -47.1 -15.5 -4
      vertex -48.6184 -14.5844 -4
    endloop
  endfacet
  facet normal 0 0 1
    outer loop
      vertex -46.3 -16.8856 -4
      vertex -48.6184 -16.4156 -4
      vertex -47.6283 -17.9562 -4
    endloop
  endfacet
  facet normal 0.866025 0.5 0
    outer loop
      vertex -46.3 -16.8856 -4
      vertex -47.1 -15.5 -10
      vertex -47.1 -15.5 -4
    endloop
  endfacet
  facet normal 0.866025 0.5 0
    outer loop
      vertex -47.1 -15.5 -10
      vertex -46.3 -16.8856 -4
      vertex -46.3 -16.8856 -10
    endloop
  endfacet
  facet normal 0 1 -0
    outer loop
      vertex -44.7 -16.8856 -10
      vertex -46.3 -16.8856 -4
      vertex -44.7 -16.8856 -4
    endloop
  endfacet
  facet normal 0 1 0
    outer loop
      vertex -46.3 -16.8856 -4
      vertex -44.7 -16.8856 -10
      vertex -46.3 -16.8856 -10
    endloop
  endfacet
  facet normal -0.866025 0.5 0
    outer loop
      vertex -44.7 -16.8856 -10
      vertex -43.9 -15.5 -4
      vertex -43.9 -15.5 -10
    endloop
  endfacet
  facet normal -0.866025 0.5 0
    outer loop
      vertex -43.9 -15.5 -4
      vertex -44.7 -16.8856 -10
      vertex -44.7 -16.8856 -4
    endloop
  endfacet
  facet normal -0.959493 -0.281733 0
    outer loop
      vertex -42.25 -15.5 -4
      vertex -42.7659 -13.7429 0
      vertex -42.7659 -13.7429 -4
    endloop
  endfacet
  facet normal -0.959493 -0.281733 0
    outer loop
      vertex -42.7659 -13.7429 0
      vertex -42.25 -15.5 -4
      vertex -42.25 -15.5 0
    endloop
  endfacet
  facet normal 1 -0 0
    outer loop
      vertex -48.6184 -16.4156 0
      vertex -48.6184 -14.5844 -4
      vertex -48.6184 -14.5844 0
    endloop
  endfacet
  facet normal 1 0 0
    outer loop
      vertex -48.6184 -14.5844 -4
      vertex -48.6184 -16.4156 0
      vertex -48.6184 -16.4156 -4
    endloop
  endfacet
  facet normal -0.142315 -0.989821 0
    outer loop
      vertex -45.9625 -12.2831 -4
      vertex -44.1499 -12.5437 0
      vertex -45.9625 -12.2831 0
    endloop
  endfacet
  facet normal -0.142315 -0.989821 -0
    outer loop
      vertex -44.1499 -12.5437 0
      vertex -45.9625 -12.2831 -4
      vertex -44.1499 -12.5437 -4
    endloop
  endfacet
  facet normal -0.654861 -0.75575 0
    outer loop
      vertex -44.1499 -12.5437 -4
      vertex -42.7659 -13.7429 0
      vertex -44.1499 -12.5437 0
    endloop
  endfacet
  facet normal -0.654861 -0.75575 -0
    outer loop
      vertex -42.7659 -13.7429 0
      vertex -44.1499 -12.5437 -4
      vertex -42.7659 -13.7429 -4
    endloop
  endfacet
  facet normal -0.959493 0.281733 0
    outer loop
      vertex -42.7659 -17.2571 -4
      vertex -42.25 -15.5 0
      vertex -42.25 -15.5 -4
    endloop
  endfacet
  facet normal -0.959493 0.281733 0
    outer loop
      vertex -42.25 -15.5 0
      vertex -42.7659 -17.2571 -4
      vertex -42.7659 -17.2571 0
    endloop
  endfacet
  facet normal -0.65486 0.75575 0
    outer loop
      vertex -42.7659 -17.2571 -4
      vertex -44.1499 -18.4563 0
      vertex -42.7659 -17.2571 0
    endloop
  endfacet
  facet normal -0.65486 0.75575 0
    outer loop
      vertex -44.1499 -18.4563 0
      vertex -42.7659 -17.2571 -4
      vertex -44.1499 -18.4563 -4
    endloop
  endfacet
  facet normal -0.142315 0.989821 0
    outer loop
      vertex -44.1499 -18.4563 -4
      vertex -45.9625 -18.7169 0
      vertex -44.1499 -18.4563 0
    endloop
  endfacet
  facet normal -0.142315 0.989821 0
    outer loop
      vertex -45.9625 -18.7169 0
      vertex -44.1499 -18.4563 -4
      vertex -45.9625 -18.7169 -4
    endloop
  endfacet
  facet normal 0.841253 0.540641 0
    outer loop
      vertex -47.6283 -17.9562 0
      vertex -48.6184 -16.4156 -4
      vertex -48.6184 -16.4156 0
    endloop
  endfacet
  facet normal 0.841253 0.540641 0
    outer loop
      vertex -48.6184 -16.4156 -4
      vertex -47.6283 -17.9562 0
      vertex -47.6283 -17.9562 -4
    endloop
  endfacet
  facet normal 0.415416 -0.909632 0
    outer loop
      vertex -47.6283 -13.0438 -4
      vertex -45.9625 -12.2831 0
      vertex -47.6283 -13.0438 0
    endloop
  endfacet
  facet normal 0.415416 -0.909632 0
    outer loop
      vertex -45.9625 -12.2831 0
      vertex -47.6283 -13.0438 -4
      vertex -45.9625 -12.2831 -4
    endloop
  endfacet
  facet normal 0.841253 -0.540641 0
    outer loop
      vertex -48.6184 -14.5844 0
      vertex -47.6283 -13.0438 -4
      vertex -47.6283 -13.0438 0
    endloop
  endfacet
  facet normal 0.841253 -0.540641 0
    outer loop
      vertex -47.6283 -13.0438 -4
      vertex -48.6184 -14.5844 0
      vertex -48.6184 -14.5844 -4
    endloop
  endfacet
  facet normal 0.415416 0.909632 -0
    outer loop
      vertex -45.9625 -18.7169 -4
      vertex -47.6283 -17.9562 0
      vertex -45.9625 -18.7169 0
    endloop
  endfacet
  facet normal 0.415416 0.909632 0
    outer loop
      vertex -47.6283 -17.9562 0
      vertex -45.9625 -18.7169 -4
      vertex -47.6283 -17.9562 -4
    endloop
  endfacet
  facet normal -0.866025 -0.5 0
    outer loop
      vertex -43.9 15.5 -10
      vertex -44.7 16.8856 -4
      vertex -44.7 16.8856 -10
    endloop
  endfacet
  facet normal -0.866025 -0.5 0
    outer loop
      vertex -44.7 16.8856 -4
      vertex -43.9 15.5 -10
      vertex -43.9 15.5 -4
    endloop
  endfacet
  facet normal 0.866025 -0.5 0
    outer loop
      vertex -47.1 15.5 -4
      vertex -46.3 16.8856 -10
      vertex -46.3 16.8856 -4
    endloop
  endfacet
  facet normal 0.866025 -0.5 0
    outer loop
      vertex -46.3 16.8856 -10
      vertex -47.1 15.5 -4
      vertex -47.1 15.5 -10
    endloop
  endfacet
  facet normal 0 -1 0
    outer loop
      vertex -46.3 16.8856 -10
      vertex -44.7 16.8856 -4
      vertex -46.3 16.8856 -4
    endloop
  endfacet
  facet normal 0 -1 -0
    outer loop
      vertex -44.7 16.8856 -4
      vertex -46.3 16.8856 -10
      vertex -44.7 16.8856 -10
    endloop
  endfacet
  facet normal 0 0 1
    outer loop
      vertex -43.9 15.5 -4
      vertex -42.25 15.5 -4
      vertex -42.7659 17.2571 -4
    endloop
  endfacet
  facet normal 0 0 1
    outer loop
      vertex -42.25 15.5 -4
      vertex -43.9 15.5 -4
      vertex -42.7659 13.7429 -4
    endloop
  endfacet
  facet normal 0 0 1
    outer loop
      vertex -44.7 16.8856 -4
      vertex -42.7659 17.2571 -4
      vertex -44.1499 18.4563 -4
    endloop
  endfacet
  facet normal 0 0 1
    outer loop
      vertex -42.7659 17.2571 -4
      vertex -44.7 16.8856 -4
      vertex -43.9 15.5 -4
    endloop
  endfacet
  facet normal 0 0 1
    outer loop
      vertex -45.9625 18.7169 -4
      vertex -44.7 16.8856 -4
      vertex -44.1499 18.4563 -4
    endloop
  endfacet
  facet normal 0 0 1
    outer loop
      vertex -45.9625 18.7169 -4
      vertex -46.3 16.8856 -4
      vertex -44.7 16.8856 -4
    endloop
  endfacet
  facet normal -0 0 1
    outer loop
      vertex -47.6283 17.9562 -4
      vertex -46.3 16.8856 -4
      vertex -45.9625 18.7169 -4
    endloop
  endfacet
  facet normal 0 0 1
    outer loop
      vertex -48.6184 16.4156 -4
      vertex -46.3 16.8856 -4
      vertex -47.6283 17.9562 -4
    endloop
  endfacet
  facet normal -0 0 1
    outer loop
      vertex -44.7 14.1144 -4
      vertex -42.7659 13.7429 -4
      vertex -43.9 15.5 -4
    endloop
  endfacet
  facet normal 0 0 1
    outer loop
      vertex -42.7659 13.7429 -4
      vertex -44.7 14.1144 -4
      vertex -44.1499 12.5437 -4
    endloop
  endfacet
  facet normal 0 0 1
    outer loop
      vertex -44.7 14.1144 -4
      vertex -45.9625 12.2831 -4
      vertex -44.1499 12.5437 -4
    endloop
  endfacet
  facet normal -0 0 1
    outer loop
      vertex -46.3 14.1144 -4
      vertex -45.9625 12.2831 -4
      vertex -44.7 14.1144 -4
    endloop
  endfacet
  facet normal -0 0 1
    outer loop
      vertex -48.6184 14.5844 -4
      vertex -46.3 14.1144 -4
      vertex -47.1 15.5 -4
    endloop
  endfacet
  facet normal 0 0 1
    outer loop
      vertex -46.3 14.1144 -4
      vertex -47.6283 13.0438 -4
      vertex -45.9625 12.2831 -4
    endloop
  endfacet
  facet normal 0 0 1
    outer loop
      vertex -46.3 16.8856 -4
      vertex -48.6184 16.4156 -4
      vertex -47.1 15.5 -4
    endloop
  endfacet
  facet normal 0 0 1
    outer loop
      vertex -48.6184 14.5844 -4
      vertex -47.1 15.5 -4
      vertex -48.6184 16.4156 -4
    endloop
  endfacet
  facet normal 0 0 1
    outer loop
      vertex -46.3 14.1144 -4
      vertex -48.6184 14.5844 -4
      vertex -47.6283 13.0438 -4
    endloop
  endfacet
  facet normal 0.866026 0.5 0
    outer loop
      vertex -46.3 14.1144 -4
      vertex -47.1 15.5 -10
      vertex -47.1 15.5 -4
    endloop
  endfacet
  facet normal 0.866026 0.5 0
    outer loop
      vertex -47.1 15.5 -10
      vertex -46.3 14.1144 -4
      vertex -46.3 14.1144 -10
    endloop
  endfacet
  facet normal 0 1 -0
    outer loop
      vertex -44.7 14.1144 -10
      vertex -46.3 14.1144 -4
      vertex -44.7 14.1144 -4
    endloop
  endfacet
  facet normal 0 1 0
    outer loop
      vertex -46.3 14.1144 -4
      vertex -44.7 14.1144 -10
      vertex -46.3 14.1144 -10
    endloop
  endfacet
  facet normal -0.866026 0.5 0
    outer loop
      vertex -44.7 14.1144 -10
      vertex -43.9 15.5 -4
      vertex -43.9 15.5 -10
    endloop
  endfacet
  facet normal -0.866026 0.5 0
    outer loop
      vertex -43.9 15.5 -4
      vertex -44.7 14.1144 -10
      vertex -44.7 14.1144 -4
    endloop
  endfacet
  facet normal -0.959493 -0.281733 0
    outer loop
      vertex -42.25 15.5 -4
      vertex -42.7659 17.2571 0
      vertex -42.7659 17.2571 -4
    endloop
  endfacet
  facet normal -0.959493 -0.281733 0
    outer loop
      vertex -42.7659 17.2571 0
      vertex -42.25 15.5 -4
      vertex -42.25 15.5 0
    endloop
  endfacet
  facet normal 1 -0 0
    outer loop
      vertex -48.6184 14.5844 0
      vertex -48.6184 16.4156 -4
      vertex -48.6184 16.4156 0
    endloop
  endfacet
  facet normal 1 0 0
    outer loop
      vertex -48.6184 16.4156 -4
      vertex -48.6184 14.5844 0
      vertex -48.6184 14.5844 -4
    endloop
  endfacet
  facet normal -0.142315 -0.989821 0
    outer loop
      vertex -45.9625 18.7169 -4
      vertex -44.1499 18.4563 0
      vertex -45.9625 18.7169 0
    endloop
  endfacet
  facet normal -0.142315 -0.989821 -0
    outer loop
      vertex -44.1499 18.4563 0
      vertex -45.9625 18.7169 -4
      vertex -44.1499 18.4563 -4
    endloop
  endfacet
  facet normal -0.65486 -0.75575 0
    outer loop
      vertex -44.1499 18.4563 -4
      vertex -42.7659 17.2571 0
      vertex -44.1499 18.4563 0
    endloop
  endfacet
  facet normal -0.65486 -0.75575 -0
    outer loop
      vertex -42.7659 17.2571 0
      vertex -44.1499 18.4563 -4
      vertex -42.7659 17.2571 -4
    endloop
  endfacet
  facet normal -0.959493 0.281733 0
    outer loop
      vertex -42.7659 13.7429 -4
      vertex -42.25 15.5 0
      vertex -42.25 15.5 -4
    endloop
  endfacet
  facet normal -0.959493 0.281733 0
    outer loop
      vertex -42.25 15.5 0
      vertex -42.7659 13.7429 -4
      vertex -42.7659 13.7429 0
    endloop
  endfacet
  facet normal -0.654861 0.75575 0
    outer loop
      vertex -42.7659 13.7429 -4
      vertex -44.1499 12.5437 0
      vertex -42.7659 13.7429 0
    endloop
  endfacet
  facet normal -0.654861 0.75575 0
    outer loop
      vertex -44.1499 12.5437 0
      vertex -42.7659 13.7429 -4
      vertex -44.1499 12.5437 -4
    endloop
  endfacet
  facet normal -0.142315 0.989821 0
    outer loop
      vertex -44.1499 12.5437 -4
      vertex -45.9625 12.2831 0
      vertex -44.1499 12.5437 0
    endloop
  endfacet
  facet normal -0.142315 0.989821 0
    outer loop
      vertex -45.9625 12.2831 0
      vertex -44.1499 12.5437 -4
      vertex -45.9625 12.2831 -4
    endloop
  endfacet
  facet normal 0.841253 0.540641 0
    outer loop
      vertex -47.6283 13.0438 0
      vertex -48.6184 14.5844 -4
      vertex -48.6184 14.5844 0
    endloop
  endfacet
  facet normal 0.841253 0.540641 0
    outer loop
      vertex -48.6184 14.5844 -4
      vertex -47.6283 13.0438 0
      vertex -47.6283 13.0438 -4
    endloop
  endfacet
  facet normal 0.415416 -0.909632 0
    outer loop
      vertex -47.6283 17.9562 -4
      vertex -45.9625 18.7169 0
      vertex -47.6283 17.9562 0
    endloop
  endfacet
  facet normal 0.415416 -0.909632 0
    outer loop
      vertex -45.9625 18.7169 0
      vertex -47.6283 17.9562 -4
      vertex -45.9625 18.7169 -4
    endloop
  endfacet
  facet normal 0.841253 -0.540641 0
    outer loop
      vertex -48.6184 16.4156 0
      vertex -47.6283 17.9562 -4
      vertex -47.6283 17.9562 0
    endloop
  endfacet
  facet normal 0.841253 -0.540641 0
    outer loop
      vertex -47.6283 17.9562 -4
      vertex -48.6184 16.4156 0
      vertex -48.6184 16.4156 -4
    endloop
  endfacet
  facet normal 0.415416 0.909632 -0
    outer loop
      vertex -45.9625 12.2831 -4
      vertex -47.6283 13.0438 0
      vertex -45.9625 12.2831 0
    endloop
  endfacet
  facet normal 0.415416 0.909632 0
    outer loop
      vertex -47.6283 13.0438 0
      vertex -45.9625 12.2831 -4
      vertex -47.6283 13.0438 -4
    endloop
  endfacet
  facet normal -0.866025 -0.5 0
    outer loop
      vertex -12.9 15.5 -10
      vertex -13.7 16.8856 -4
      vertex -13.7 16.8856 -10
    endloop
  endfacet
  facet normal -0.866025 -0.5 0
    outer loop
      vertex -13.7 16.8856 -4
      vertex -12.9 15.5 -10
      vertex -12.9 15.5 -4
    endloop
  endfacet
  facet normal 0.866025 -0.5 0
    outer loop
      vertex -16.1 15.5 -4
      vertex -15.3 16.8856 -10
      vertex -15.3 16.8856 -4
    endloop
  endfacet
  facet normal 0.866025 -0.5 0
    outer loop
      vertex -15.3 16.8856 -10
      vertex -16.1 15.5 -4
      vertex -16.1 15.5 -10
    endloop
  endfacet
  facet normal 0 -1 0
    outer loop
      vertex -15.3 16.8856 -10
      vertex -13.7 16.8856 -4
      vertex -15.3 16.8856 -4
    endloop
  endfacet
  facet normal 0 -1 -0
    outer loop
      vertex -13.7 16.8856 -4
      vertex -15.3 16.8856 -10
      vertex -13.7 16.8856 -10
    endloop
  endfacet
  facet normal 0 0 1
    outer loop
      vertex -12.9 15.5 -4
      vertex -11.25 15.5 -4
      vertex -11.7659 17.2571 -4
    endloop
  endfacet
  facet normal 0 0 1
    outer loop
      vertex -11.25 15.5 -4
      vertex -12.9 15.5 -4
      vertex -11.7659 13.7429 -4
    endloop
  endfacet
  facet normal 0 0 1
    outer loop
      vertex -13.7 16.8856 -4
      vertex -11.7659 17.2571 -4
      vertex -13.1499 18.4563 -4
    endloop
  endfacet
  facet normal 0 0 1
    outer loop
      vertex -11.7659 17.2571 -4
      vertex -13.7 16.8856 -4
      vertex -12.9 15.5 -4
    endloop
  endfacet
  facet normal 0 0 1
    outer loop
      vertex -14.9625 18.7169 -4
      vertex -13.7 16.8856 -4
      vertex -13.1499 18.4563 -4
    endloop
  endfacet
  facet normal 0 0 1
    outer loop
      vertex -14.9625 18.7169 -4
      vertex -15.3 16.8856 -4
      vertex -13.7 16.8856 -4
    endloop
  endfacet
  facet normal -0 0 1
    outer loop
      vertex -16.6283 17.9562 -4
      vertex -15.3 16.8856 -4
      vertex -14.9625 18.7169 -4
    endloop
  endfacet
  facet normal 0 0 1
    outer loop
      vertex -17.6184 16.4156 -4
      vertex -15.3 16.8856 -4
      vertex -16.6283 17.9562 -4
    endloop
  endfacet
  facet normal -0 0 1
    outer loop
      vertex -13.7 14.1144 -4
      vertex -11.7659 13.7429 -4
      vertex -12.9 15.5 -4
    endloop
  endfacet
  facet normal 0 0 1
    outer loop
      vertex -11.7659 13.7429 -4
      vertex -13.7 14.1144 -4
      vertex -13.1499 12.5437 -4
    endloop
  endfacet
  facet normal 0 0 1
    outer loop
      vertex -13.7 14.1144 -4
      vertex -14.9625 12.2831 -4
      vertex -13.1499 12.5437 -4
    endloop
  endfacet
  facet normal -0 0 1
    outer loop
      vertex -15.3 14.1144 -4
      vertex -14.9625 12.2831 -4
      vertex -13.7 14.1144 -4
    endloop
  endfacet
  facet normal -0 0 1
    outer loop
      vertex -17.6184 14.5844 -4
      vertex -15.3 14.1144 -4
      vertex -16.1 15.5 -4
    endloop
  endfacet
  facet normal 0 0 1
    outer loop
      vertex -15.3 14.1144 -4
      vertex -16.6283 13.0438 -4
      vertex -14.9625 12.2831 -4
    endloop
  endfacet
  facet normal 0 0 1
    outer loop
      vertex -15.3 16.8856 -4
      vertex -17.6184 16.4156 -4
      vertex -16.1 15.5 -4
    endloop
  endfacet
  facet normal 0 0 1
    outer loop
      vertex -17.6184 14.5844 -4
      vertex -16.1 15.5 -4
      vertex -17.6184 16.4156 -4
    endloop
  endfacet
  facet normal 0 0 1
    outer loop
      vertex -15.3 14.1144 -4
      vertex -17.6184 14.5844 -4
      vertex -16.6283 13.0438 -4
    endloop
  endfacet
  facet normal 0.866026 0.5 0
    outer loop
      vertex -15.3 14.1144 -4
      vertex -16.1 15.5 -10
      vertex -16.1 15.5 -4
    endloop
  endfacet
  facet normal 0.866026 0.5 0
    outer loop
      vertex -16.1 15.5 -10
      vertex -15.3 14.1144 -4
      vertex -15.3 14.1144 -10
    endloop
  endfacet
  facet normal 0 1 -0
    outer loop
      vertex -13.7 14.1144 -10
      vertex -15.3 14.1144 -4
      vertex -13.7 14.1144 -4
    endloop
  endfacet
  facet normal 0 1 0
    outer loop
      vertex -15.3 14.1144 -4
      vertex -13.7 14.1144 -10
      vertex -15.3 14.1144 -10
    endloop
  endfacet
  facet normal -0.866025 0.5 0
    outer loop
      vertex -13.7 14.1144 -10
      vertex -12.9 15.5 -4
      vertex -12.9 15.5 -10
    endloop
  endfacet
  facet normal -0.866025 0.5 0
    outer loop
      vertex -12.9 15.5 -4
      vertex -13.7 14.1144 -10
      vertex -13.7 14.1144 -4
    endloop
  endfacet
  facet normal -0.959493 -0.281733 0
    outer loop
      vertex -11.25 15.5 -4
      vertex -11.7659 17.2571 0
      vertex -11.7659 17.2571 -4
    endloop
  endfacet
  facet normal -0.959493 -0.281733 0
    outer loop
      vertex -11.7659 17.2571 0
      vertex -11.25 15.5 -4
      vertex -11.25 15.5 0
    endloop
  endfacet
  facet normal 1 -0 0
    outer loop
      vertex -17.6184 14.5844 0
      vertex -17.6184 16.4156 -4
      vertex -17.6184 16.4156 0
    endloop
  endfacet
  facet normal 1 0 0
    outer loop
      vertex -17.6184 16.4156 -4
      vertex -17.6184 14.5844 0
      vertex -17.6184 14.5844 -4
    endloop
  endfacet
  facet normal -0.142315 -0.989821 0
    outer loop
      vertex -14.9625 18.7169 -4
      vertex -13.1499 18.4563 0
      vertex -14.9625 18.7169 0
    endloop
  endfacet
  facet normal -0.142315 -0.989821 -0
    outer loop
      vertex -13.1499 18.4563 0
      vertex -14.9625 18.7169 -4
      vertex -13.1499 18.4563 -4
    endloop
  endfacet
  facet normal -0.654861 -0.75575 0
    outer loop
      vertex -13.1499 18.4563 -4
      vertex -11.7659 17.2571 0
      vertex -13.1499 18.4563 0
    endloop
  endfacet
  facet normal -0.654861 -0.75575 -0
    outer loop
      vertex -11.7659 17.2571 0
      vertex -13.1499 18.4563 -4
      vertex -11.7659 17.2571 -4
    endloop
  endfacet
  facet normal -0.959493 0.281733 0
    outer loop
      vertex -11.7659 13.7429 -4
      vertex -11.25 15.5 0
      vertex -11.25 15.5 -4
    endloop
  endfacet
  facet normal -0.959493 0.281733 0
    outer loop
      vertex -11.25 15.5 0
      vertex -11.7659 13.7429 -4
      vertex -11.7659 13.7429 0
    endloop
  endfacet
  facet normal -0.654861 0.755749 0
    outer loop
      vertex -11.7659 13.7429 -4
      vertex -13.1499 12.5437 0
      vertex -11.7659 13.7429 0
    endloop
  endfacet
  facet normal -0.654861 0.755749 0
    outer loop
      vertex -13.1499 12.5437 0
      vertex -11.7659 13.7429 -4
      vertex -13.1499 12.5437 -4
    endloop
  endfacet
  facet normal -0.142315 0.989821 0
    outer loop
      vertex -13.1499 12.5437 -4
      vertex -14.9625 12.2831 0
      vertex -13.1499 12.5437 0
    endloop
  endfacet
  facet normal -0.142315 0.989821 0
    outer loop
      vertex -14.9625 12.2831 0
      vertex -13.1499 12.5437 -4
      vertex -14.9625 12.2831 -4
    endloop
  endfacet
  facet normal 0.841253 0.540641 0
    outer loop
      vertex -16.6283 13.0438 0
      vertex -17.6184 14.5844 -4
      vertex -17.6184 14.5844 0
    endloop
  endfacet
  facet normal 0.841253 0.540641 0
    outer loop
      vertex -17.6184 14.5844 -4
      vertex -16.6283 13.0438 0
      vertex -16.6283 13.0438 -4
    endloop
  endfacet
  facet normal 0.415416 -0.909632 0
    outer loop
      vertex -16.6283 17.9562 -4
      vertex -14.9625 18.7169 0
      vertex -16.6283 17.9562 0
    endloop
  endfacet
  facet normal 0.415416 -0.909632 0
    outer loop
      vertex -14.9625 18.7169 0
      vertex -16.6283 17.9562 -4
      vertex -14.9625 18.7169 -4
    endloop
  endfacet
  facet normal 0.841253 -0.540641 0
    outer loop
      vertex -17.6184 16.4156 0
      vertex -16.6283 17.9562 -4
      vertex -16.6283 17.9562 0
    endloop
  endfacet
  facet normal 0.841253 -0.540641 0
    outer loop
      vertex -16.6283 17.9562 -4
      vertex -17.6184 16.4156 0
      vertex -17.6184 16.4156 -4
    endloop
  endfacet
  facet normal 0.415415 0.909632 -0
    outer loop
      vertex -14.9625 12.2831 -4
      vertex -16.6283 13.0438 0
      vertex -14.9625 12.2831 0
    endloop
  endfacet
  facet normal 0.415415 0.909632 0
    outer loop
      vertex -16.6283 13.0438 0
      vertex -14.9625 12.2831 -4
      vertex -16.6283 13.0438 -4
    endloop
  endfacet
  facet normal -1 0 0
    outer loop
      vertex -60 -30 -10
      vertex -60 30 0
      vertex -60 30 -10
    endloop
  endfacet
  facet normal -1 -0 0
    outer loop
      vertex -60 30 0
      vertex -60 -30 -10
      vertex -60 -30 0
    endloop
  endfacet
  facet normal 0 0 1
    outer loop
      vertex 20 30 0
      vertex 12.25 10.25 0
      vertex 20 10.25 0
    endloop
  endfacet
  facet normal 0 0 1
    outer loop
      vertex 12.25 10.25 0
      vertex 7.75 10.25 0
      vertex 12.25 5.25 0
    endloop
  endfacet
  facet normal 0 0 1
    outer loop
      vertex 20 30 0
      vertex 7.75 10.25 0
      vertex 12.25 10.25 0
    endloop
  endfacet
  facet normal -0 0 1
    outer loop
      vertex -11.7659 17.2571 0
      vertex 7.75 10.25 0
      vertex 20 30 0
    endloop
  endfacet
  facet normal 0 0 1
    outer loop
      vertex 7.75 10.25 0
      vertex -11.7659 17.2571 0
      vertex -11.25 15.5 0
    endloop
  endfacet
  facet normal 0 0 1
    outer loop
      vertex 20 30 0
      vertex -13.1499 18.4563 0
      vertex -11.7659 17.2571 0
    endloop
  endfacet
  facet normal 0 0 1
    outer loop
      vertex 20 30 0
      vertex -14.9625 18.7169 0
      vertex -13.1499 18.4563 0
    endloop
  endfacet
  facet normal 0 0 1
    outer loop
      vertex -22 13.8564 0
      vertex -17.6184 14.5844 0
      vertex -17.6184 16.4156 0
    endloop
  endfacet
  facet normal 0 0 1
    outer loop
      vertex -17.6184 14.5844 0
      vertex -19.2939 11.8903 0
      vertex -17.817 10.25 0
    endloop
  endfacet
  facet normal 0 0 1
    outer loop
      vertex -17.6184 14.5844 0
      vertex -22 13.8564 0
      vertex -19.2939 11.8903 0
    endloop
  endfacet
  facet normal 0 0 1
    outer loop
      vertex -25.0557 15.2169 0
      vertex -17.6184 16.4156 0
      vertex -16.6283 17.9562 0
    endloop
  endfacet
  facet normal 0 0 1
    outer loop
      vertex -17.6184 16.4156 0
      vertex -25.0557 15.2169 0
      vertex -22 13.8564 0
    endloop
  endfacet
  facet normal 0 0 1
    outer loop
      vertex -28.3275 15.9123 0
      vertex -16.6283 17.9562 0
      vertex -14.9625 18.7169 0
    endloop
  endfacet
  facet normal 0 0 1
    outer loop
      vertex -16.6283 17.9562 0
      vertex -28.3275 15.9123 0
      vertex -25.0557 15.2169 0
    endloop
  endfacet
  facet normal -0 0 1
    outer loop
      vertex -60 30 0
      vertex -14.9625 18.7169 0
      vertex 20 30 0
    endloop
  endfacet
  facet normal 0 0 1
    outer loop
      vertex -14.9625 18.7169 0
      vertex -60 30 0
      vertex -28.3275 15.9123 0
    endloop
  endfacet
  facet normal 0 0 1
    outer loop
      vertex -28.3275 15.9123 0
      vertex -60 30 0
      vertex -31.6725 15.9123 0
    endloop
  endfacet
  facet normal 0 0 1
    outer loop
      vertex -38 13.8564 0
      vertex -42.25 15.5 0
      vertex -40.7061 11.8903 0
    endloop
  endfacet
  facet normal 0 0 1
    outer loop
      vertex -42.7659 17.2571 0
      vertex -38 13.8564 0
      vertex -34.9443 15.2169 0
    endloop
  endfacet
  facet normal -0 -0 1
    outer loop
      vertex -44.1499 18.4563 0
      vertex -31.6725 15.9123 0
      vertex -60 30 0
    endloop
  endfacet
  facet normal 0 0 1
    outer loop
      vertex -38 13.8564 0
      vertex -42.7659 17.2571 0
      vertex -42.25 15.5 0
    endloop
  endfacet
  facet normal 0 0 1
    outer loop
      vertex -34.9443 15.2169 0
      vertex -44.1499 18.4563 0
      vertex -42.7659 17.2571 0
    endloop
  endfacet
  facet normal 0 0 1
    outer loop
      vertex -31.6725 15.9123 0
      vertex -44.1499 18.4563 0
      vertex -34.9443 15.2169 0
    endloop
  endfacet
  facet normal 0 0 1
    outer loop
      vertex -60 30 0
      vertex -48.6184 14.5844 0
      vertex -48.6184 16.4156 0
    endloop
  endfacet
  facet normal 0 0 1
    outer loop
      vertex -48.6184 14.5844 0
      vertex -60 30 0
      vertex -48.6184 -14.5844 0
    endloop
  endfacet
  facet normal 0 0 1
    outer loop
      vertex -60 -30 0
      vertex -48.6184 -14.5844 0
      vertex -60 30 0
    endloop
  endfacet
  facet normal 0 0 1
    outer loop
      vertex -47.6283 17.9562 0
      vertex -60 30 0
      vertex -48.6184 16.4156 0
    endloop
  endfacet
  facet normal 0 0 1
    outer loop
      vertex -45.9625 18.7169 0
      vertex -60 30 0
      vertex -47.6283 17.9562 0
    endloop
  endfacet
  facet normal 0 0 1
    outer loop
      vertex -44.1499 18.4563 0
      vertex -60 30 0
      vertex -45.9625 18.7169 0
    endloop
  endfacet
  facet normal 0 0 1
    outer loop
      vertex 12.25 5.25 0
      vertex 7.75 10.25 0
      vertex 7.75 5.25 0
    endloop
  endfacet
  facet normal -0 0 1
    outer loop
      vertex -11.7659 13.7429 0
      vertex 7.75 10.25 0
      vertex -11.25 15.5 0
    endloop
  endfacet
  facet normal -0 0 1
    outer loop
      vertex -13.1499 12.5437 0
      vertex 7.75 10.25 0
      vertex -11.7659 13.7429 0
    endloop
  endfacet
  facet normal 0 0 1
    outer loop
      vertex -17.817 10.25 0
      vertex -13.1499 12.5437 0
      vertex -14.9625 12.2831 0
    endloop
  endfacet
  facet normal 0 0 1
    outer loop
      vertex -13.1499 12.5437 0
      vertex -17.817 10.25 0
      vertex 7.75 10.25 0
    endloop
  endfacet
  facet normal 0 0 1
    outer loop
      vertex -16.6283 13.0438 0
      vertex -17.817 10.25 0
      vertex -14.9625 12.2831 0
    endloop
  endfacet
  facet normal 0 0 1
    outer loop
      vertex -17.817 10.25 0
      vertex -16.6283 13.0438 0
      vertex -17.6184 14.5844 0
    endloop
  endfacet
  facet normal -0 0 1
    outer loop
      vertex -42.7659 13.7429 0
      vertex -40.7061 11.8903 0
      vertex -42.25 15.5 0
    endloop
  endfacet
  facet normal -0 0 1
    outer loop
      vertex -44.1499 12.5437 0
      vertex -40.7061 11.8903 0
      vertex -42.7659 13.7429 0
    endloop
  endfacet
  facet normal 0 0 1
    outer loop
      vertex -40.7061 11.8903 0
      vertex -44.1499 12.5437 0
      vertex -42.9443 9.40456 0
    endloop
  endfacet
  facet normal -0 0 1
    outer loop
      vertex -45.9625 12.2831 0
      vertex -42.9443 9.40456 0
      vertex -44.1499 12.5437 0
    endloop
  endfacet
  facet normal 0 0 1
    outer loop
      vertex -42.9443 9.40456 0
      vertex -45.9625 12.2831 0
      vertex -44.6167 6.50779 0
    endloop
  endfacet
  facet normal 0 0 1
    outer loop
      vertex -47.6283 13.0438 0
      vertex -44.6167 6.50779 0
      vertex -45.9625 12.2831 0
    endloop
  endfacet
  facet normal 0 0 1
    outer loop
      vertex -44.6167 6.50779 0
      vertex -47.6283 13.0438 0
      vertex -45.6504 3.32659 0
    endloop
  endfacet
  facet normal 0 0 1
    outer loop
      vertex -48.6184 14.5844 0
      vertex -45.6504 3.32659 0
      vertex -47.6283 13.0438 0
    endloop
  endfacet
  facet normal 0 0 1
    outer loop
      vertex 12.25 -5.25 0
      vertex 7.75 -5.25 0
      vertex 12.25 -10.25 0
    endloop
  endfacet
  facet normal -0 0 1
    outer loop
      vertex 12.25 -10.25 0
      vertex 20 -30 0
      vertex 20 -10.25 0
    endloop
  endfacet
  facet normal 0 0 1
    outer loop
      vertex 7.75 -10.25 0
      vertex 12.25 -10.25 0
      vertex 7.75 -5.25 0
    endloop
  endfacet
  facet normal 0 0 1
    outer loop
      vertex 12.25 -10.25 0
      vertex 7.75 -10.25 0
      vertex 20 -30 0
    endloop
  endfacet
  facet normal 0 0 1
    outer loop
      vertex -11.7659 -17.2571 0
      vertex 7.75 -10.25 0
      vertex -11.25 -15.5 0
    endloop
  endfacet
  facet normal 0 0 1
    outer loop
      vertex 7.75 -10.25 0
      vertex -11.7659 -17.2571 0
      vertex 20 -30 0
    endloop
  endfacet
  facet normal -0 0 1
    outer loop
      vertex -13.1499 -18.4563 0
      vertex 20 -30 0
      vertex -11.7659 -17.2571 0
    endloop
  endfacet
  facet normal -0 0 1
    outer loop
      vertex -14.9625 -18.7169 0
      vertex 20 -30 0
      vertex -13.1499 -18.4563 0
    endloop
  endfacet
  facet normal -0 0 1
    outer loop
      vertex -22 -13.8564 0
      vertex -17.6184 -14.5844 0
      vertex -19.2939 -11.8903 0
    endloop
  endfacet
  facet normal 0 0 1
    outer loop
      vertex -17.6184 -14.5844 0
      vertex -22 -13.8564 0
      vertex -17.6184 -16.4156 0
    endloop
  endfacet
  facet normal -0 0 1
    outer loop
      vertex -25.0557 -15.2169 0
      vertex -17.6184 -16.4156 0
      vertex -22 -13.8564 0
    endloop
  endfacet
  facet normal 0 0 1
    outer loop
      vertex -17.6184 -16.4156 0
      vertex -25.0557 -15.2169 0
      vertex -16.6283 -17.9562 0
    endloop
  endfacet
  facet normal -0 0 1
    outer loop
      vertex -28.3275 -15.9123 0
      vertex -16.6283 -17.9562 0
      vertex -25.0557 -15.2169 0
    endloop
  endfacet
  facet normal 0 0 1
    outer loop
      vertex -16.6283 -17.9562 0
      vertex -28.3275 -15.9123 0
      vertex -14.9625 -18.7169 0
    endloop
  endfacet
  facet normal 0 0 1
    outer loop
      vertex -60 -30 0
      vertex -14.9625 -18.7169 0
      vertex -28.3275 -15.9123 0
    endloop
  endfacet
  facet normal 0 0 1
    outer loop
      vertex -60 -30 0
      vertex -28.3275 -15.9123 0
      vertex -31.6725 -15.9123 0
    endloop
  endfacet
  facet normal 0 0 1
    outer loop
      vertex -44.1499 -18.4563 0
      vertex -31.6725 -15.9123 0
      vertex -34.9443 -15.2169 0
    endloop
  endfacet
  facet normal 0 0 1
    outer loop
      vertex -42.25 -15.5 0
      vertex -38 -13.8564 0
      vertex -40.7061 -11.8903 0
    endloop
  endfacet
  facet normal 0 0 1
    outer loop
      vertex -42.7659 -17.2571 0
      vertex -38 -13.8564 0
      vertex -42.25 -15.5 0
    endloop
  endfacet
  facet normal 0 0 1
    outer loop
      vertex -38 -13.8564 0
      vertex -42.7659 -17.2571 0
      vertex -34.9443 -15.2169 0
    endloop
  endfacet
  facet normal 0 0 1
    outer loop
      vertex -44.1499 -18.4563 0
      vertex -34.9443 -15.2169 0
      vertex -42.7659 -17.2571 0
    endloop
  endfacet
  facet normal 0 0 1
    outer loop
      vertex -31.6725 -15.9123 0
      vertex -44.1499 -18.4563 0
      vertex -60 -30 0
    endloop
  endfacet
  facet normal 0 0 1
    outer loop
      vertex -60 -30 0
      vertex -44.1499 -18.4563 0
      vertex -45.9625 -18.7169 0
    endloop
  endfacet
  facet normal 0 0 1
    outer loop
      vertex -14.9625 -18.7169 0
      vertex -60 -30 0
      vertex 20 -30 0
    endloop
  endfacet
  facet normal 0 0 1
    outer loop
      vertex -47.6283 -17.9562 0
      vertex -60 -30 0
      vertex -45.9625 -18.7169 0
    endloop
  endfacet
  facet normal 0 0 1
    outer loop
      vertex -48.6184 -16.4156 0
      vertex -60 -30 0
      vertex -47.6283 -17.9562 0
    endloop
  endfacet
  facet normal 0 0 1
    outer loop
      vertex -48.6184 -14.5844 0
      vertex -60 -30 0
      vertex -48.6184 -16.4156 0
    endloop
  endfacet
  facet normal 0 0 1
    outer loop
      vertex -40.7061 -11.8903 0
      vertex -42.7659 -13.7429 0
      vertex -42.25 -15.5 0
    endloop
  endfacet
  facet normal 0 0 1
    outer loop
      vertex -44.1499 -12.5437 0
      vertex -40.7061 -11.8903 0
      vertex -42.9443 -9.40456 0
    endloop
  endfacet
  facet normal 0 0 1
    outer loop
      vertex -40.7061 -11.8903 0
      vertex -44.1499 -12.5437 0
      vertex -42.7659 -13.7429 0
    endloop
  endfacet
  facet normal 0 0 1
    outer loop
      vertex -45.9625 -12.2831 0
      vertex -42.9443 -9.40456 0
      vertex -44.6167 -6.50779 0
    endloop
  endfacet
  facet normal 0 0 1
    outer loop
      vertex -47.6283 -13.0438 0
      vertex -44.6167 -6.50779 0
      vertex -45.6504 -3.32659 0
    endloop
  endfacet
  facet normal 0 0 1
    outer loop
      vertex -42.9443 -9.40456 0
      vertex -45.9625 -12.2831 0
      vertex -44.1499 -12.5437 0
    endloop
  endfacet
  facet normal 0 0 1
    outer loop
      vertex -48.6184 -14.5844 0
      vertex -45.6504 -3.32659 0
      vertex -46 0 0
    endloop
  endfacet
  facet normal 0 0 1
    outer loop
      vertex -45.6504 3.32659 0
      vertex -48.6184 14.5844 0
      vertex -46 0 0
    endloop
  endfacet
  facet normal 0 0 1
    outer loop
      vertex -44.6167 -6.50779 0
      vertex -47.6283 -13.0438 0
      vertex -45.9625 -12.2831 0
    endloop
  endfacet
  facet normal 0 0 1
    outer loop
      vertex -48.6184 -14.5844 0
      vertex -46 0 0
      vertex -48.6184 14.5844 0
    endloop
  endfacet
  facet normal 0 0 1
    outer loop
      vertex -45.6504 -3.32659 0
      vertex -48.6184 -14.5844 0
      vertex -47.6283 -13.0438 0
    endloop
  endfacet
  facet normal 0 0 1
    outer loop
      vertex 7.75 -10.25 0
      vertex -11.7659 -13.7429 0
      vertex -11.25 -15.5 0
    endloop
  endfacet
  facet normal 0 0 1
    outer loop
      vertex 7.75 -10.25 0
      vertex -13.1499 -12.5437 0
      vertex -11.7659 -13.7429 0
    endloop
  endfacet
  facet normal -0 0 1
    outer loop
      vertex -17.817 -10.25 0
      vertex -13.1499 -12.5437 0
      vertex 7.75 -10.25 0
    endloop
  endfacet
  facet normal 0 0 1
    outer loop
      vertex -16.6283 -13.0438 0
      vertex -19.2939 -11.8903 0
      vertex -17.6184 -14.5844 0
    endloop
  endfacet
  facet normal -0 0 1
    outer loop
      vertex -19.2939 -11.8903 0
      vertex -16.6283 -13.0438 0
      vertex -17.817 -10.25 0
    endloop
  endfacet
  facet normal 0 0 1
    outer loop
      vertex -14.9625 -12.2831 0
      vertex -17.817 -10.25 0
      vertex -16.6283 -13.0438 0
    endloop
  endfacet
  facet normal 0 0 1
    outer loop
      vertex -13.1499 -12.5437 0
      vertex -17.817 -10.25 0
      vertex -14.9625 -12.2831 0
    endloop
  endfacet
  facet normal 1 -0 0
    outer loop
      vertex 20 -30 0
      vertex 20 -10.25 -10
      vertex 20 -10.25 0
    endloop
  endfacet
  facet normal 1 0 0
    outer loop
      vertex 20 -10.25 -10
      vertex 20 -30 0
      vertex 20 -30 -10
    endloop
  endfacet
  facet normal 1 -0 0
    outer loop
      vertex 20 10.25 0
      vertex 20 30 -10
      vertex 20 30 0
    endloop
  endfacet
  facet normal 1 0 0
    outer loop
      vertex 20 30 -10
      vertex 20 10.25 0
      vertex 20 10.25 -10
    endloop
  endfacet
  facet normal 0 1 -0
    outer loop
      vertex 20 30 -10
      vertex -60 30 0
      vertex 20 30 0
    endloop
  endfacet
  facet normal 0 1 0
    outer loop
      vertex -60 30 0
      vertex 20 30 -10
      vertex -60 30 -10
    endloop
  endfacet
  facet normal 0 0 -1
    outer loop
      vertex 20 -30 -10
      vertex 10 -10.25 -10
      vertex 20 -10.25 -10
    endloop
  endfacet
  facet normal 0 0 -1
    outer loop
      vertex 10 -10.25 -10
      vertex 7.75 -10.25 -10
      vertex 10 -5.25 -10
    endloop
  endfacet
  facet normal 0 0 -1
    outer loop
      vertex 20 -30 -10
      vertex 7.75 -10.25 -10
      vertex 10 -10.25 -10
    endloop
  endfacet
  facet normal 0 0 -1
    outer loop
      vertex -13.7 -16.8856 -10
      vertex 7.75 -10.25 -10
      vertex 20 -30 -10
    endloop
  endfacet
  facet normal 0 0 -1
    outer loop
      vertex 7.75 -10.25 -10
      vertex -13.7 -16.8856 -10
      vertex -12.9 -15.5 -10
    endloop
  endfacet
  facet normal 0 0 -1
    outer loop
      vertex 20 -30 -10
      vertex -15.3 -16.8856 -10
      vertex -13.7 -16.8856 -10
    endloop
  endfacet
  facet normal 0 0 -1
    outer loop
      vertex -15.3 -14.1144 -10
      vertex -19.2939 -11.8903 -10
      vertex -17.817 -10.25 -10
    endloop
  endfacet
  facet normal 0 0 -1
    outer loop
      vertex -22 -13.8564 -10
      vertex -16.1 -15.5 -10
      vertex -15.3 -16.8856 -10
    endloop
  endfacet
  facet normal 0 0 -1
    outer loop
      vertex -16.1 -15.5 -10
      vertex -22 -13.8564 -10
      vertex -19.2939 -11.8903 -10
    endloop
  endfacet
  facet normal 0 0 -1
    outer loop
      vertex -15.3 -16.8856 -10
      vertex -25.0557 -15.2169 -10
      vertex -22 -13.8564 -10
    endloop
  endfacet
  facet normal 0 0 -1
    outer loop
      vertex -60 -30 -10
      vertex -15.3 -16.8856 -10
      vertex 20 -30 -10
    endloop
  endfacet
  facet normal 0 0 -1
    outer loop
      vertex -15.3 -16.8856 -10
      vertex -28.3275 -15.9123 -10
      vertex -25.0557 -15.2169 -10
    endloop
  endfacet
  facet normal -0 0 -1
    outer loop
      vertex -15.3 -16.8856 -10
      vertex -60 -30 -10
      vertex -28.3275 -15.9123 -10
    endloop
  endfacet
  facet normal -0 0 -1
    outer loop
      vertex -28.3275 -15.9123 -10
      vertex -60 -30 -10
      vertex -31.6725 -15.9123 -10
    endloop
  endfacet
  facet normal 0 0 -1
    outer loop
      vertex -44.7 -14.1144 -10
      vertex -40.7061 -11.8903 -10
      vertex -43.9 -15.5 -10
    endloop
  endfacet
  facet normal -0 0 -1
    outer loop
      vertex -38 -13.8564 -10
      vertex -43.9 -15.5 -10
      vertex -40.7061 -11.8903 -10
    endloop
  endfacet
  facet normal 0 0 -1
    outer loop
      vertex -44.7 -16.8856 -10
      vertex -38 -13.8564 -10
      vertex -34.9443 -15.2169 -10
    endloop
  endfacet
  facet normal 0 -0 -1
    outer loop
      vertex -44.7 -16.8856 -10
      vertex -31.6725 -15.9123 -10
      vertex -60 -30 -10
    endloop
  endfacet
  facet normal 0 0 -1
    outer loop
      vertex -38 -13.8564 -10
      vertex -44.7 -16.8856 -10
      vertex -43.9 -15.5 -10
    endloop
  endfacet
  facet normal -0 0 -1
    outer loop
      vertex -31.6725 -15.9123 -10
      vertex -44.7 -16.8856 -10
      vertex -34.9443 -15.2169 -10
    endloop
  endfacet
  facet normal 0 0 -1
    outer loop
      vertex -60 30 -10
      vertex -46 0 -10
      vertex -60 -30 -10
    endloop
  endfacet
  facet normal -0 0 -1
    outer loop
      vertex -46.3 -16.8856 -10
      vertex -60 -30 -10
      vertex -47.1 -15.5 -10
    endloop
  endfacet
  facet normal -0 0 -1
    outer loop
      vertex -44.7 -16.8856 -10
      vertex -60 -30 -10
      vertex -46.3 -16.8856 -10
    endloop
  endfacet
  facet normal -0 0 -1
    outer loop
      vertex 10 -5.25 -10
      vertex 7.75 -10.25 -10
      vertex 7.75 -5.25 -10
    endloop
  endfacet
  facet normal 0 0 -1
    outer loop
      vertex -13.7 -14.1144 -10
      vertex 7.75 -10.25 -10
      vertex -12.9 -15.5 -10
    endloop
  endfacet
  facet normal 0 0 -1
    outer loop
      vertex -17.817 -10.25 -10
      vertex -13.7 -14.1144 -10
      vertex -15.3 -14.1144 -10
    endloop
  endfacet
  facet normal 0 0 -1
    outer loop
      vertex -13.7 -14.1144 -10
      vertex -17.817 -10.25 -10
      vertex 7.75 -10.25 -10
    endloop
  endfacet
  facet normal 0 0 -1
    outer loop
      vertex -19.2939 -11.8903 -10
      vertex -15.3 -14.1144 -10
      vertex -16.1 -15.5 -10
    endloop
  endfacet
  facet normal -0 0 -1
    outer loop
      vertex -40.7061 -11.8903 -10
      vertex -44.7 -14.1144 -10
      vertex -42.9443 -9.40456 -10
    endloop
  endfacet
  facet normal 0 0 -1
    outer loop
      vertex -46.3 -14.1144 -10
      vertex -42.9443 -9.40456 -10
      vertex -44.7 -14.1144 -10
    endloop
  endfacet
  facet normal -0 0 -1
    outer loop
      vertex -42.9443 -9.40456 -10
      vertex -46.3 -14.1144 -10
      vertex -44.6167 -6.50779 -10
    endloop
  endfacet
  facet normal -0 0 -1
    outer loop
      vertex -44.6167 -6.50779 -10
      vertex -46.3 -14.1144 -10
      vertex -45.6504 -3.32659 -10
    endloop
  endfacet
  facet normal 0 0 -1
    outer loop
      vertex -47.1 -15.5 -10
      vertex -45.6504 -3.32659 -10
      vertex -46.3 -14.1144 -10
    endloop
  endfacet
  facet normal 0 0 -1
    outer loop
      vertex 10 5.25 -10
      vertex 7.75 5.25 -10
      vertex 10 10.25 -10
    endloop
  endfacet
  facet normal 0 0 -1
    outer loop
      vertex 10 10.25 -10
      vertex 20 30 -10
      vertex 20 10.25 -10
    endloop
  endfacet
  facet normal 0 0 -1
    outer loop
      vertex 7.75 10.25 -10
      vertex 10 10.25 -10
      vertex 7.75 5.25 -10
    endloop
  endfacet
  facet normal 0 0 -1
    outer loop
      vertex 7.75 10.25 -10
      vertex 20 30 -10
      vertex 10 10.25 -10
    endloop
  endfacet
  facet normal 0 0 -1
    outer loop
      vertex -13.7 16.8856 -10
      vertex 7.75 10.25 -10
      vertex -12.9 15.5 -10
    endloop
  endfacet
  facet normal 0 0 -1
    outer loop
      vertex 7.75 10.25 -10
      vertex -13.7 16.8856 -10
      vertex 20 30 -10
    endloop
  endfacet
  facet normal 0 0 -1
    outer loop
      vertex -15.3 16.8856 -10
      vertex 20 30 -10
      vertex -13.7 16.8856 -10
    endloop
  endfacet
  facet normal -0 0 -1
    outer loop
      vertex -15.3 14.1144 -10
      vertex -19.2939 11.8903 -10
      vertex -16.1 15.5 -10
    endloop
  endfacet
  facet normal 0 0 -1
    outer loop
      vertex -22 13.8564 -10
      vertex -16.1 15.5 -10
      vertex -19.2939 11.8903 -10
    endloop
  endfacet
  facet normal -0 0 -1
    outer loop
      vertex -16.1 15.5 -10
      vertex -22 13.8564 -10
      vertex -15.3 16.8856 -10
    endloop
  endfacet
  facet normal 0 0 -1
    outer loop
      vertex -25.0557 15.2169 -10
      vertex -15.3 16.8856 -10
      vertex -22 13.8564 -10
    endloop
  endfacet
  facet normal 0 0 -1
    outer loop
      vertex -28.3275 15.9123 -10
      vertex -15.3 16.8856 -10
      vertex -25.0557 15.2169 -10
    endloop
  endfacet
  facet normal 0 0 -1
    outer loop
      vertex -60 30 -10
      vertex -15.3 16.8856 -10
      vertex -28.3275 15.9123 -10
    endloop
  endfacet
  facet normal 0 0 -1
    outer loop
      vertex -60 30 -10
      vertex -28.3275 15.9123 -10
      vertex -31.6725 15.9123 -10
    endloop
  endfacet
  facet normal 0 0 -1
    outer loop
      vertex -44.7 16.8856 -10
      vertex -31.6725 15.9123 -10
      vertex -34.9443 15.2169 -10
    endloop
  endfacet
  facet normal 0 0 -1
    outer loop
      vertex -44.7 14.1144 -10
      vertex -40.7061 11.8903 -10
      vertex -42.9443 9.40456 -10
    endloop
  endfacet
  facet normal 0 0 -1
    outer loop
      vertex -43.9 15.5 -10
      vertex -38 13.8564 -10
      vertex -40.7061 11.8903 -10
    endloop
  endfacet
  facet normal 0 0 -1
    outer loop
      vertex -44.7 16.8856 -10
      vertex -38 13.8564 -10
      vertex -43.9 15.5 -10
    endloop
  endfacet
  facet normal 0 0 -1
    outer loop
      vertex -38 13.8564 -10
      vertex -44.7 16.8856 -10
      vertex -34.9443 15.2169 -10
    endloop
  endfacet
  facet normal 0 0 -1
    outer loop
      vertex -31.6725 15.9123 -10
      vertex -44.7 16.8856 -10
      vertex -60 30 -10
    endloop
  endfacet
  facet normal 0 0 -1
    outer loop
      vertex -60 30 -10
      vertex -44.7 16.8856 -10
      vertex -46.3 16.8856 -10
    endloop
  endfacet
  facet normal 0 0 -1
    outer loop
      vertex -15.3 16.8856 -10
      vertex -60 30 -10
      vertex 20 30 -10
    endloop
  endfacet
  facet normal 0 0 -1
    outer loop
      vertex -47.1 15.5 -10
      vertex -60 30 -10
      vertex -46.3 16.8856 -10
    endloop
  endfacet
  facet normal 0 0 -1
    outer loop
      vertex -46 0 -10
      vertex -60 30 -10
      vertex -47.1 15.5 -10
    endloop
  endfacet
  facet normal 0 0 -1
    outer loop
      vertex -46.3 14.1144 -10
      vertex -42.9443 9.40456 -10
      vertex -44.6167 6.50779 -10
    endloop
  endfacet
  facet normal 0 0 -1
    outer loop
      vertex -40.7061 11.8903 -10
      vertex -44.7 14.1144 -10
      vertex -43.9 15.5 -10
    endloop
  endfacet
  facet normal 0 0 -1
    outer loop
      vertex -46.3 14.1144 -10
      vertex -44.6167 6.50779 -10
      vertex -45.6504 3.32659 -10
    endloop
  endfacet
  facet normal 0 0 -1
    outer loop
      vertex -47.1 15.5 -10
      vertex -45.6504 3.32659 -10
      vertex -46 0 -10
    endloop
  endfacet
  facet normal 0 0 -1
    outer loop
      vertex -42.9443 9.40456 -10
      vertex -46.3 14.1144 -10
      vertex -44.7 14.1144 -10
    endloop
  endfacet
  facet normal 0 0 -1
    outer loop
      vertex -60 -30 -10
      vertex -45.6504 -3.32659 -10
      vertex -47.1 -15.5 -10
    endloop
  endfacet
  facet normal -0 0 -1
    outer loop
      vertex -45.6504 -3.32659 -10
      vertex -60 -30 -10
      vertex -46 0 -10
    endloop
  endfacet
  facet normal 0 0 -1
    outer loop
      vertex -45.6504 3.32659 -10
      vertex -47.1 15.5 -10
      vertex -46.3 14.1144 -10
    endloop
  endfacet
  facet normal 0 0 -1
    outer loop
      vertex 7.75 10.25 -10
      vertex -13.7 14.1144 -10
      vertex -12.9 15.5 -10
    endloop
  endfacet
  facet normal 0 0 -1
    outer loop
      vertex -17.817 10.25 -10
      vertex -13.7 14.1144 -10
      vertex 7.75 10.25 -10
    endloop
  endfacet
  facet normal 0 0 -1
    outer loop
      vertex -19.2939 11.8903 -10
      vertex -15.3 14.1144 -10
      vertex -17.817 10.25 -10
    endloop
  endfacet
  facet normal -0 0 -1
    outer loop
      vertex -13.7 14.1144 -10
      vertex -17.817 10.25 -10
      vertex -15.3 14.1144 -10
    endloop
  endfacet
  facet normal 0 -1 0
    outer loop
      vertex -60 -30 -10
      vertex 20 -30 0
      vertex -60 -30 0
    endloop
  endfacet
  facet normal 0 -1 -0
    outer loop
      vertex 20 -30 0
      vertex -60 -30 -10
      vertex 20 -30 -10
    endloop
  endfacet
  facet normal 0 1 -0
    outer loop
      vertex 20 -10.25 -10
      vertex 12.25 -10.25 0
      vertex 20 -10.25 0
    endloop
  endfacet
  facet normal 0 1 0
    outer loop
      vertex 12.25 -10.25 0
      vertex 20 -10.25 -10
      vertex 12.25 -10.25 -10
    endloop
  endfacet
  facet normal 0 0 0
    outer loop
      vertex 10 -10.25 -10
      vertex 12.25 -10.25 -10
      vertex 20 -10.25 -10
    endloop
  endfacet
  facet normal 0 1 -0
    outer loop
      vertex 7.75 -10.25 -10
      vertex -17.817 -10.25 0
      vertex 7.75 -10.25 0
    endloop
  endfacet
  facet normal 0 1 0
    outer loop
      vertex -17.817 -10.25 0
      vertex 7.75 -10.25 -10
      vertex -17.817 -10.25 -10
    endloop
  endfacet
  facet normal 0 -1 0
    outer loop
      vertex 12.25 10.25 -10
      vertex 20 10.25 0
      vertex 12.25 10.25 0
    endloop
  endfacet
  facet normal 0 -1 -0
    outer loop
      vertex 20 10.25 0
      vertex 12.25 10.25 -10
      vertex 20 10.25 -10
    endloop
  endfacet
  facet normal 0 0 0
    outer loop
      vertex 20 10.25 -10
      vertex 12.25 10.25 -10
      vertex 10 10.25 -10
    endloop
  endfacet
  facet normal 0 -1 0
    outer loop
      vertex -17.817 10.25 -10
      vertex 7.75 10.25 0
      vertex -17.817 10.25 0
    endloop
  endfacet
  facet normal 0 -1 -0
    outer loop
      vertex 7.75 10.25 0
      vertex -17.817 10.25 -10
      vertex 7.75 10.25 -10
    endloop
  endfacet
  facet normal 0.994522 -0.104529 0
    outer loop
      vertex -46 0 0
      vertex -45.6504 3.32659 -10
      vertex -45.6504 3.32659 0
    endloop
  endfacet
  facet normal 0.994522 -0.104529 0
    outer loop
      vertex -45.6504 3.32659 -10
      vertex -46 0 0
      vertex -46 0 -10
    endloop
  endfacet
  facet normal 0 -1 0
    outer loop
      vertex -31.6725 15.9123 -10
      vertex -28.3275 15.9123 0
      vertex -31.6725 15.9123 0
    endloop
  endfacet
  facet normal 0 -1 -0
    outer loop
      vertex -28.3275 15.9123 0
      vertex -31.6725 15.9123 -10
      vertex -28.3275 15.9123 -10
    endloop
  endfacet
  facet normal 0 1 -0
    outer loop
      vertex -28.3275 -15.9123 -10
      vertex -31.6725 -15.9123 0
      vertex -28.3275 -15.9123 0
    endloop
  endfacet
  facet normal 0 1 0
    outer loop
      vertex -31.6725 -15.9123 0
      vertex -28.3275 -15.9123 -10
      vertex -31.6725 -15.9123 -10
    endloop
  endfacet
  facet normal -0.743144 -0.669131 0
    outer loop
      vertex -17.817 10.25 -10
      vertex -19.2939 11.8903 0
      vertex -19.2939 11.8903 -10
    endloop
  endfacet
  facet normal -0.743144 -0.669131 0
    outer loop
      vertex -19.2939 11.8903 0
      vertex -17.817 10.25 -10
      vertex -17.817 10.25 0
    endloop
  endfacet
  facet normal 0.587785 -0.809017 0
    outer loop
      vertex -40.7061 11.8903 -10
      vertex -38 13.8564 0
      vertex -40.7061 11.8903 0
    endloop
  endfacet
  facet normal 0.587785 -0.809017 0
    outer loop
      vertex -38 13.8564 0
      vertex -40.7061 11.8903 -10
      vertex -38 13.8564 -10
    endloop
  endfacet
  facet normal 0.406736 -0.913546 0
    outer loop
      vertex -38 13.8564 -10
      vertex -34.9443 15.2169 0
      vertex -38 13.8564 0
    endloop
  endfacet
  facet normal 0.406736 -0.913546 0
    outer loop
      vertex -34.9443 15.2169 0
      vertex -38 13.8564 -10
      vertex -34.9443 15.2169 -10
    endloop
  endfacet
  facet normal -0.406736 -0.913546 0
    outer loop
      vertex -25.0557 15.2169 -10
      vertex -22 13.8564 0
      vertex -25.0557 15.2169 0
    endloop
  endfacet
  facet normal -0.406736 -0.913546 -0
    outer loop
      vertex -22 13.8564 0
      vertex -25.0557 15.2169 -10
      vertex -22 13.8564 -10
    endloop
  endfacet
  facet normal -0.207912 -0.978148 0
    outer loop
      vertex -28.3275 15.9123 -10
      vertex -25.0557 15.2169 0
      vertex -28.3275 15.9123 0
    endloop
  endfacet
  facet normal -0.207912 -0.978148 -0
    outer loop
      vertex -25.0557 15.2169 0
      vertex -28.3275 15.9123 -10
      vertex -25.0557 15.2169 -10
    endloop
  endfacet
  facet normal -0.587785 -0.809017 0
    outer loop
      vertex -22 13.8564 -10
      vertex -19.2939 11.8903 0
      vertex -22 13.8564 0
    endloop
  endfacet
  facet normal -0.587785 -0.809017 -0
    outer loop
      vertex -19.2939 11.8903 0
      vertex -22 13.8564 -10
      vertex -19.2939 11.8903 -10
    endloop
  endfacet
  facet normal 0.866026 -0.5 0
    outer loop
      vertex -44.6167 6.50779 0
      vertex -42.9443 9.40456 -10
      vertex -42.9443 9.40456 0
    endloop
  endfacet
  facet normal 0.866026 -0.5 0
    outer loop
      vertex -42.9443 9.40456 -10
      vertex -44.6167 6.50779 0
      vertex -44.6167 6.50779 -10
    endloop
  endfacet
  facet normal 0.743145 -0.669131 0
    outer loop
      vertex -42.9443 9.40456 0
      vertex -40.7061 11.8903 -10
      vertex -40.7061 11.8903 0
    endloop
  endfacet
  facet normal 0.743145 -0.669131 0
    outer loop
      vertex -40.7061 11.8903 -10
      vertex -42.9443 9.40456 0
      vertex -42.9443 9.40456 -10
    endloop
  endfacet
  facet normal 0.951057 -0.309017 0
    outer loop
      vertex -45.6504 3.32659 0
      vertex -44.6167 6.50779 -10
      vertex -44.6167 6.50779 0
    endloop
  endfacet
  facet normal 0.951057 -0.309017 0
    outer loop
      vertex -44.6167 6.50779 -10
      vertex -45.6504 3.32659 0
      vertex -45.6504 3.32659 -10
    endloop
  endfacet
  facet normal 0.207912 -0.978148 0
    outer loop
      vertex -34.9443 15.2169 -10
      vertex -31.6725 15.9123 0
      vertex -34.9443 15.2169 0
    endloop
  endfacet
  facet normal 0.207912 -0.978148 0
    outer loop
      vertex -31.6725 15.9123 0
      vertex -34.9443 15.2169 -10
      vertex -31.6725 15.9123 -10
    endloop
  endfacet
  facet normal -0.587785 0.809017 0
    outer loop
      vertex -19.2939 -11.8903 -10
      vertex -22 -13.8564 0
      vertex -19.2939 -11.8903 0
    endloop
  endfacet
  facet normal -0.587785 0.809017 0
    outer loop
      vertex -22 -13.8564 0
      vertex -19.2939 -11.8903 -10
      vertex -22 -13.8564 -10
    endloop
  endfacet
  facet normal -0.743144 0.669131 0
    outer loop
      vertex -19.2939 -11.8903 -10
      vertex -17.817 -10.25 0
      vertex -17.817 -10.25 -10
    endloop
  endfacet
  facet normal -0.743144 0.669131 0
    outer loop
      vertex -17.817 -10.25 0
      vertex -19.2939 -11.8903 -10
      vertex -19.2939 -11.8903 0
    endloop
  endfacet
  facet normal 0.587785 0.809017 -0
    outer loop
      vertex -38 -13.8564 -10
      vertex -40.7061 -11.8903 0
      vertex -38 -13.8564 0
    endloop
  endfacet
  facet normal 0.587785 0.809017 0
    outer loop
      vertex -40.7061 -11.8903 0
      vertex -38 -13.8564 -10
      vertex -40.7061 -11.8903 -10
    endloop
  endfacet
  facet normal 0.866026 0.5 0
    outer loop
      vertex -42.9443 -9.40456 0
      vertex -44.6167 -6.50779 -10
      vertex -44.6167 -6.50779 0
    endloop
  endfacet
  facet normal 0.866026 0.5 0
    outer loop
      vertex -44.6167 -6.50779 -10
      vertex -42.9443 -9.40456 0
      vertex -42.9443 -9.40456 -10
    endloop
  endfacet
  facet normal -0.207912 0.978148 0
    outer loop
      vertex -25.0557 -15.2169 -10
      vertex -28.3275 -15.9123 0
      vertex -25.0557 -15.2169 0
    endloop
  endfacet
  facet normal -0.207912 0.978148 0
    outer loop
      vertex -28.3275 -15.9123 0
      vertex -25.0557 -15.2169 -10
      vertex -28.3275 -15.9123 -10
    endloop
  endfacet
  facet normal 0.406736 0.913546 -0
    outer loop
      vertex -34.9443 -15.2169 -10
      vertex -38 -13.8564 0
      vertex -34.9443 -15.2169 0
    endloop
  endfacet
  facet normal 0.406736 0.913546 0
    outer loop
      vertex -38 -13.8564 0
      vertex -34.9443 -15.2169 -10
      vertex -38 -13.8564 -10
    endloop
  endfacet
  facet normal 0.743145 0.669131 0
    outer loop
      vertex -40.7061 -11.8903 0
      vertex -42.9443 -9.40456 -10
      vertex -42.9443 -9.40456 0
    endloop
  endfacet
  facet normal 0.743145 0.669131 0
    outer loop
      vertex -42.9443 -9.40456 -10
      vertex -40.7061 -11.8903 0
      vertex -40.7061 -11.8903 -10
    endloop
  endfacet
  facet normal 0.951057 0.309017 0
    outer loop
      vertex -44.6167 -6.50779 0
      vertex -45.6504 -3.32659 -10
      vertex -45.6504 -3.32659 0
    endloop
  endfacet
  facet normal 0.951057 0.309017 0
    outer loop
      vertex -45.6504 -3.32659 -10
      vertex -44.6167 -6.50779 0
      vertex -44.6167 -6.50779 -10
    endloop
  endfacet
  facet normal 0.994522 0.104529 0
    outer loop
      vertex -45.6504 -3.32659 0
      vertex -46 0 -10
      vertex -46 0 0
    endloop
  endfacet
  facet normal 0.994522 0.104529 0
    outer loop
      vertex -46 0 -10
      vertex -45.6504 -3.32659 0
      vertex -45.6504 -3.32659 -10
    endloop
  endfacet
  facet normal -0.406736 0.913546 0
    outer loop
      vertex -22 -13.8564 -10
      vertex -25.0557 -15.2169 0
      vertex -22 -13.8564 0
    endloop
  endfacet
  facet normal -0.406736 0.913546 0
    outer loop
      vertex -25.0557 -15.2169 0
      vertex -22 -13.8564 -10
      vertex -25.0557 -15.2169 -10
    endloop
  endfacet
  facet normal 0.207912 0.978148 -0
    outer loop
      vertex -31.6725 -15.9123 -10
      vertex -34.9443 -15.2169 0
      vertex -31.6725 -15.9123 0
    endloop
  endfacet
  facet normal 0.207912 0.978148 0
    outer loop
      vertex -34.9443 -15.2169 0
      vertex -31.6725 -15.9123 -10
      vertex -34.9443 -15.2169 -10
    endloop
  endfacet
  facet normal 1 -0 0
    outer loop
      vertex 12.25 5.25 0
      vertex 12.25 10.25 -10
      vertex 12.25 10.25 0
    endloop
  endfacet
  facet normal 1 0 0
    outer loop
      vertex 12.25 10.25 -10
      vertex 12.25 5.25 0
      vertex 12.25 5.25 -10
    endloop
  endfacet
  facet normal 0 0 -1
    outer loop
      vertex 10 5.25 -10
      vertex 12.25 10.25 -10
      vertex 12.25 5.25 -10
    endloop
  endfacet
  facet normal -0 0 -1
    outer loop
      vertex 12.25 10.25 -10
      vertex 10 5.25 -10
      vertex 10 10.25 -10
    endloop
  endfacet
  facet normal -1 0 0
    outer loop
      vertex 7.75 5.25 -10
      vertex 7.75 10.25 0
      vertex 7.75 10.25 -10
    endloop
  endfacet
  facet normal -1 -0 0
    outer loop
      vertex 7.75 10.25 0
      vertex 7.75 5.25 -10
      vertex 7.75 5.25 0
    endloop
  endfacet
  facet normal 0 -1 0
    outer loop
      vertex 10 5.25 -10
      vertex 7.75 5.25 0
      vertex 7.75 5.25 -10
    endloop
  endfacet
  facet normal 0 -1 0
    outer loop
      vertex 7.75 5.25 0
      vertex 10 5.25 -10
      vertex 12.25 5.25 0
    endloop
  endfacet
  facet normal 0 -1 -0
    outer loop
      vertex 12.25 5.25 0
      vertex 10 5.25 -10
      vertex 12.25 5.25 -10
    endloop
  endfacet
  facet normal 1 -0 0
    outer loop
      vertex 12.25 -10.25 0
      vertex 12.25 -5.25 -10
      vertex 12.25 -5.25 0
    endloop
  endfacet
  facet normal 1 0 0
    outer loop
      vertex 12.25 -5.25 -10
      vertex 12.25 -10.25 0
      vertex 12.25 -10.25 -10
    endloop
  endfacet
  facet normal 0 0 -1
    outer loop
      vertex 10 -10.25 -10
      vertex 12.25 -5.25 -10
      vertex 12.25 -10.25 -10
    endloop
  endfacet
  facet normal -0 0 -1
    outer loop
      vertex 12.25 -5.25 -10
      vertex 10 -10.25 -10
      vertex 10 -5.25 -10
    endloop
  endfacet
  facet normal 0 1 0
    outer loop
      vertex 10 -5.25 -10
      vertex 12.25 -5.25 0
      vertex 12.25 -5.25 -10
    endloop
  endfacet
  facet normal 0 1 0
    outer loop
      vertex 12.25 -5.25 0
      vertex 10 -5.25 -10
      vertex 7.75 -5.25 0
    endloop
  endfacet
  facet normal 0 1 0
    outer loop
      vertex 7.75 -5.25 0
      vertex 10 -5.25 -10
      vertex 7.75 -5.25 -10
    endloop
  endfacet
  facet normal -1 0 0
    outer loop
      vertex 7.75 -10.25 -10
      vertex 7.75 -5.25 0
      vertex 7.75 -5.25 -10
    endloop
  endfacet
  facet normal -1 -0 0
    outer loop
      vertex 7.75 -5.25 0
      vertex 7.75 -10.25 -10
      vertex 7.75 -10.25 0
    endloop
  endfacet
endsolid OpenSCAD_Model
