solid OpenSCAD_Model
  facet normal 0.860742 -0.509042 0
    outer loop
      vertex 21.1082 -13.3957 20
      vertex 21.9077 -12.0438 0
      vertex 21.9077 -12.0438 20
    endloop
  endfacet
  facet normal 0.860742 -0.509042 0
    outer loop
      vertex 21.9077 -12.0438 0
      vertex 21.1082 -13.3957 20
      vertex 21.1082 -13.3957 0
    endloop
  endfacet
  facet normal 0.278991 -0.960294 0
    outer loop
      vertex 6.21725 -24.2146 0
      vertex 7.72542 -23.7764 20
      vertex 6.21725 -24.2146 20
    endloop
  endfacet
  facet normal 0.278991 -0.960294 0
    outer loop
      vertex 7.72542 -23.7764 20
      vertex 6.21725 -24.2146 0
      vertex 7.72542 -23.7764 0
    endloop
  endfacet
  facet normal 0.707107 -0.707107 0
    outer loop
      vertex 17.1137 -18.2242 20
      vertex 18.2242 -17.1137 0
      vertex 18.2242 -17.1137 20
    endloop
  endfacet
  facet normal 0.707107 -0.707107 0
    outer loop
      vertex 18.2242 -17.1137 0
      vertex 17.1137 -18.2242 20
      vertex 17.1137 -18.2242 0
    endloop
  endfacet
  facet normal -0.397148 -0.917755 0
    outer loop
      vertex -10.6445 -22.6207 0
      vertex -9.20311 -23.2444 20
      vertex -10.6445 -22.6207 20
    endloop
  endfacet
  facet normal -0.397148 -0.917755 -0
    outer loop
      vertex -9.20311 -23.2444 20
      vertex -10.6445 -22.6207 0
      vertex -9.20311 -23.2444 0
    endloop
  endfacet
  facet normal -0.750112 -0.661311 0
    outer loop
      vertex -18.2242 -17.1137 0
      vertex -19.2628 -15.9356 20
      vertex -19.2628 -15.9356 0
    endloop
  endfacet
  facet normal -0.750112 -0.661311 0
    outer loop
      vertex -19.2628 -15.9356 20
      vertex -18.2242 -17.1137 0
      vertex -18.2242 -17.1137 20
    endloop
  endfacet
  facet normal -0.827081 -0.562082 0
    outer loop
      vertex -20.2254 -14.6946 0
      vertex -21.1082 -13.3957 20
      vertex -21.1082 -13.3957 0
    endloop
  endfacet
  facet normal -0.827081 -0.562082 0
    outer loop
      vertex -21.1082 -13.3957 20
      vertex -20.2254 -14.6946 0
      vertex -20.2254 -14.6946 20
    endloop
  endfacet
  facet normal 0.453991 -0.891006 0
    outer loop
      vertex 10.6445 -22.6207 0
      vertex 12.0438 -21.9077 20
      vertex 10.6445 -22.6207 20
    endloop
  endfacet
  facet normal 0.453991 -0.891006 0
    outer loop
      vertex 12.0438 -21.9077 20
      vertex 10.6445 -22.6207 0
      vertex 12.0438 -21.9077 0
    endloop
  endfacet
  facet normal 0.827081 -0.562082 0
    outer loop
      vertex 20.2254 -14.6946 20
      vertex 21.1082 -13.3957 0
      vertex 21.1082 -13.3957 20
    endloop
  endfacet
  facet normal 0.827081 -0.562082 0
    outer loop
      vertex 21.1082 -13.3957 0
      vertex 20.2254 -14.6946 20
      vertex 20.2254 -14.6946 0
    endloop
  endfacet
  facet normal -0.707107 -0.707107 0
    outer loop
      vertex -17.1137 -18.2242 0
      vertex -18.2242 -17.1137 20
      vertex -18.2242 -17.1137 0
    endloop
  endfacet
  facet normal -0.707107 -0.707107 0
    outer loop
      vertex -18.2242 -17.1137 20
      vertex -17.1137 -18.2242 0
      vertex -17.1137 -18.2242 20
    endloop
  endfacet
  facet normal -0.917755 -0.397147 0
    outer loop
      vertex -22.6207 -10.6445 0
      vertex -23.2212 -9.25685 20
      vertex -23.2212 -9.25685 0
    endloop
  endfacet
  facet normal -0.917755 -0.397147 0
    outer loop
      vertex -23.2212 -9.25685 20
      vertex -22.6207 -10.6445 0
      vertex -22.6207 -10.6445 20
    endloop
  endfacet
  facet normal 0 0 -1
    outer loop
      vertex 21.289 -10.2414 0
      vertex 22.6207 -10.6445 0
      vertex 21.9077 -12.0438 0
    endloop
  endfacet
  facet normal 0 0 -1
    outer loop
      vertex 22.6207 -10.6445 0
      vertex 21.289 -10.2414 0
      vertex 23.2212 -9.25685 0
    endloop
  endfacet
  facet normal 0 0 -1
    outer loop
      vertex 18.4062 -11.4888 0
      vertex 21.9077 -12.0438 0
      vertex 21.1082 -13.3957 0
    endloop
  endfacet
  facet normal 0 0 -1
    outer loop
      vertex 18.4062 -11.4888 0
      vertex 21.1082 -13.3957 0
      vertex 20.2254 -14.6946 0
    endloop
  endfacet
  facet normal 0 0 -1
    outer loop
      vertex 18.4062 -11.4888 0
      vertex 20.2254 -14.6946 0
      vertex 19.2628 -15.9356 0
    endloop
  endfacet
  facet normal 0 0 -1
    outer loop
      vertex 21.9077 -12.0438 0
      vertex 18.4062 -11.4888 0
      vertex 21.289 -10.2414 0
    endloop
  endfacet
  facet normal 0 0 -1
    outer loop
      vertex 15.4508 -12.5528 0
      vertex 19.2628 -15.9356 0
      vertex 18.2242 -17.1137 0
    endloop
  endfacet
  facet normal 0 0 -1
    outer loop
      vertex 15.4508 -12.5528 0
      vertex 18.2242 -17.1137 0
      vertex 17.1137 -18.2242 0
    endloop
  endfacet
  facet normal 0 0 -1
    outer loop
      vertex 12.4345 -13.4292 0
      vertex 17.1137 -18.2242 0
      vertex 15.9356 -19.2628 0
    endloop
  endfacet
  facet normal 0 0 -1
    outer loop
      vertex 19.2628 -15.9356 0
      vertex 15.4508 -12.5528 0
      vertex 18.4062 -11.4888 0
    endloop
  endfacet
  facet normal 0 0 -1
    outer loop
      vertex 12.4345 -13.4292 0
      vertex 15.9356 -19.2628 0
      vertex 14.6946 -20.2254 0
    endloop
  endfacet
  facet normal 0 0 -1
    outer loop
      vertex 12.4345 -13.4292 0
      vertex 14.6946 -20.2254 0
      vertex 13.3957 -21.1082 0
    endloop
  endfacet
  facet normal 0 0 -1
    outer loop
      vertex 17.1137 -18.2242 0
      vertex 12.4345 -13.4292 0
      vertex 15.4508 -12.5528 0
    endloop
  endfacet
  facet normal 0 0 -1
    outer loop
      vertex 9.36907 -14.1144 0
      vertex 13.3957 -21.1082 0
      vertex 12.0438 -21.9077 0
    endloop
  endfacet
  facet normal 0 0 -1
    outer loop
      vertex 9.36907 -14.1144 0
      vertex 12.0438 -21.9077 0
      vertex 10.6445 -22.6207 0
    endloop
  endfacet
  facet normal 0 0 -1
    outer loop
      vertex 13.3957 -21.1082 0
      vertex 9.36907 -14.1144 0
      vertex 12.4345 -13.4292 0
    endloop
  endfacet
  facet normal 0 0 -1
    outer loop
      vertex 6.26666 -14.6057 0
      vertex 10.6445 -22.6207 0
      vertex 9.20311 -23.2444 0
    endloop
  endfacet
  facet normal 0 0 -1
    outer loop
      vertex 6.26666 -14.6057 0
      vertex 9.20311 -23.2444 0
      vertex 7.72542 -23.7764 0
    endloop
  endfacet
  facet normal 0 0 -1
    outer loop
      vertex 10.6445 -22.6207 0
      vertex 6.26666 -14.6057 0
      vertex 9.36907 -14.1144 0
    endloop
  endfacet
  facet normal 0 0 -1
    outer loop
      vertex 6.21725 -24.2146 0
      vertex 6.26666 -14.6057 0
      vertex 7.72542 -23.7764 0
    endloop
  endfacet
  facet normal 0 0 -1
    outer loop
      vertex 3.13953 -14.9013 0
      vertex 6.21725 -24.2146 0
      vertex 4.68453 -24.5572 0
    endloop
  endfacet
  facet normal 0 0 -1
    outer loop
      vertex 6.21725 -24.2146 0
      vertex 3.13953 -14.9013 0
      vertex 6.26666 -14.6057 0
    endloop
  endfacet
  facet normal 0 0 -1
    outer loop
      vertex 3.13333 -24.8029 0
      vertex 3.13953 -14.9013 0
      vertex 4.68453 -24.5572 0
    endloop
  endfacet
  facet normal 0 0 -1
    outer loop
      vertex 1.56976 -24.9507 0
      vertex 3.13953 -14.9013 0
      vertex 3.13333 -24.8029 0
    endloop
  endfacet
  facet normal 0 0 -1
    outer loop
      vertex 0 -15 0
      vertex 1.56976 -24.9507 0
      vertex 0 -25 0
    endloop
  endfacet
  facet normal 0 0 -1
    outer loop
      vertex 1.56976 -24.9507 0
      vertex 0 -15 0
      vertex 3.13953 -14.9013 0
    endloop
  endfacet
  facet normal 0 0 -1
    outer loop
      vertex -1.56976 -24.9507 0
      vertex 0 -15 0
      vertex 0 -25 0
    endloop
  endfacet
  facet normal 0 0 -1
    outer loop
      vertex -3.13953 -14.9013 0
      vertex -1.56976 -24.9507 0
      vertex -3.13333 -24.8029 0
    endloop
  endfacet
  facet normal 0 0 -1
    outer loop
      vertex -1.56976 -24.9507 0
      vertex -3.13953 -14.9013 0
      vertex 0 -15 0
    endloop
  endfacet
  facet normal 0 0 -1
    outer loop
      vertex -4.68453 -24.5572 0
      vertex -3.13953 -14.9013 0
      vertex -3.13333 -24.8029 0
    endloop
  endfacet
  facet normal 0 0 -1
    outer loop
      vertex -6.21725 -24.2146 0
      vertex -3.13953 -14.9013 0
      vertex -4.68453 -24.5572 0
    endloop
  endfacet
  facet normal 0 0 -1
    outer loop
      vertex -6.21725 -24.2146 0
      vertex -6.26666 -14.6057 0
      vertex -3.13953 -14.9013 0
    endloop
  endfacet
  facet normal 0 0 -1
    outer loop
      vertex -7.72542 -23.7764 0
      vertex -6.26666 -14.6057 0
      vertex -6.21725 -24.2146 0
    endloop
  endfacet
  facet normal 0 0 -1
    outer loop
      vertex -9.20311 -23.2444 0
      vertex -6.26666 -14.6057 0
      vertex -7.72542 -23.7764 0
    endloop
  endfacet
  facet normal 0 0 -1
    outer loop
      vertex -10.6445 -22.6207 0
      vertex -6.26666 -14.6057 0
      vertex -9.20311 -23.2444 0
    endloop
  endfacet
  facet normal -0 0 -1
    outer loop
      vertex -6.26666 -14.6057 0
      vertex -10.6445 -22.6207 0
      vertex -9.36907 -14.1144 0
    endloop
  endfacet
  facet normal 0 0 -1
    outer loop
      vertex -12.0438 -21.9077 0
      vertex -9.36907 -14.1144 0
      vertex -10.6445 -22.6207 0
    endloop
  endfacet
  facet normal 0 0 -1
    outer loop
      vertex -13.3957 -21.1082 0
      vertex -9.36907 -14.1144 0
      vertex -12.0438 -21.9077 0
    endloop
  endfacet
  facet normal -0 0 -1
    outer loop
      vertex -9.36907 -14.1144 0
      vertex -13.3957 -21.1082 0
      vertex -12.4345 -13.4292 0
    endloop
  endfacet
  facet normal 0 0 -1
    outer loop
      vertex -14.6946 -20.2254 0
      vertex -12.4345 -13.4292 0
      vertex -13.3957 -21.1082 0
    endloop
  endfacet
  facet normal 0 0 -1
    outer loop
      vertex -15.9356 -19.2628 0
      vertex -12.4345 -13.4292 0
      vertex -14.6946 -20.2254 0
    endloop
  endfacet
  facet normal 0 0 -1
    outer loop
      vertex -17.1137 -18.2242 0
      vertex -12.4345 -13.4292 0
      vertex -15.9356 -19.2628 0
    endloop
  endfacet
  facet normal -0 0 -1
    outer loop
      vertex -12.4345 -13.4292 0
      vertex -17.1137 -18.2242 0
      vertex -15.4508 -12.5528 0
    endloop
  endfacet
  facet normal 0 0 -1
    outer loop
      vertex -18.2242 -17.1137 0
      vertex -15.4508 -12.5528 0
      vertex -17.1137 -18.2242 0
    endloop
  endfacet
  facet normal 0 0 -1
    outer loop
      vertex -19.2628 -15.9356 0
      vertex -15.4508 -12.5528 0
      vertex -18.2242 -17.1137 0
    endloop
  endfacet
  facet normal -0 0 -1
    outer loop
      vertex -15.4508 -12.5528 0
      vertex -19.2628 -15.9356 0
      vertex -18.4062 -11.4888 0
    endloop
  endfacet
  facet normal 0 0 -1
    outer loop
      vertex -20.2254 -14.6946 0
      vertex -18.4062 -11.4888 0
      vertex -19.2628 -15.9356 0
    endloop
  endfacet
  facet normal 0 0 -1
    outer loop
      vertex -21.1082 -13.3957 0
      vertex -18.4062 -11.4888 0
      vertex -20.2254 -14.6946 0
    endloop
  endfacet
  facet normal 0 0 -1
    outer loop
      vertex -21.9077 -12.0438 0
      vertex -18.4062 -11.4888 0
      vertex -21.1082 -13.3957 0
    endloop
  endfacet
  facet normal -0 0 -1
    outer loop
      vertex -18.4062 -11.4888 0
      vertex -21.9077 -12.0438 0
      vertex -21.289 -10.2414 0
    endloop
  endfacet
  facet normal 0 0 -1
    outer loop
      vertex -22.6207 -10.6445 0
      vertex -21.289 -10.2414 0
      vertex -21.9077 -12.0438 0
    endloop
  endfacet
  facet normal -0 0 -1
    outer loop
      vertex -21.289 -10.2414 0
      vertex -22.6207 -10.6445 0
      vertex -23.2212 -9.25685 0
    endloop
  endfacet
  facet normal -0 0 1
    outer loop
      vertex 21.289 -10.2414 20
      vertex 22.6207 -10.6445 20
      vertex 23.2212 -9.25685 20
    endloop
  endfacet
  facet normal 0 0 1
    outer loop
      vertex 22.6207 -10.6445 20
      vertex 21.289 -10.2414 20
      vertex 21.9077 -12.0438 20
    endloop
  endfacet
  facet normal -0 0 1
    outer loop
      vertex 18.4062 -11.4888 20
      vertex 21.9077 -12.0438 20
      vertex 21.289 -10.2414 20
    endloop
  endfacet
  facet normal 0 0 1
    outer loop
      vertex 21.9077 -12.0438 20
      vertex 18.4062 -11.4888 20
      vertex 21.1082 -13.3957 20
    endloop
  endfacet
  facet normal 0 0 1
    outer loop
      vertex 21.1082 -13.3957 20
      vertex 18.4062 -11.4888 20
      vertex 20.2254 -14.6946 20
    endloop
  endfacet
  facet normal 0 0 1
    outer loop
      vertex 20.2254 -14.6946 20
      vertex 18.4062 -11.4888 20
      vertex 19.2628 -15.9356 20
    endloop
  endfacet
  facet normal -0 0 1
    outer loop
      vertex 15.4508 -12.5528 20
      vertex 19.2628 -15.9356 20
      vertex 18.4062 -11.4888 20
    endloop
  endfacet
  facet normal 0 0 1
    outer loop
      vertex 19.2628 -15.9356 20
      vertex 15.4508 -12.5528 20
      vertex 18.2242 -17.1137 20
    endloop
  endfacet
  facet normal 0 0 1
    outer loop
      vertex 18.2242 -17.1137 20
      vertex 15.4508 -12.5528 20
      vertex 17.1137 -18.2242 20
    endloop
  endfacet
  facet normal -0 0 1
    outer loop
      vertex 12.4345 -13.4292 20
      vertex 17.1137 -18.2242 20
      vertex 15.4508 -12.5528 20
    endloop
  endfacet
  facet normal 0 0 1
    outer loop
      vertex 17.1137 -18.2242 20
      vertex 12.4345 -13.4292 20
      vertex 15.9356 -19.2628 20
    endloop
  endfacet
  facet normal 0 0 1
    outer loop
      vertex 15.9356 -19.2628 20
      vertex 12.4345 -13.4292 20
      vertex 14.6946 -20.2254 20
    endloop
  endfacet
  facet normal 0 0 1
    outer loop
      vertex 14.6946 -20.2254 20
      vertex 12.4345 -13.4292 20
      vertex 13.3957 -21.1082 20
    endloop
  endfacet
  facet normal -0 0 1
    outer loop
      vertex 9.36907 -14.1144 20
      vertex 13.3957 -21.1082 20
      vertex 12.4345 -13.4292 20
    endloop
  endfacet
  facet normal 0 0 1
    outer loop
      vertex 13.3957 -21.1082 20
      vertex 9.36907 -14.1144 20
      vertex 12.0438 -21.9077 20
    endloop
  endfacet
  facet normal 0 0 1
    outer loop
      vertex 12.0438 -21.9077 20
      vertex 9.36907 -14.1144 20
      vertex 10.6445 -22.6207 20
    endloop
  endfacet
  facet normal -0 0 1
    outer loop
      vertex 6.26666 -14.6057 20
      vertex 10.6445 -22.6207 20
      vertex 9.36907 -14.1144 20
    endloop
  endfacet
  facet normal 0 0 1
    outer loop
      vertex 10.6445 -22.6207 20
      vertex 6.26666 -14.6057 20
      vertex 9.20311 -23.2444 20
    endloop
  endfacet
  facet normal 0 0 1
    outer loop
      vertex 9.20311 -23.2444 20
      vertex 6.26666 -14.6057 20
      vertex 7.72542 -23.7764 20
    endloop
  endfacet
  facet normal 0 0 1
    outer loop
      vertex 6.26666 -14.6057 20
      vertex 6.21725 -24.2146 20
      vertex 7.72542 -23.7764 20
    endloop
  endfacet
  facet normal -0 0 1
    outer loop
      vertex 3.13953 -14.9013 20
      vertex 6.21725 -24.2146 20
      vertex 6.26666 -14.6057 20
    endloop
  endfacet
  facet normal 0 0 1
    outer loop
      vertex 6.21725 -24.2146 20
      vertex 3.13953 -14.9013 20
      vertex 4.68453 -24.5572 20
    endloop
  endfacet
  facet normal 0 0 1
    outer loop
      vertex 3.13953 -14.9013 20
      vertex 3.13333 -24.8029 20
      vertex 4.68453 -24.5572 20
    endloop
  endfacet
  facet normal 0 0 1
    outer loop
      vertex 3.13953 -14.9013 20
      vertex 1.56976 -24.9507 20
      vertex 3.13333 -24.8029 20
    endloop
  endfacet
  facet normal -0 0 1
    outer loop
      vertex 0 -15 20
      vertex 1.56976 -24.9507 20
      vertex 3.13953 -14.9013 20
    endloop
  endfacet
  facet normal 0 0 1
    outer loop
      vertex 0 -15 20
      vertex 0 -25 20
      vertex 1.56976 -24.9507 20
    endloop
  endfacet
  facet normal 0 0 1
    outer loop
      vertex 0 -15 20
      vertex -1.56976 -24.9507 20
      vertex 0 -25 20
    endloop
  endfacet
  facet normal 0 0 1
    outer loop
      vertex -3.13953 -14.9013 20
      vertex -1.56976 -24.9507 20
      vertex 0 -15 20
    endloop
  endfacet
  facet normal 0 0 1
    outer loop
      vertex -1.56976 -24.9507 20
      vertex -3.13953 -14.9013 20
      vertex -3.13333 -24.8029 20
    endloop
  endfacet
  facet normal 0 0 1
    outer loop
      vertex -3.13953 -14.9013 20
      vertex -4.68453 -24.5572 20
      vertex -3.13333 -24.8029 20
    endloop
  endfacet
  facet normal 0 0 1
    outer loop
      vertex -3.13953 -14.9013 20
      vertex -6.21725 -24.2146 20
      vertex -4.68453 -24.5572 20
    endloop
  endfacet
  facet normal 0 0 1
    outer loop
      vertex -6.26666 -14.6057 20
      vertex -6.21725 -24.2146 20
      vertex -3.13953 -14.9013 20
    endloop
  endfacet
  facet normal 0 0 1
    outer loop
      vertex -6.26666 -14.6057 20
      vertex -7.72542 -23.7764 20
      vertex -6.21725 -24.2146 20
    endloop
  endfacet
  facet normal 0 0 1
    outer loop
      vertex -6.26666 -14.6057 20
      vertex -9.20311 -23.2444 20
      vertex -7.72542 -23.7764 20
    endloop
  endfacet
  facet normal 0 0 1
    outer loop
      vertex -10.6445 -22.6207 20
      vertex -6.26666 -14.6057 20
      vertex -9.36907 -14.1144 20
    endloop
  endfacet
  facet normal 0 0 1
    outer loop
      vertex -6.26666 -14.6057 20
      vertex -10.6445 -22.6207 20
      vertex -9.20311 -23.2444 20
    endloop
  endfacet
  facet normal 0 0 1
    outer loop
      vertex -9.36907 -14.1144 20
      vertex -12.0438 -21.9077 20
      vertex -10.6445 -22.6207 20
    endloop
  endfacet
  facet normal 0 0 1
    outer loop
      vertex -13.3957 -21.1082 20
      vertex -9.36907 -14.1144 20
      vertex -12.4345 -13.4292 20
    endloop
  endfacet
  facet normal 0 0 1
    outer loop
      vertex -9.36907 -14.1144 20
      vertex -13.3957 -21.1082 20
      vertex -12.0438 -21.9077 20
    endloop
  endfacet
  facet normal 0 0 1
    outer loop
      vertex -12.4345 -13.4292 20
      vertex -14.6946 -20.2254 20
      vertex -13.3957 -21.1082 20
    endloop
  endfacet
  facet normal 0 0 1
    outer loop
      vertex -17.1137 -18.2242 20
      vertex -12.4345 -13.4292 20
      vertex -15.4508 -12.5528 20
    endloop
  endfacet
  facet normal 0 0 1
    outer loop
      vertex -12.4345 -13.4292 20
      vertex -15.9356 -19.2628 20
      vertex -14.6946 -20.2254 20
    endloop
  endfacet
  facet normal 0 0 1
    outer loop
      vertex -12.4345 -13.4292 20
      vertex -17.1137 -18.2242 20
      vertex -15.9356 -19.2628 20
    endloop
  endfacet
  facet normal 0 0 1
    outer loop
      vertex -15.4508 -12.5528 20
      vertex -18.2242 -17.1137 20
      vertex -17.1137 -18.2242 20
    endloop
  endfacet
  facet normal 0 0 1
    outer loop
      vertex -19.2628 -15.9356 20
      vertex -15.4508 -12.5528 20
      vertex -18.4062 -11.4888 20
    endloop
  endfacet
  facet normal 0 0 1
    outer loop
      vertex -15.4508 -12.5528 20
      vertex -19.2628 -15.9356 20
      vertex -18.2242 -17.1137 20
    endloop
  endfacet
  facet normal 0 0 1
    outer loop
      vertex -18.4062 -11.4888 20
      vertex -20.2254 -14.6946 20
      vertex -19.2628 -15.9356 20
    endloop
  endfacet
  facet normal 0 0 1
    outer loop
      vertex -18.4062 -11.4888 20
      vertex -21.1082 -13.3957 20
      vertex -20.2254 -14.6946 20
    endloop
  endfacet
  facet normal 0 0 1
    outer loop
      vertex -21.9077 -12.0438 20
      vertex -18.4062 -11.4888 20
      vertex -21.289 -10.2414 20
    endloop
  endfacet
  facet normal 0 0 1
    outer loop
      vertex -18.4062 -11.4888 20
      vertex -21.9077 -12.0438 20
      vertex -21.1082 -13.3957 20
    endloop
  endfacet
  facet normal 0 0 1
    outer loop
      vertex -21.289 -10.2414 20
      vertex -22.6207 -10.6445 20
      vertex -21.9077 -12.0438 20
    endloop
  endfacet
  facet normal 0 -0 1
    outer loop
      vertex -22.6207 -10.6445 20
      vertex -21.289 -10.2414 20
      vertex -23.2212 -9.25685 20
    endloop
  endfacet
  facet normal 0.0314107 -0.999507 0
    outer loop
      vertex 0 -25 15.9384
      vertex 1.56976 -24.9507 20
      vertex 0 -25 20
    endloop
  endfacet
  facet normal 0.0314116 -0.999507 -3.53003e-07
    outer loop
      vertex 1.47291 -24.9537 15.8164
      vertex 1.56976 -24.9507 20
      vertex 0 -25 15.9384
    endloop
  endfacet
  facet normal 0.0313964 -0.999507 0
    outer loop
      vertex 1.56976 -24.9507 20
      vertex 1.47291 -24.9537 15.8164
      vertex 1.56976 -24.9507 15.7739
    endloop
  endfacet
  facet normal 0.0314107 -0.999507 0
    outer loop
      vertex 1.56976 -24.9507 0
      vertex 0 -25 4.06155
      vertex 0 -25 0
    endloop
  endfacet
  facet normal 0.0314116 -0.999507 3.53003e-07
    outer loop
      vertex 0 -25 4.06155
      vertex 1.56976 -24.9507 0
      vertex 1.47291 -24.9537 4.1836
    endloop
  endfacet
  facet normal 0.0313964 -0.999507 0
    outer loop
      vertex 1.47291 -24.9537 4.1836
      vertex 1.56976 -24.9507 0
      vertex 1.56976 -24.9507 4.22608
    endloop
  endfacet
  facet normal 0.156435 -0.987688 0
    outer loop
      vertex 4.68453 -24.5572 0
      vertex 3.13333 -24.8029 4.91192
      vertex 3.13333 -24.8029 0
    endloop
  endfacet
  facet normal 0.15644 -0.987688 1.40698e-06
    outer loop
      vertex 3.13333 -24.8029 4.91192
      vertex 4.68453 -24.5572 0
      vertex 3.28169 -24.7794 4.977
    endloop
  endfacet
  facet normal 0.156435 -0.987688 0
    outer loop
      vertex 3.28169 -24.7794 4.977
      vertex 4.68453 -24.5572 0
      vertex 4.68453 -24.5572 6.26841
    endloop
  endfacet
  facet normal 0.156435 -0.987688 0
    outer loop
      vertex 3.13333 -24.8029 15.0881
      vertex 4.68453 -24.5572 20
      vertex 3.13333 -24.8029 20
    endloop
  endfacet
  facet normal 0.15644 -0.987688 -1.40698e-06
    outer loop
      vertex 3.28169 -24.7794 15.023
      vertex 4.68453 -24.5572 20
      vertex 3.13333 -24.8029 15.0881
    endloop
  endfacet
  facet normal 0.156435 -0.987688 0
    outer loop
      vertex 4.68453 -24.5572 20
      vertex 3.28169 -24.7794 15.023
      vertex 4.68453 -24.5572 13.7316
    endloop
  endfacet
  facet normal 0.397148 -0.917755 0
    outer loop
      vertex 9.20311 -23.2444 0
      vertex 10.6445 -22.6207 20
      vertex 9.20311 -23.2444 20
    endloop
  endfacet
  facet normal 0.397148 -0.917755 0
    outer loop
      vertex 10.6445 -22.6207 20
      vertex 9.20311 -23.2444 0
      vertex 10.6445 -22.6207 0
    endloop
  endfacet
  facet normal 0.612907 -0.790155 0
    outer loop
      vertex 14.6946 -20.2254 0
      vertex 15.9356 -19.2628 20
      vertex 14.6946 -20.2254 20
    endloop
  endfacet
  facet normal 0.612907 -0.790155 0
    outer loop
      vertex 15.9356 -19.2628 20
      vertex 14.6946 -20.2254 0
      vertex 15.9356 -19.2628 0
    endloop
  endfacet
  facet normal 0.509042 -0.860742 0
    outer loop
      vertex 12.0438 -21.9077 0
      vertex 13.3957 -21.1082 20
      vertex 12.0438 -21.9077 20
    endloop
  endfacet
  facet normal 0.509042 -0.860742 0
    outer loop
      vertex 13.3957 -21.1082 20
      vertex 12.0438 -21.9077 0
      vertex 13.3957 -21.1082 0
    endloop
  endfacet
  facet normal 0.562082 -0.827081 0
    outer loop
      vertex 13.3957 -21.1082 0
      vertex 14.6946 -20.2254 20
      vertex 13.3957 -21.1082 20
    endloop
  endfacet
  facet normal 0.562082 -0.827081 0
    outer loop
      vertex 14.6946 -20.2254 20
      vertex 13.3957 -21.1082 0
      vertex 14.6946 -20.2254 0
    endloop
  endfacet
  facet normal 0.750112 -0.661311 0
    outer loop
      vertex 18.2242 -17.1137 20
      vertex 19.2628 -15.9356 0
      vertex 19.2628 -15.9356 20
    endloop
  endfacet
  facet normal 0.750112 -0.661311 0
    outer loop
      vertex 19.2628 -15.9356 0
      vertex 18.2242 -17.1137 20
      vertex 18.2242 -17.1137 0
    endloop
  endfacet
  facet normal 0.790155 -0.612907 0
    outer loop
      vertex 19.2628 -15.9356 20
      vertex 20.2254 -14.6946 0
      vertex 20.2254 -14.6946 20
    endloop
  endfacet
  facet normal 0.790155 -0.612907 0
    outer loop
      vertex 20.2254 -14.6946 0
      vertex 19.2628 -15.9356 20
      vertex 19.2628 -15.9356 0
    endloop
  endfacet
  facet normal 0.917755 -0.397147 0
    outer loop
      vertex 22.6207 -10.6445 20
      vertex 23.2212 -9.25685 0
      vertex 23.2212 -9.25685 20
    endloop
  endfacet
  facet normal 0.917755 -0.397147 0
    outer loop
      vertex 23.2212 -9.25685 0
      vertex 22.6207 -10.6445 20
      vertex 22.6207 -10.6445 0
    endloop
  endfacet
  facet normal -0.661311 -0.750112 0
    outer loop
      vertex -17.1137 -18.2242 0
      vertex -15.9356 -19.2628 20
      vertex -17.1137 -18.2242 20
    endloop
  endfacet
  facet normal -0.661311 -0.750112 -0
    outer loop
      vertex -15.9356 -19.2628 20
      vertex -17.1137 -18.2242 0
      vertex -15.9356 -19.2628 0
    endloop
  endfacet
  facet normal -0.453991 -0.891006 0
    outer loop
      vertex -12.0438 -21.9077 0
      vertex -10.6445 -22.6207 20
      vertex -12.0438 -21.9077 20
    endloop
  endfacet
  facet normal -0.453991 -0.891006 -0
    outer loop
      vertex -10.6445 -22.6207 20
      vertex -12.0438 -21.9077 0
      vertex -10.6445 -22.6207 0
    endloop
  endfacet
  facet normal -0.562082 -0.827081 0
    outer loop
      vertex -14.6946 -20.2254 0
      vertex -13.3957 -21.1082 20
      vertex -14.6946 -20.2254 20
    endloop
  endfacet
  facet normal -0.562082 -0.827081 -0
    outer loop
      vertex -13.3957 -21.1082 20
      vertex -14.6946 -20.2254 0
      vertex -13.3957 -21.1082 0
    endloop
  endfacet
  facet normal -0.338738 -0.940881 0
    outer loop
      vertex -9.20311 -23.2444 0
      vertex -7.72542 -23.7764 20
      vertex -9.20311 -23.2444 20
    endloop
  endfacet
  facet normal -0.338738 -0.940881 -0
    outer loop
      vertex -7.72542 -23.7764 20
      vertex -9.20311 -23.2444 0
      vertex -7.72542 -23.7764 0
    endloop
  endfacet
  facet normal -0.218143 -0.975917 0
    outer loop
      vertex -6.21725 -24.2146 20
      vertex -4.68453 -24.5572 13.6167
      vertex -4.68453 -24.5572 20
    endloop
  endfacet
  facet normal -0.218143 -0.975917 1.12856e-08
    outer loop
      vertex -6.21725 -24.2146 20
      vertex -5.27684 -24.4248 12.8557
      vertex -4.68453 -24.5572 13.6167
    endloop
  endfacet
  facet normal -0.218143 -0.975917 5.7086e-08
    outer loop
      vertex -6.21725 -24.2146 20
      vertex -5.91817 -24.2814 10.9876
      vertex -5.27684 -24.4248 12.8557
    endloop
  endfacet
  facet normal -0.218144 -0.975917 0
    outer loop
      vertex -6.21725 -24.2146 20
      vertex -5.91817 -24.2814 9.01243
      vertex -5.91817 -24.2814 10.9876
    endloop
  endfacet
  facet normal -0.218144 -0.975917 0
    outer loop
      vertex -6.21725 -24.2146 0
      vertex -5.91817 -24.2814 9.01243
      vertex -6.21725 -24.2146 20
    endloop
  endfacet
  facet normal -0.218143 -0.975917 -5.7086e-08
    outer loop
      vertex -6.21725 -24.2146 0
      vertex -5.27684 -24.4248 7.14431
      vertex -5.91817 -24.2814 9.01243
    endloop
  endfacet
  facet normal -0.218143 -0.975917 -1.12856e-08
    outer loop
      vertex -6.21725 -24.2146 0
      vertex -4.68453 -24.5572 6.38332
      vertex -5.27684 -24.4248 7.14431
    endloop
  endfacet
  facet normal -0.218143 -0.975917 -0
    outer loop
      vertex -4.68453 -24.5572 6.38332
      vertex -6.21725 -24.2146 0
      vertex -4.68453 -24.5572 0
    endloop
  endfacet
  facet normal -0.0941068 -0.995562 0
    outer loop
      vertex -3.13333 -24.8029 0
      vertex -2.41017 -24.8712 4.50536
      vertex -3.13333 -24.8029 4.97782
    endloop
  endfacet
  facet normal -0.0941092 -0.995562 3.79101e-07
    outer loop
      vertex -3.13333 -24.8029 0
      vertex -1.56976 -24.9507 4.29254
      vertex -2.41017 -24.8712 4.50536
    endloop
  endfacet
  facet normal -0.0941082 -0.995562 -0
    outer loop
      vertex -1.56976 -24.9507 4.29254
      vertex -3.13333 -24.8029 0
      vertex -1.56976 -24.9507 0
    endloop
  endfacet
  facet normal -0.0941082 -0.995562 0
    outer loop
      vertex -3.13333 -24.8029 20
      vertex -1.56976 -24.9507 15.7075
      vertex -1.56976 -24.9507 20
    endloop
  endfacet
  facet normal -0.0941092 -0.995562 -3.79101e-07
    outer loop
      vertex -3.13333 -24.8029 20
      vertex -2.41017 -24.8712 15.4946
      vertex -1.56976 -24.9507 15.7075
    endloop
  endfacet
  facet normal -0.0941068 -0.995562 0
    outer loop
      vertex -2.41017 -24.8712 15.4946
      vertex -3.13333 -24.8029 20
      vertex -3.13333 -24.8029 15.0222
    endloop
  endfacet
  facet normal -0.790155 -0.612907 0
    outer loop
      vertex -19.2628 -15.9356 0
      vertex -20.2254 -14.6946 20
      vertex -20.2254 -14.6946 0
    endloop
  endfacet
  facet normal -0.790155 -0.612907 0
    outer loop
      vertex -20.2254 -14.6946 20
      vertex -19.2628 -15.9356 0
      vertex -19.2628 -15.9356 20
    endloop
  endfacet
  facet normal -0.891006 -0.453991 0
    outer loop
      vertex -21.9077 -12.0438 0
      vertex -22.6207 -10.6445 20
      vertex -22.6207 -10.6445 0
    endloop
  endfacet
  facet normal -0.891006 -0.453991 0
    outer loop
      vertex -22.6207 -10.6445 20
      vertex -21.9077 -12.0438 0
      vertex -21.9077 -12.0438 20
    endloop
  endfacet
  facet normal 0.0941082 -0.995562 0
    outer loop
      vertex 3.13333 -24.8029 0
      vertex 1.56976 -24.9507 4.22608
      vertex 1.56976 -24.9507 0
    endloop
  endfacet
  facet normal 0.0941082 -0.995562 0
    outer loop
      vertex 1.56976 -24.9507 4.22608
      vertex 3.13333 -24.8029 0
      vertex 3.13333 -24.8029 4.91192
    endloop
  endfacet
  facet normal 0.0941082 -0.995562 0
    outer loop
      vertex 1.56976 -24.9507 15.7739
      vertex 3.13333 -24.8029 20
      vertex 1.56976 -24.9507 20
    endloop
  endfacet
  facet normal 0.0941082 -0.995562 0
    outer loop
      vertex 3.13333 -24.8029 20
      vertex 1.56976 -24.9507 15.7739
      vertex 3.13333 -24.8029 15.0881
    endloop
  endfacet
  facet normal 0.218143 -0.975917 0
    outer loop
      vertex 4.68453 -24.5572 13.7316
      vertex 6.21725 -24.2146 20
      vertex 4.68453 -24.5572 20
    endloop
  endfacet
  facet normal 0.218144 -0.975917 -3.83844e-07
    outer loop
      vertex 4.73484 -24.5459 13.6853
      vertex 6.21725 -24.2146 20
      vertex 4.68453 -24.5572 13.7316
    endloop
  endfacet
  facet normal 0.218143 -0.975917 -1.29354e-07
    outer loop
      vertex 5.6749 -24.3358 11.9482
      vertex 6.21725 -24.2146 20
      vertex 4.73484 -24.5459 13.6853
    endloop
  endfacet
  facet normal 0.218139 -0.975918 1.49553e-07
    outer loop
      vertex 6 -24.2631 10
      vertex 6.21725 -24.2146 20
      vertex 5.6749 -24.3358 11.9482
    endloop
  endfacet
  facet normal 0.218143 -0.975917 0
    outer loop
      vertex 6.21725 -24.2146 0
      vertex 4.68453 -24.5572 6.26841
      vertex 4.68453 -24.5572 0
    endloop
  endfacet
  facet normal 0.218144 -0.975917 3.83845e-07
    outer loop
      vertex 4.68453 -24.5572 6.26841
      vertex 6.21725 -24.2146 0
      vertex 4.73484 -24.5459 6.31472
    endloop
  endfacet
  facet normal 0.218143 -0.975917 1.29354e-07
    outer loop
      vertex 4.73484 -24.5459 6.31472
      vertex 6.21725 -24.2146 0
      vertex 5.6749 -24.3358 8.0518
    endloop
  endfacet
  facet normal 0.218146 -0.975916 0
    outer loop
      vertex 6 -24.2631 10
      vertex 6.21725 -24.2146 0
      vertex 6.21725 -24.2146 20
    endloop
  endfacet
  facet normal 0.218139 -0.975918 -1.49553e-07
    outer loop
      vertex 5.6749 -24.3358 8.0518
      vertex 6.21725 -24.2146 0
      vertex 6 -24.2631 10
    endloop
  endfacet
  facet normal 0.338738 -0.940881 0
    outer loop
      vertex 7.72542 -23.7764 0
      vertex 9.20311 -23.2444 20
      vertex 7.72542 -23.7764 20
    endloop
  endfacet
  facet normal 0.338738 -0.940881 0
    outer loop
      vertex 9.20311 -23.2444 20
      vertex 7.72542 -23.7764 0
      vertex 9.20311 -23.2444 0
    endloop
  endfacet
  facet normal 0.661311 -0.750112 0
    outer loop
      vertex 15.9356 -19.2628 0
      vertex 17.1137 -18.2242 20
      vertex 15.9356 -19.2628 20
    endloop
  endfacet
  facet normal 0.661311 -0.750112 0
    outer loop
      vertex 17.1137 -18.2242 20
      vertex 15.9356 -19.2628 0
      vertex 17.1137 -18.2242 0
    endloop
  endfacet
  facet normal 0.891006 -0.453991 0
    outer loop
      vertex 21.9077 -12.0438 20
      vertex 22.6207 -10.6445 0
      vertex 22.6207 -10.6445 20
    endloop
  endfacet
  facet normal 0.891006 -0.453991 0
    outer loop
      vertex 22.6207 -10.6445 0
      vertex 21.9077 -12.0438 20
      vertex 21.9077 -12.0438 0
    endloop
  endfacet
  facet normal -0.612907 -0.790155 0
    outer loop
      vertex -15.9356 -19.2628 0
      vertex -14.6946 -20.2254 20
      vertex -15.9356 -19.2628 20
    endloop
  endfacet
  facet normal -0.612907 -0.790155 -0
    outer loop
      vertex -14.6946 -20.2254 20
      vertex -15.9356 -19.2628 0
      vertex -14.6946 -20.2254 0
    endloop
  endfacet
  facet normal -0.509042 -0.860742 0
    outer loop
      vertex -13.3957 -21.1082 0
      vertex -12.0438 -21.9077 20
      vertex -13.3957 -21.1082 20
    endloop
  endfacet
  facet normal -0.509042 -0.860742 -0
    outer loop
      vertex -12.0438 -21.9077 20
      vertex -13.3957 -21.1082 0
      vertex -12.0438 -21.9077 0
    endloop
  endfacet
  facet normal -0.278991 -0.960294 0
    outer loop
      vertex -7.72542 -23.7764 0
      vertex -6.21725 -24.2146 20
      vertex -7.72542 -23.7764 20
    endloop
  endfacet
  facet normal -0.278991 -0.960294 -0
    outer loop
      vertex -6.21725 -24.2146 20
      vertex -7.72542 -23.7764 0
      vertex -6.21725 -24.2146 0
    endloop
  endfacet
  facet normal -0.156434 -0.987688 0
    outer loop
      vertex -4.68453 -24.5572 0
      vertex -4.06369 -24.6555 5.58566
      vertex -4.68453 -24.5572 6.38332
    endloop
  endfacet
  facet normal -0.156436 -0.987688 2.50261e-07
    outer loop
      vertex -4.68453 -24.5572 0
      vertex -3.13333 -24.8029 4.97782
      vertex -4.06369 -24.6555 5.58566
    endloop
  endfacet
  facet normal -0.156435 -0.987688 -0
    outer loop
      vertex -3.13333 -24.8029 4.97782
      vertex -4.68453 -24.5572 0
      vertex -3.13333 -24.8029 0
    endloop
  endfacet
  facet normal -0.156435 -0.987688 0
    outer loop
      vertex -4.68453 -24.5572 20
      vertex -3.13333 -24.8029 15.0222
      vertex -3.13333 -24.8029 20
    endloop
  endfacet
  facet normal -0.156436 -0.987688 -2.50261e-07
    outer loop
      vertex -4.68453 -24.5572 20
      vertex -4.06369 -24.6555 14.4143
      vertex -3.13333 -24.8029 15.0222
    endloop
  endfacet
  facet normal -0.156434 -0.987688 0
    outer loop
      vertex -4.06369 -24.6555 14.4143
      vertex -4.68453 -24.5572 20
      vertex -4.68453 -24.5572 13.6167
    endloop
  endfacet
  facet normal -0.0314107 -0.999507 -1.6721e-07
    outer loop
      vertex -1.56976 -24.9507 20
      vertex -0.495476 -24.9844 15.9795
      vertex 0 -25 20
    endloop
  endfacet
  facet normal -0.0314101 -0.999507 0
    outer loop
      vertex -0.495476 -24.9844 15.9795
      vertex -1.56976 -24.9507 20
      vertex -1.56976 -24.9507 15.7075
    endloop
  endfacet
  facet normal -0.0314121 -0.999507 -0
    outer loop
      vertex 0 -25 20
      vertex -0.495476 -24.9844 15.9795
      vertex 0 -25 15.9384
    endloop
  endfacet
  facet normal -0.0314101 -0.999507 -0
    outer loop
      vertex -1.56976 -24.9507 4.29254
      vertex -1.56976 -24.9507 0
      vertex -0.495476 -24.9844 4.02049
    endloop
  endfacet
  facet normal -0.0314107 -0.999507 1.6721e-07
    outer loop
      vertex 0 -25 0
      vertex -0.495476 -24.9844 4.02049
      vertex -1.56976 -24.9507 0
    endloop
  endfacet
  facet normal -0.0314121 -0.999507 0
    outer loop
      vertex -0.495476 -24.9844 4.02049
      vertex 0 -25 0
      vertex 0 -25 4.06155
    endloop
  endfacet
  facet normal -0.860742 -0.509042 0
    outer loop
      vertex -21.1082 -13.3957 0
      vertex -21.9077 -12.0438 20
      vertex -21.9077 -12.0438 0
    endloop
  endfacet
  facet normal -0.860742 -0.509042 0
    outer loop
      vertex -21.9077 -12.0438 20
      vertex -21.1082 -13.3957 0
      vertex -21.1082 -13.3957 20
    endloop
  endfacet
  facet normal -0.031411 0.999507 0
    outer loop
      vertex 3.13953 -14.9013 0
      vertex 0 -15 20
      vertex 3.13953 -14.9013 20
    endloop
  endfacet
  facet normal -0.031411 0.999507 0
    outer loop
      vertex 0 -15 20
      vertex 3.13953 -14.9013 0
      vertex 0 -15 0
    endloop
  endfacet
  facet normal -0.45399 0.891007 0
    outer loop
      vertex 23.2212 -9.25685 0
      vertex 21.289 -10.2414 20
      vertex 23.2212 -9.25685 20
    endloop
  endfacet
  facet normal -0.45399 0.891007 0
    outer loop
      vertex 21.289 -10.2414 20
      vertex 23.2212 -9.25685 0
      vertex 21.289 -10.2414 0
    endloop
  endfacet
  facet normal -0.218143 0.975917 0
    outer loop
      vertex 12.4345 -13.4292 0
      vertex 9.36907 -14.1144 20
      vertex 12.4345 -13.4292 20
    endloop
  endfacet
  facet normal -0.218143 0.975917 0
    outer loop
      vertex 9.36907 -14.1144 20
      vertex 12.4345 -13.4292 0
      vertex 9.36907 -14.1144 0
    endloop
  endfacet
  facet normal -0.397148 0.917755 0
    outer loop
      vertex 21.289 -10.2414 0
      vertex 18.4062 -11.4888 20
      vertex 21.289 -10.2414 20
    endloop
  endfacet
  facet normal -0.397148 0.917755 0
    outer loop
      vertex 18.4062 -11.4888 20
      vertex 21.289 -10.2414 0
      vertex 18.4062 -11.4888 0
    endloop
  endfacet
  facet normal 0.0941082 0.995562 -0
    outer loop
      vertex -3.13953 -14.9013 0
      vertex -6.26666 -14.6057 20
      vertex -3.13953 -14.9013 20
    endloop
  endfacet
  facet normal 0.0941082 0.995562 0
    outer loop
      vertex -6.26666 -14.6057 20
      vertex -3.13953 -14.9013 0
      vertex -6.26666 -14.6057 0
    endloop
  endfacet
  facet normal 0.45399 0.891007 -0
    outer loop
      vertex -21.289 -10.2414 0
      vertex -23.2212 -9.25685 20
      vertex -21.289 -10.2414 20
    endloop
  endfacet
  facet normal 0.45399 0.891007 0
    outer loop
      vertex -23.2212 -9.25685 20
      vertex -21.289 -10.2414 0
      vertex -23.2212 -9.25685 0
    endloop
  endfacet
  facet normal 0.338738 0.940881 -0
    outer loop
      vertex -15.4508 -12.5528 0
      vertex -18.4062 -11.4888 20
      vertex -15.4508 -12.5528 20
    endloop
  endfacet
  facet normal 0.338738 0.940881 0
    outer loop
      vertex -18.4062 -11.4888 20
      vertex -15.4508 -12.5528 0
      vertex -18.4062 -11.4888 0
    endloop
  endfacet
  facet normal 0.278991 0.960294 -0
    outer loop
      vertex -12.4345 -13.4292 0
      vertex -15.4508 -12.5528 20
      vertex -12.4345 -13.4292 20
    endloop
  endfacet
  facet normal 0.278991 0.960294 0
    outer loop
      vertex -15.4508 -12.5528 20
      vertex -12.4345 -13.4292 0
      vertex -15.4508 -12.5528 0
    endloop
  endfacet
  facet normal 0.218143 0.975917 -0
    outer loop
      vertex -9.36907 -14.1144 0
      vertex -12.4345 -13.4292 20
      vertex -9.36907 -14.1144 20
    endloop
  endfacet
  facet normal 0.218143 0.975917 0
    outer loop
      vertex -12.4345 -13.4292 20
      vertex -9.36907 -14.1144 0
      vertex -12.4345 -13.4292 0
    endloop
  endfacet
  facet normal 0.397148 0.917755 -0
    outer loop
      vertex -18.4062 -11.4888 0
      vertex -21.289 -10.2414 20
      vertex -18.4062 -11.4888 20
    endloop
  endfacet
  facet normal 0.397148 0.917755 0
    outer loop
      vertex -21.289 -10.2414 20
      vertex -18.4062 -11.4888 0
      vertex -21.289 -10.2414 0
    endloop
  endfacet
  facet normal -0.278991 0.960294 0
    outer loop
      vertex 15.4508 -12.5528 0
      vertex 12.4345 -13.4292 20
      vertex 15.4508 -12.5528 20
    endloop
  endfacet
  facet normal -0.278991 0.960294 0
    outer loop
      vertex 12.4345 -13.4292 20
      vertex 15.4508 -12.5528 0
      vertex 12.4345 -13.4292 0
    endloop
  endfacet
  facet normal -0.156435 0.987688 0
    outer loop
      vertex 9.36907 -14.1144 0
      vertex 6.26666 -14.6057 20
      vertex 9.36907 -14.1144 20
    endloop
  endfacet
  facet normal -0.156435 0.987688 0
    outer loop
      vertex 6.26666 -14.6057 20
      vertex 9.36907 -14.1144 0
      vertex 6.26666 -14.6057 0
    endloop
  endfacet
  facet normal -0.0941082 0.995562 0
    outer loop
      vertex 6.26666 -14.6057 0
      vertex 3.13953 -14.9013 20
      vertex 6.26666 -14.6057 20
    endloop
  endfacet
  facet normal -0.0941082 0.995562 0
    outer loop
      vertex 3.13953 -14.9013 20
      vertex 6.26666 -14.6057 0
      vertex 3.13953 -14.9013 0
    endloop
  endfacet
  facet normal 0.031411 0.999507 -0
    outer loop
      vertex 0 -15 0
      vertex -3.13953 -14.9013 20
      vertex 0 -15 20
    endloop
  endfacet
  facet normal 0.031411 0.999507 0
    outer loop
      vertex -3.13953 -14.9013 20
      vertex 0 -15 0
      vertex -3.13953 -14.9013 0
    endloop
  endfacet
  facet normal 0.156435 0.987688 -0
    outer loop
      vertex -6.26666 -14.6057 0
      vertex -9.36907 -14.1144 20
      vertex -6.26666 -14.6057 20
    endloop
  endfacet
  facet normal 0.156435 0.987688 0
    outer loop
      vertex -9.36907 -14.1144 20
      vertex -6.26666 -14.6057 0
      vertex -9.36907 -14.1144 0
    endloop
  endfacet
  facet normal -0.338738 0.940881 0
    outer loop
      vertex 18.4062 -11.4888 0
      vertex 15.4508 -12.5528 20
      vertex 18.4062 -11.4888 20
    endloop
  endfacet
  facet normal -0.338738 0.940881 0
    outer loop
      vertex 15.4508 -12.5528 20
      vertex 18.4062 -11.4888 0
      vertex 15.4508 -12.5528 0
    endloop
  endfacet
  facet normal -0.986361 0 0.164595
    outer loop
      vertex 5.6749 -20 8.0518
      vertex 6 -24.2631 10
      vertex 6 -20 10
    endloop
  endfacet
  facet normal -0.986361 0 0.164595
    outer loop
      vertex 6 -24.2631 10
      vertex 5.6749 -20 8.0518
      vertex 5.6749 -24.3358 8.0518
    endloop
  endfacet
  facet normal 0.245485 0 0.9694
    outer loop
      vertex -0.495476 -20 4.02049
      vertex -1.56976 -24.9507 4.29254
      vertex -0.495476 -24.9844 4.02049
    endloop
  endfacet
  facet normal 0.245486 -4.18382e-08 0.9694
    outer loop
      vertex -2.41017 -20 4.50536
      vertex -1.56976 -24.9507 4.29254
      vertex -0.495476 -20 4.02049
    endloop
  endfacet
  facet normal 0.245486 0 0.9694
    outer loop
      vertex -1.56976 -24.9507 4.29254
      vertex -2.41017 -20 4.50536
      vertex -2.41017 -24.8712 4.50536
    endloop
  endfacet
  facet normal -0.0825789 0 -0.996585
    outer loop
      vertex 0 -25 15.9384
      vertex 1.47291 -20 15.8164
      vertex 1.47291 -24.9537 15.8164
    endloop
  endfacet
  facet normal -0.08258 -0 -0.996584
    outer loop
      vertex -0.495476 -20 15.9795
      vertex 0 -25 15.9384
      vertex -0.495476 -24.9844 15.9795
    endloop
  endfacet
  facet normal -0.0825792 8.36239e-08 -0.996585
    outer loop
      vertex 0 -25 15.9384
      vertex -0.495476 -20 15.9795
      vertex 1.47291 -20 15.8164
    endloop
  endfacet
  facet normal -0.401695 0 -0.915774
    outer loop
      vertex 3.13333 -24.8029 15.0881
      vertex 3.28169 -20 15.023
      vertex 3.28169 -24.7794 15.023
    endloop
  endfacet
  facet normal -0.401695 5.19044e-08 -0.915773
    outer loop
      vertex 1.47291 -20 15.8164
      vertex 3.13333 -24.8029 15.0881
      vertex 1.56976 -24.9507 15.7739
    endloop
  endfacet
  facet normal -0.401698 -0 -0.915772
    outer loop
      vertex 1.47291 -20 15.8164
      vertex 1.56976 -24.9507 15.7739
      vertex 1.47291 -24.9537 15.8164
    endloop
  endfacet
  facet normal -0.401695 2.46735e-08 -0.915773
    outer loop
      vertex 3.13333 -24.8029 15.0881
      vertex 1.47291 -20 15.8164
      vertex 3.28169 -20 15.023
    endloop
  endfacet
  facet normal -0.677282 0 0.735724
    outer loop
      vertex 4.73484 -20 6.31472
      vertex 4.68453 -24.5572 6.26841
      vertex 4.73484 -24.5459 6.31472
    endloop
  endfacet
  facet normal -0.677282 2.22194e-10 0.735724
    outer loop
      vertex 3.28169 -20 4.977
      vertex 4.68453 -24.5572 6.26841
      vertex 4.73484 -20 6.31472
    endloop
  endfacet
  facet normal -0.677282 0 0.735724
    outer loop
      vertex 4.68453 -24.5572 6.26841
      vertex 3.28169 -20 4.977
      vertex 3.28169 -24.7794 4.977
    endloop
  endfacet
  facet normal -0.879474 0 0.475947
    outer loop
      vertex 4.73484 -20 6.31472
      vertex 5.6749 -24.3358 8.0518
      vertex 5.6749 -20 8.0518
    endloop
  endfacet
  facet normal -0.879474 0 0.475947
    outer loop
      vertex 5.6749 -24.3358 8.0518
      vertex 4.73484 -20 6.31472
      vertex 4.73484 -24.5459 6.31472
    endloop
  endfacet
  facet normal -0.401695 0 0.915774
    outer loop
      vertex 3.28169 -20 4.977
      vertex 3.13333 -24.8029 4.91192
      vertex 3.28169 -24.7794 4.977
    endloop
  endfacet
  facet normal -0.401695 2.46735e-08 0.915773
    outer loop
      vertex 1.47291 -20 4.1836
      vertex 3.13333 -24.8029 4.91192
      vertex 3.28169 -20 4.977
    endloop
  endfacet
  facet normal -0.401696 -4.15915e-08 0.915773
    outer loop
      vertex 3.13333 -24.8029 4.91192
      vertex 1.47291 -20 4.1836
      vertex 1.56976 -24.9507 4.22608
    endloop
  endfacet
  facet normal -0.401694 0 0.915774
    outer loop
      vertex 1.56976 -24.9507 4.22608
      vertex 1.47291 -20 4.1836
      vertex 1.47291 -24.9537 4.1836
    endloop
  endfacet
  facet normal 0.78914 -0 0.614213
    outer loop
      vertex -5.27684 -24.4248 7.14431
      vertex -4.06369 -20 5.58566
      vertex -5.27684 -20 7.14431
    endloop
  endfacet
  facet normal 0.78914 9.50486e-09 0.614213
    outer loop
      vertex -4.68453 -24.5572 6.38332
      vertex -4.06369 -20 5.58566
      vertex -5.27684 -24.4248 7.14431
    endloop
  endfacet
  facet normal 0.78914 0 0.614213
    outer loop
      vertex -4.06369 -20 5.58566
      vertex -4.68453 -24.5572 6.38332
      vertex -4.06369 -24.6555 5.58566
    endloop
  endfacet
  facet normal 0.945817 -0 0.324699
    outer loop
      vertex -5.91817 -24.2814 9.01243
      vertex -5.27684 -20 7.14431
      vertex -5.91817 -20 9.01243
    endloop
  endfacet
  facet normal 0.945817 0 0.324699
    outer loop
      vertex -5.27684 -20 7.14431
      vertex -5.91817 -24.2814 9.01243
      vertex -5.27684 -24.4248 7.14431
    endloop
  endfacet
  facet normal 0 -1 0
    outer loop
      vertex -2.41017 -20 15.4946
      vertex 1.47291 -20 15.8164
      vertex -0.495476 -20 15.9795
    endloop
  endfacet
  facet normal 0 -1 0
    outer loop
      vertex -2.41017 -20 15.4946
      vertex 3.28169 -20 15.023
      vertex 1.47291 -20 15.8164
    endloop
  endfacet
  facet normal 0 -1 0
    outer loop
      vertex -4.06369 -20 14.4143
      vertex 3.28169 -20 15.023
      vertex -2.41017 -20 15.4946
    endloop
  endfacet
  facet normal 0 -1 0
    outer loop
      vertex -4.06369 -20 14.4143
      vertex 4.73484 -20 13.6853
      vertex 3.28169 -20 15.023
    endloop
  endfacet
  facet normal 0 -1 0
    outer loop
      vertex -5.27684 -20 12.8557
      vertex 4.73484 -20 13.6853
      vertex -4.06369 -20 14.4143
    endloop
  endfacet
  facet normal 0 -1 0
    outer loop
      vertex -5.27684 -20 12.8557
      vertex 5.6749 -20 11.9482
      vertex 4.73484 -20 13.6853
    endloop
  endfacet
  facet normal 0 -1 0
    outer loop
      vertex -5.91817 -20 10.9876
      vertex 5.6749 -20 11.9482
      vertex -5.27684 -20 12.8557
    endloop
  endfacet
  facet normal 0 -1 0
    outer loop
      vertex -5.91817 -20 10.9876
      vertex 6 -20 10
      vertex 5.6749 -20 11.9482
    endloop
  endfacet
  facet normal 0 -1 0
    outer loop
      vertex -5.91817 -20 9.01243
      vertex 6 -20 10
      vertex -5.91817 -20 10.9876
    endloop
  endfacet
  facet normal 0 -1 0
    outer loop
      vertex -5.91817 -20 9.01243
      vertex 5.6749 -20 8.0518
      vertex 6 -20 10
    endloop
  endfacet
  facet normal 0 -1 0
    outer loop
      vertex -5.27684 -20 7.14431
      vertex 5.6749 -20 8.0518
      vertex -5.91817 -20 9.01243
    endloop
  endfacet
  facet normal 0 -1 0
    outer loop
      vertex -5.27684 -20 7.14431
      vertex 4.73484 -20 6.31472
      vertex 5.6749 -20 8.0518
    endloop
  endfacet
  facet normal 0 -1 0
    outer loop
      vertex -4.06369 -20 5.58566
      vertex 4.73484 -20 6.31472
      vertex -5.27684 -20 7.14431
    endloop
  endfacet
  facet normal 0 -1 0
    outer loop
      vertex -4.06369 -20 5.58566
      vertex 3.28169 -20 4.977
      vertex 4.73484 -20 6.31472
    endloop
  endfacet
  facet normal 0 -1 0
    outer loop
      vertex -2.41017 -20 4.50536
      vertex 3.28169 -20 4.977
      vertex -4.06369 -20 5.58566
    endloop
  endfacet
  facet normal 0 -1 0
    outer loop
      vertex -2.41017 -20 4.50536
      vertex 1.47291 -20 4.1836
      vertex 3.28169 -20 4.977
    endloop
  endfacet
  facet normal -0 -1 0
    outer loop
      vertex 1.47291 -20 4.1836
      vertex -2.41017 -20 4.50536
      vertex -0.495476 -20 4.02049
    endloop
  endfacet
  facet normal 0.546948 0 0.837166
    outer loop
      vertex -2.41017 -20 4.50536
      vertex -3.13333 -24.8029 4.97782
      vertex -2.41017 -24.8712 4.50536
    endloop
  endfacet
  facet normal 0.546948 -2.1077e-09 0.837166
    outer loop
      vertex -4.06369 -20 5.58566
      vertex -3.13333 -24.8029 4.97782
      vertex -2.41017 -20 4.50536
    endloop
  endfacet
  facet normal 0.546948 0 0.837166
    outer loop
      vertex -3.13333 -24.8029 4.97782
      vertex -4.06369 -20 5.58566
      vertex -4.06369 -24.6555 5.58566
    endloop
  endfacet
  facet normal -0.986361 0 -0.164595
    outer loop
      vertex 6 -24.2631 10
      vertex 5.6749 -20 11.9482
      vertex 6 -20 10
    endloop
  endfacet
  facet normal -0.986361 -0 -0.164595
    outer loop
      vertex 5.6749 -20 11.9482
      vertex 6 -24.2631 10
      vertex 5.6749 -24.3358 11.9482
    endloop
  endfacet
  facet normal 0.546948 0 -0.837166
    outer loop
      vertex -3.13333 -24.8029 15.0222
      vertex -2.41017 -20 15.4946
      vertex -2.41017 -24.8712 15.4946
    endloop
  endfacet
  facet normal 0.546948 -3.65874e-09 -0.837166
    outer loop
      vertex -4.06369 -24.6555 14.4143
      vertex -2.41017 -20 15.4946
      vertex -3.13333 -24.8029 15.0222
    endloop
  endfacet
  facet normal 0.546948 0 -0.837166
    outer loop
      vertex -2.41017 -20 15.4946
      vertex -4.06369 -24.6555 14.4143
      vertex -4.06369 -20 14.4143
    endloop
  endfacet
  facet normal 0.945817 0 -0.324699
    outer loop
      vertex -5.27684 -20 12.8557
      vertex -5.91817 -24.2814 10.9876
      vertex -5.91817 -20 10.9876
    endloop
  endfacet
  facet normal 0.945817 0 -0.324699
    outer loop
      vertex -5.91817 -24.2814 10.9876
      vertex -5.27684 -20 12.8557
      vertex -5.27684 -24.4248 12.8557
    endloop
  endfacet
  facet normal -0.0825792 0 0.996585
    outer loop
      vertex 1.47291 -20 4.1836
      vertex 0 -25 4.06155
      vertex 1.47291 -24.9537 4.1836
    endloop
  endfacet
  facet normal -0.0825792 -1.14178e-08 0.996585
    outer loop
      vertex -0.495476 -20 4.02049
      vertex 0 -25 4.06155
      vertex 1.47291 -20 4.1836
    endloop
  endfacet
  facet normal -0.0825791 0 0.996585
    outer loop
      vertex 0 -25 4.06155
      vertex -0.495476 -20 4.02049
      vertex -0.495476 -24.9844 4.02049
    endloop
  endfacet
  facet normal 1 -0 0
    outer loop
      vertex -5.91817 -24.2814 10.9876
      vertex -5.91817 -20 9.01243
      vertex -5.91817 -20 10.9876
    endloop
  endfacet
  facet normal 1 0 0
    outer loop
      vertex -5.91817 -20 9.01243
      vertex -5.91817 -24.2814 10.9876
      vertex -5.91817 -24.2814 9.01243
    endloop
  endfacet
  facet normal 0.245485 0 -0.9694
    outer loop
      vertex -1.56976 -24.9507 15.7075
      vertex -0.495476 -20 15.9795
      vertex -0.495476 -24.9844 15.9795
    endloop
  endfacet
  facet normal 0.245486 0 -0.9694
    outer loop
      vertex -2.41017 -20 15.4946
      vertex -1.56976 -24.9507 15.7075
      vertex -2.41017 -24.8712 15.4946
    endloop
  endfacet
  facet normal 0.245486 -4.18382e-08 -0.9694
    outer loop
      vertex -1.56976 -24.9507 15.7075
      vertex -2.41017 -20 15.4946
      vertex -0.495476 -20 15.9795
    endloop
  endfacet
  facet normal 0.78914 0 -0.614213
    outer loop
      vertex -4.06369 -20 14.4143
      vertex -5.27684 -24.4248 12.8557
      vertex -5.27684 -20 12.8557
    endloop
  endfacet
  facet normal 0.78914 9.50486e-09 -0.614213
    outer loop
      vertex -4.06369 -20 14.4143
      vertex -4.68453 -24.5572 13.6167
      vertex -5.27684 -24.4248 12.8557
    endloop
  endfacet
  facet normal 0.78914 0 -0.614213
    outer loop
      vertex -4.68453 -24.5572 13.6167
      vertex -4.06369 -20 14.4143
      vertex -4.06369 -24.6555 14.4143
    endloop
  endfacet
  facet normal -0.677286 0 -0.73572
    outer loop
      vertex 4.68453 -24.5572 13.7316
      vertex 4.73484 -20 13.6853
      vertex 4.73484 -24.5459 13.6853
    endloop
  endfacet
  facet normal -0.677282 -0 -0.735724
    outer loop
      vertex 3.28169 -20 15.023
      vertex 4.68453 -24.5572 13.7316
      vertex 3.28169 -24.7794 15.023
    endloop
  endfacet
  facet normal -0.677282 -7.67597e-08 -0.735724
    outer loop
      vertex 4.68453 -24.5572 13.7316
      vertex 3.28169 -20 15.023
      vertex 4.73484 -20 13.6853
    endloop
  endfacet
  facet normal -0.879474 0 -0.475947
    outer loop
      vertex 5.6749 -24.3358 11.9482
      vertex 4.73484 -20 13.6853
      vertex 5.6749 -20 11.9482
    endloop
  endfacet
  facet normal -0.879474 -0 -0.475947
    outer loop
      vertex 4.73484 -20 13.6853
      vertex 5.6749 -24.3358 11.9482
      vertex 4.73484 -24.5459 13.6853
    endloop
  endfacet
endsolid OpenSCAD_Model
